<svg xmlns="http://www.w3.org/2000/svg" viewBox="0 0 400.7 492.63"><defs><style>.cls-1{isolation:isolate;}.cls-2{fill:#494847;}.cls-3{fill:#57432a;}.cls-4{fill:#664e2c;}.cls-5{fill:#997b53;}.cls-6{fill:#8c724a;}.cls-7{fill:#bc9962;}.cls-8{fill:#ae8f59;}.cls-9{fill:#be9d72;}.cls-10{fill:#cba97f;}.cls-11{fill:#d4b38a;}.cls-12{fill:#e5c6a3;}.cls-13{fill:#cca87d;}.cls-14{fill:#be9e72;}.cls-15{fill:#e2e2e2;}.cls-16{fill:#ccc7b8;}.cls-17{fill:#686764;}.cls-18{fill:#ededed;}.cls-19,.cls-20{fill:#dbdbdb;}.cls-20{mix-blend-mode:multiply;}.cls-21{fill:#f7f7f7;}.cls-22{fill:#e0e0e0;}.cls-23{fill:#ebebeb;}.cls-24{fill:#821800;}.cls-25{fill:#bd1800;}.cls-26{fill:#ed1800;}.cls-27{fill:#fff;}.cls-28{fill:#d9d9d9;}.cls-29{fill:#648182;}.cls-30{fill:#939292;}.cls-31{fill:#010101;}.cls-32{fill:#e06612;}.cls-33{fill:#f47920;}</style></defs><title>cxsdelixo</title><g class="cls-1"><g id="Camada_1" data-name="Camada 1"><path class="cls-2" d="M155.26,271.38v-14h3.2V269h6.35v2.36Z"/><path class="cls-2" d="M166.21,258.16a1.72,1.72,0,0,1,.52-1.31,2.16,2.16,0,0,1,2.74,0,1.92,1.92,0,0,1,0,2.63,2.13,2.13,0,0,1-2.74,0A1.76,1.76,0,0,1,166.21,258.16Zm.32,13.22v-10h3.12v10Z"/><path class="cls-2" d="M171,271.38v-.26l3.71-4.68-3.58-4.82v-.24h3.54l2,3.09,1.94-3.09h3.18v.24l-3.86,4.68,3.56,4.82v.26H178l-1.94-3-1.8,3Z"/><path class="cls-2" d="M181.77,266.54a5.64,5.64,0,0,1,1.33-4,4.86,4.86,0,0,1,3.76-1.43,5,5,0,0,1,3.7,1.32,5.28,5.28,0,0,1,1.31,3.88,5.48,5.48,0,0,1-1.34,3.93,4.85,4.85,0,0,1-3.72,1.43,5,5,0,0,1-3.73-1.32A5.15,5.15,0,0,1,181.77,266.54Zm3.19-.12a4.39,4.39,0,0,0,.47,2.25,1.63,1.63,0,0,0,2.77,0,4.28,4.28,0,0,0,.48-2.25c0-2.07-.6-3.1-1.82-3.1S185,264.35,185,266.42Z"/><path class="cls-2" d="M197.46,266.59a5.37,5.37,0,0,1,1.53-4,5.55,5.55,0,0,1,4-1.5,11.56,11.56,0,0,1,2.78.34l-.46,2.11a8.42,8.42,0,0,0-1.85-.23,2.67,2.67,0,0,0-2.06.87,3.22,3.22,0,0,0-.8,2.24,2.67,2.67,0,0,0,3,3,7.88,7.88,0,0,0,1.91-.27L206,271a8.48,8.48,0,0,1-3.27.65,5.33,5.33,0,0,1-3.86-1.32A5,5,0,0,1,197.46,266.59Z"/><path class="cls-2" d="M206.87,266.54a5.65,5.65,0,0,1,1.34-4A4.86,4.86,0,0,1,212,261.1a5,5,0,0,1,3.7,1.32A5.32,5.32,0,0,1,217,266.3a5.52,5.52,0,0,1-1.34,3.93,4.85,4.85,0,0,1-3.73,1.43,5,5,0,0,1-3.73-1.32A5.19,5.19,0,0,1,206.87,266.54Zm3.2-.12a4.29,4.29,0,0,0,.47,2.25,1.52,1.52,0,0,0,1.37.77,1.55,1.55,0,0,0,1.4-.77,4.28,4.28,0,0,0,.48-2.25c0-2.07-.61-3.1-1.82-3.1S210.07,264.35,210.07,266.42Z"/><path class="cls-2" d="M218.75,271.38v-10h2l.42.74a6,6,0,0,1,3.2-1,3.6,3.6,0,0,1,2.73,1,5.92,5.92,0,0,1,3.2-1,3.61,3.61,0,0,1,2.57.83,3.12,3.12,0,0,1,.89,2.39v7.06H230.6v-6.71a1.27,1.27,0,0,0-.35-1,1.47,1.47,0,0,0-1-.33,4,4,0,0,0-1.47.3,5.84,5.84,0,0,1,0,.64v7.07h-3.11v-6.71c0-.87-.46-1.3-1.37-1.3a4.56,4.56,0,0,0-1.45.3v7.71Z"/><path class="cls-2" d="M235.63,268.54v-7.16h3.12v6.68c0,.89.49,1.33,1.46,1.33a4.08,4.08,0,0,0,1.51-.31v-7.7h3.19v10h-2l-.43-.71a5.93,5.93,0,0,1-3.39,1,3.67,3.67,0,0,1-2.57-.82A3,3,0,0,1,235.63,268.54Z"/><path class="cls-2" d="M247.14,271.38v-10h2l.42.74a6,6,0,0,1,3.2-1,3.6,3.6,0,0,1,2.73,1,5.92,5.92,0,0,1,3.2-1,3.61,3.61,0,0,1,2.57.83,3.12,3.12,0,0,1,.89,2.39v7.06H259v-6.71a1.31,1.31,0,0,0-.35-1,1.47,1.47,0,0,0-1-.33,4,4,0,0,0-1.47.3,5.84,5.84,0,0,1,0,.64v7.07h-3.11v-6.71c0-.87-.46-1.3-1.37-1.3a4.51,4.51,0,0,0-1.45.3v7.71Z"/><path class="cls-2" d="M44.6,301.38v-14h4.72a4.77,4.77,0,0,1,3.33,1.06,3.9,3.9,0,0,1,1.18,3,4,4,0,0,1-1.22,3.11,4.83,4.83,0,0,1-3.37,1.12H46.46v5.67Zm1.86-7.08h2.68a2.59,2.59,0,0,0,2.78-2.8,2.69,2.69,0,0,0-.72-2,2.75,2.75,0,0,0-2-.71H46.46Z"/><path class="cls-2" d="M55.51,298.75a2.81,2.81,0,0,1,1-2.33,4.56,4.56,0,0,1,2.91-.82h2.16v-.93a2,2,0,0,0-.58-1.58,2.7,2.7,0,0,0-1.83-.51,12.66,12.66,0,0,0-3.29.52l-.24-1.27a14.51,14.51,0,0,1,4-.69q3.8,0,3.79,3.3v6.94h-1.2l-.27-.69a5.47,5.47,0,0,1-3.08.93,3.64,3.64,0,0,1-2.45-.79A2.62,2.62,0,0,1,55.51,298.75Zm1.77-.14a1.67,1.67,0,0,0,.56,1.3,2.17,2.17,0,0,0,1.5.49,4.61,4.61,0,0,0,2.27-.63v-3.15H59.68a2.71,2.71,0,0,0-1.77.52A1.81,1.81,0,0,0,57.28,298.61Z"/><path class="cls-2" d="M66.25,306.38v-15h1.19l.3.8a4.83,4.83,0,0,1,3-1,4.25,4.25,0,0,1,3.34,1.31,5.43,5.43,0,0,1,1.18,3.77A5.83,5.83,0,0,1,74,300.17a4.33,4.33,0,0,1-3.44,1.45,5.09,5.09,0,0,1-2.51-.6v5.36Zm1.82-6.78a4.11,4.11,0,0,0,2.32.7,2.68,2.68,0,0,0,2.24-1.1,4.67,4.67,0,0,0,.84-2.92,4.47,4.47,0,0,0-.79-2.82,2.68,2.68,0,0,0-2.23-1,3.43,3.43,0,0,0-1.22.21,5,5,0,0,0-1.16.63Z"/><path class="cls-2" d="M77.06,296.44a5.49,5.49,0,0,1,1.33-3.84,4.47,4.47,0,0,1,3.49-1.46,4.17,4.17,0,0,1,3,1.06,4,4,0,0,1,1.09,3,4.69,4.69,0,0,1-.18,1.3h-7a4,4,0,0,0,1,2.79,3.56,3.56,0,0,0,2.69,1,7.35,7.35,0,0,0,3.14-.81l.34,1.07a7.9,7.9,0,0,1-3.94,1.06,4.93,4.93,0,0,1-3.72-1.37A5.22,5.22,0,0,1,77.06,296.44Zm1.9-1.08h5.35l0-.3a2.84,2.84,0,0,0-.64-2,2.43,2.43,0,0,0-1.85-.69,2.51,2.51,0,0,0-1.9.8A4,4,0,0,0,79,295.36Z"/><path class="cls-2" d="M88.46,299.16V286.38h1.81V298.9a1.41,1.41,0,0,0,.34,1.08,1.43,1.43,0,0,0,1,.32,2.25,2.25,0,0,0,.86-.18l.15,1.1a4.42,4.42,0,0,1-1.8.4,2.39,2.39,0,0,1-1.77-.61A2.49,2.49,0,0,1,88.46,299.16Z"/><path class="cls-2" d="M99.09,301.38v-15H101V292a6.28,6.28,0,0,1,3.07-.82,3.73,3.73,0,0,1,2.57.78,3,3,0,0,1,.87,2.32v7.14h-1.82v-6.92c0-1.31-.72-2-2.18-2a5.13,5.13,0,0,0-2.51.7v8.18Z"/><path class="cls-2" d="M110.55,288.9a1.33,1.33,0,0,1,0-1.8,1.41,1.41,0,0,1,1.84,0,1.33,1.33,0,0,1,0,1.8,1.41,1.41,0,0,1-1.84,0Zm0,12.48v-10h1.81v10Z"/><path class="cls-2" d="M114.82,303.56a2.44,2.44,0,0,1,.55-1.57,3.07,3.07,0,0,1,1.39-.95,2,2,0,0,1-.26-2.42,2.12,2.12,0,0,1,.8-.74,3.35,3.35,0,0,1-1.54-1.24,3.42,3.42,0,0,1-.54-1.94,3.29,3.29,0,0,1,1.18-2.64,4.85,4.85,0,0,1,3.18-1,5.75,5.75,0,0,1,2.5.49l3.26-.19v1.26l-2,.11a4,4,0,0,1,.42,1.87,3.26,3.26,0,0,1-1.16,2.65,4.92,4.92,0,0,1-3.21,1,6.68,6.68,0,0,1-1-.07,1.29,1.29,0,0,0-.66,1.1c0,.59.42.88,1.27.88H121a4.25,4.25,0,0,1,2.66.74,2.41,2.41,0,0,1,1,2,3.19,3.19,0,0,1-1.39,2.74,6.56,6.56,0,0,1-3.82,1,6.13,6.13,0,0,1-3.42-.81A2.6,2.6,0,0,1,114.82,303.56Zm1.66-.18a1.7,1.7,0,0,0,.78,1.48,3.81,3.81,0,0,0,2.19.54,4.55,4.55,0,0,0,2.46-.59,1.8,1.8,0,0,0,.93-1.58,1.21,1.21,0,0,0-.55-1.07,2.77,2.77,0,0,0-1.56-.38H119a4,4,0,0,1-1.34-.21,2.3,2.3,0,0,0-.9.75A1.84,1.84,0,0,0,116.48,303.38Zm.56-8.72a2.42,2.42,0,0,0,.63,1.78,2.32,2.32,0,0,0,1.74.64,2.54,2.54,0,0,0,1.83-.64,2.34,2.34,0,0,0,.67-1.78,2.49,2.49,0,0,0-.6-1.81,2.28,2.28,0,0,0-1.73-.62,2.58,2.58,0,0,0-1.86.64A2.35,2.35,0,0,0,117,294.66Z"/><path class="cls-2" d="M127.14,288.9a1.36,1.36,0,0,1,0-1.8,1.43,1.43,0,0,1,1.85,0,1.36,1.36,0,0,1,0,1.8,1.43,1.43,0,0,1-1.85,0Zm0,12.48v-10H129v10Z"/><path class="cls-2" d="M131.55,296.44a5.49,5.49,0,0,1,1.33-3.84,4.47,4.47,0,0,1,3.49-1.46,4.15,4.15,0,0,1,3,1.06,4,4,0,0,1,1.1,3,4.35,4.35,0,0,1-.19,1.3h-6.95a4,4,0,0,0,1,2.79,3.58,3.58,0,0,0,2.69,1,7.32,7.32,0,0,0,3.14-.81l.35,1.07a8,8,0,0,1-4,1.06,4.93,4.93,0,0,1-3.72-1.37A5.26,5.26,0,0,1,131.55,296.44Zm1.68-6.66v-.18l2.28-2.4H137l2.33,2.4v.18h-1.53l-1.5-1.48h-.08l-1.49,1.48Zm.23,5.58h5.34l0-.3a2.84,2.84,0,0,0-.65-2,2.41,2.41,0,0,0-1.85-.69,2.49,2.49,0,0,0-1.89.8A4,4,0,0,0,133.46,295.36Z"/><path class="cls-2" d="M142.87,301.38v-10h1.19l.28.78a6.58,6.58,0,0,1,1.63-.74,6,6,0,0,1,1.81-.28,3.79,3.79,0,0,1,2.6.78,2.91,2.91,0,0,1,.88,2.3v7.16h-1.82v-6.92a1.86,1.86,0,0,0-.53-1.47,2.4,2.4,0,0,0-1.67-.49,5.4,5.4,0,0,0-2.55.7v8.18Z"/><path class="cls-2" d="M154.32,288.9a1.33,1.33,0,0,1,0-1.8,1.41,1.41,0,0,1,1.84,0,1.33,1.33,0,0,1,0,1.8,1.41,1.41,0,0,1-1.84,0Zm0,12.48v-10h1.82v10Z"/><path class="cls-2" d="M160.06,300.3a5.08,5.08,0,0,1-1.33-3.76,5.35,5.35,0,0,1,1.45-3.92,5.09,5.09,0,0,1,3.81-1.48,10.07,10.07,0,0,1,2.82.41l-.3,1.25a7.18,7.18,0,0,0-2.28-.34,3.38,3.38,0,0,0-2.63,1.1,4.13,4.13,0,0,0-1,2.9,3.84,3.84,0,0,0,1,2.81,3.6,3.6,0,0,0,2.72,1,8.85,8.85,0,0,0,2.36-.38l.28,1.16a8.72,8.72,0,0,1-3.1.58A5.07,5.07,0,0,1,160.06,300.3Z"/><path class="cls-2" d="M168.31,296.48a5.61,5.61,0,0,1,1.29-4,4.71,4.71,0,0,1,3.65-1.39,4.5,4.5,0,0,1,3.47,1.33,6.6,6.6,0,0,1-.06,7.76,5.31,5.31,0,0,1-7.1.06A5.38,5.38,0,0,1,168.31,296.48Zm1.86-.08a4.68,4.68,0,0,0,.77,2.88,2.51,2.51,0,0,0,2.15,1,2.63,2.63,0,0,0,2.22-1,4.68,4.68,0,0,0,.77-2.88,5,5,0,0,0-.73-2.93,2.45,2.45,0,0,0-2.1-1,2.75,2.75,0,0,0-2.28,1A4.67,4.67,0,0,0,170.17,296.4Z"/><path class="cls-2" d="M178.87,304.62a6.71,6.71,0,0,0,.69-1.36,4.45,4.45,0,0,0,.24-1.5,4.65,4.65,0,0,0-.33-1.72l1.66-.42a4.45,4.45,0,0,1,.33,1.78,5.75,5.75,0,0,1-1.61,3.76Z"/><path class="cls-2" d="M188.41,306.38v-15h1.19l.3.8a4.83,4.83,0,0,1,3-1,4.25,4.25,0,0,1,3.34,1.31,5.43,5.43,0,0,1,1.18,3.77,5.83,5.83,0,0,1-1.26,3.95,4.33,4.33,0,0,1-3.44,1.45,5.16,5.16,0,0,1-2.52-.6v5.36Zm1.81-6.78a4.17,4.17,0,0,0,2.33.7,2.68,2.68,0,0,0,2.24-1.1,4.67,4.67,0,0,0,.83-2.92,4.47,4.47,0,0,0-.78-2.82,2.68,2.68,0,0,0-2.23-1,3.4,3.4,0,0,0-1.22.21,5,5,0,0,0-1.17.63Z"/><path class="cls-2" d="M199.2,298.75a2.81,2.81,0,0,1,1-2.33,4.56,4.56,0,0,1,2.91-.82h2.16v-.93a2,2,0,0,0-.58-1.58,2.7,2.7,0,0,0-1.83-.51,12.66,12.66,0,0,0-3.29.52l-.24-1.27a14.51,14.51,0,0,1,4-.69q3.79,0,3.79,3.3v6.94h-1.2l-.27-.69a5.47,5.47,0,0,1-3.08.93,3.64,3.64,0,0,1-2.45-.79A2.62,2.62,0,0,1,199.2,298.75Zm1.78-.14a1.66,1.66,0,0,0,.55,1.3,2.19,2.19,0,0,0,1.5.49,4.61,4.61,0,0,0,2.27-.63v-3.15h-1.93a2.71,2.71,0,0,0-1.77.52A1.8,1.8,0,0,0,201,298.61Z"/><path class="cls-2" d="M209.94,306.38v-15h1.19l.3.8a4.85,4.85,0,0,1,3-1,4.25,4.25,0,0,1,3.34,1.31,5.43,5.43,0,0,1,1.18,3.77,5.83,5.83,0,0,1-1.26,3.95,4.31,4.31,0,0,1-3.43,1.45,5.11,5.11,0,0,1-2.52-.6v5.36Zm1.82-6.78a4.11,4.11,0,0,0,2.32.7,2.66,2.66,0,0,0,2.24-1.1,4.67,4.67,0,0,0,.84-2.92,4.47,4.47,0,0,0-.78-2.82,2.69,2.69,0,0,0-2.24-1,3.43,3.43,0,0,0-1.22.21,5,5,0,0,0-1.16.63Z"/><path class="cls-2" d="M220.75,296.44a5.49,5.49,0,0,1,1.33-3.84,4.47,4.47,0,0,1,3.49-1.46,4.17,4.17,0,0,1,3,1.06,4,4,0,0,1,1.1,3,4.7,4.7,0,0,1-.19,1.3h-7a4,4,0,0,0,1,2.79,3.58,3.58,0,0,0,2.69,1,7.35,7.35,0,0,0,3.14-.81l.34,1.07a7.9,7.9,0,0,1-3.94,1.06,4.93,4.93,0,0,1-3.72-1.37A5.26,5.26,0,0,1,220.75,296.44Zm1.91-1.08H228l0-.3a2.84,2.84,0,0,0-.65-2,2.41,2.41,0,0,0-1.85-.69,2.51,2.51,0,0,0-1.9.8A4,4,0,0,0,222.66,295.36Zm1.85-6.34,3.54-3.46,1.11,1.06-3.83,3.12Z"/><path class="cls-2" d="M232.23,288.9a1.33,1.33,0,0,1,0-1.8,1.41,1.41,0,0,1,1.84,0,1.33,1.33,0,0,1,0,1.8,1.41,1.41,0,0,1-1.84,0Zm0,12.48v-10h1.82v10Z"/><path class="cls-2" d="M236.74,300.85l.38-1.21a9,9,0,0,0,3.24.66,2.91,2.91,0,0,0,1.71-.43,1.4,1.4,0,0,0,.59-1.24,1,1,0,0,0-.32-.78,2.15,2.15,0,0,0-.83-.47c-.34-.11-.71-.22-1.12-.32l-1.22-.32a5.13,5.13,0,0,1-1.12-.44,2.22,2.22,0,0,1-.83-.81,2.39,2.39,0,0,1-.32-1.25A2.77,2.77,0,0,1,238,292a4.27,4.27,0,0,1,2.77-.86,10.22,10.22,0,0,1,3.38.6l-.44,1.18a9,9,0,0,0-2.86-.53,2.39,2.39,0,0,0-1.52.46,1.41,1.41,0,0,0-.58,1.18,1.11,1.11,0,0,0,.25.74,1.57,1.57,0,0,0,.65.46,7.15,7.15,0,0,0,.91.27l1.05.23a6.4,6.4,0,0,1,1,.33,4.58,4.58,0,0,1,.91.47,2,2,0,0,1,.64.77,2.73,2.73,0,0,1,.24,1.18,2.8,2.8,0,0,1-1,2.31,4.6,4.6,0,0,1-2.93.83A9.13,9.13,0,0,1,236.74,300.85Z"/><path class="cls-2" d="M250.81,296.44a5.49,5.49,0,0,1,1.33-3.84,4.47,4.47,0,0,1,3.49-1.46,4.17,4.17,0,0,1,3,1.06,4,4,0,0,1,1.09,3,4.69,4.69,0,0,1-.18,1.3h-6.95a4,4,0,0,0,1,2.79,3.56,3.56,0,0,0,2.69,1,7.35,7.35,0,0,0,3.14-.81l.34,1.07a7.9,7.9,0,0,1-3.94,1.06,4.93,4.93,0,0,1-3.72-1.37A5.22,5.22,0,0,1,250.81,296.44Zm1.9-1.08h5.35l0-.3a2.84,2.84,0,0,0-.64-2,2.43,2.43,0,0,0-1.85-.69,2.51,2.51,0,0,0-1.9.8A4,4,0,0,0,252.71,295.36Z"/><path class="cls-2" d="M262.13,301.38v-10h1.19l.28.78a6.58,6.58,0,0,1,1.63-.74,6,6,0,0,1,1.81-.28,3.79,3.79,0,0,1,2.6.78,2.94,2.94,0,0,1,.88,2.3v7.16H268.7v-6.92a1.9,1.9,0,0,0-.53-1.47,2.4,2.4,0,0,0-1.67-.49,5.43,5.43,0,0,0-2.56.7v8.18Z"/><path class="cls-2" d="M272.58,303.56a2.39,2.39,0,0,1,.55-1.57,3.1,3.1,0,0,1,1.38-.95,1.9,1.9,0,0,1-.54-1.4,1.92,1.92,0,0,1,.29-1,2,2,0,0,1,.8-.74,3.38,3.38,0,0,1-1.55-1.24,3.5,3.5,0,0,1-.53-1.94,3.26,3.26,0,0,1,1.18-2.64,4.82,4.82,0,0,1,3.18-1,5.73,5.73,0,0,1,2.49.49l3.26-.19v1.26l-2,.11a4,4,0,0,1,.42,1.87,3.26,3.26,0,0,1-1.16,2.65,4.88,4.88,0,0,1-3.21,1,6.68,6.68,0,0,1-1.05-.07,1.3,1.3,0,0,0-.65,1.1c0,.59.42.88,1.26.88h2.07a4.23,4.23,0,0,1,2.65.74,2.38,2.38,0,0,1,1,2,3.17,3.17,0,0,1-1.39,2.74,6.56,6.56,0,0,1-3.82,1,6.1,6.1,0,0,1-3.41-.81A2.58,2.58,0,0,1,272.58,303.56Zm1.66-.18a1.72,1.72,0,0,0,.77,1.48,3.81,3.81,0,0,0,2.19.54,4.58,4.58,0,0,0,2.47-.59,1.79,1.79,0,0,0,.92-1.58,1.21,1.21,0,0,0-.55-1.07,2.72,2.72,0,0,0-1.56-.38H276.8a3.89,3.89,0,0,1-1.34-.21,2.16,2.16,0,0,0-.9.75A1.77,1.77,0,0,0,274.24,303.38Zm.55-8.72a2.42,2.42,0,0,0,.63,1.78,2.33,2.33,0,0,0,1.74.64,2.54,2.54,0,0,0,1.83-.64,2.34,2.34,0,0,0,.68-1.78,2.45,2.45,0,0,0-.61-1.81,2.25,2.25,0,0,0-1.72-.62,2.62,2.62,0,0,0-1.87.64A2.35,2.35,0,0,0,274.79,294.66Z"/><path class="cls-2" d="M284.11,296.48a5.61,5.61,0,0,1,1.29-4,4.71,4.71,0,0,1,3.65-1.39,4.48,4.48,0,0,1,3.47,1.33,6.6,6.6,0,0,1-.06,7.76,5.31,5.31,0,0,1-7.1.06A5.38,5.38,0,0,1,284.11,296.48Zm1.87-.08a4.68,4.68,0,0,0,.76,2.88,2.51,2.51,0,0,0,2.15,1,2.63,2.63,0,0,0,2.22-1,4.68,4.68,0,0,0,.77-2.88,5,5,0,0,0-.73-2.93,2.45,2.45,0,0,0-2.1-1,2.73,2.73,0,0,0-2.27,1A4.61,4.61,0,0,0,286,296.4Z"/><path class="cls-2" d="M296.09,301.38v-10h1.19l.29.76a4.87,4.87,0,0,1,3-1,3,3,0,0,1,1,.16l-.2,1.32a5.86,5.86,0,0,0-.94-.08,4.91,4.91,0,0,0-2.56.69v8.15Z"/><path class="cls-2" d="M302.38,296.52a5.63,5.63,0,0,1,1.32-3.91,4.47,4.47,0,0,1,3.5-1.47,5.82,5.82,0,0,1,2.54.56v-5.32h1.81v15h-1.19l-.26-.76a4.71,4.71,0,0,1-3,1,4.47,4.47,0,0,1-3.47-1.34A5.31,5.31,0,0,1,302.38,296.52Zm1.87,0a4.31,4.31,0,0,0,.83,2.8,2.84,2.84,0,0,0,2.32,1,4,4,0,0,0,2.34-.78v-6.4a4.62,4.62,0,0,0-2.31-.66,2.81,2.81,0,0,0-2.31,1.1A4.57,4.57,0,0,0,304.25,296.48Z"/><path class="cls-2" d="M314.39,298.44v-7.06h1.82v6.8a2,2,0,0,0,.58,1.54,2.49,2.49,0,0,0,1.75.54,5,5,0,0,0,2.4-.68v-8.2h1.81v10h-1.17l-.31-.8a5.52,5.52,0,0,1-3.29,1,3.85,3.85,0,0,1-2.67-.83A3,3,0,0,1,314.39,298.44Z"/><path class="cls-2" d="M325.77,301.38v-10H327l.28.76a4.92,4.92,0,0,1,3-1,3,3,0,0,1,1,.16l-.21,1.32a5.74,5.74,0,0,0-.93-.08,4.89,4.89,0,0,0-2.56.69v8.15Z"/><path class="cls-2" d="M332.38,298.75a2.82,2.82,0,0,1,1-2.33,4.56,4.56,0,0,1,2.91-.82h2.16v-.93a2,2,0,0,0-.58-1.58,2.74,2.74,0,0,0-1.83-.51,12.66,12.66,0,0,0-3.3.52l-.23-1.27a14.44,14.44,0,0,1,4-.69q3.78,0,3.78,3.3v6.94h-1.19l-.28-.69a5.44,5.44,0,0,1-3.08.93,3.62,3.62,0,0,1-2.44-.79A2.6,2.6,0,0,1,332.38,298.75Zm1.78-.14a1.67,1.67,0,0,0,.56,1.3,2.16,2.16,0,0,0,1.49.49,4.65,4.65,0,0,0,2.28-.63v-3.15h-1.93a2.76,2.76,0,0,0-1.78.52A1.83,1.83,0,0,0,334.16,298.61Z"/><path class="cls-2" d="M342.5,296.52a5.63,5.63,0,0,1,1.32-3.91,4.47,4.47,0,0,1,3.5-1.47,5.77,5.77,0,0,1,2.53.56v-5.32h1.82v15h-1.2l-.25-.76a4.73,4.73,0,0,1-3,1,4.46,4.46,0,0,1-3.47-1.34A5.31,5.31,0,0,1,342.5,296.52Zm1.86,0a4.25,4.25,0,0,0,.84,2.8,2.82,2.82,0,0,0,2.31,1,4,4,0,0,0,2.34-.78v-6.4a4.56,4.56,0,0,0-2.3-.66,2.81,2.81,0,0,0-2.31,1.1A4.58,4.58,0,0,0,344.36,296.48Z"/><path class="cls-2" d="M354.05,296.48a5.61,5.61,0,0,1,1.29-4,4.71,4.71,0,0,1,3.65-1.39,4.48,4.48,0,0,1,3.47,1.33,6.6,6.6,0,0,1-.06,7.76,5.31,5.31,0,0,1-7.1.06A5.38,5.38,0,0,1,354.05,296.48Zm1.87-.08a4.68,4.68,0,0,0,.76,2.88,2.51,2.51,0,0,0,2.15,1,2.63,2.63,0,0,0,2.22-1,4.61,4.61,0,0,0,.78-2.88,5,5,0,0,0-.74-2.93,2.45,2.45,0,0,0-2.1-1,2.73,2.73,0,0,0-2.27,1A4.61,4.61,0,0,0,355.92,296.4Z"/><path class="cls-2" d="M365.51,300.85l.38-1.21a9,9,0,0,0,3.24.66,2.91,2.91,0,0,0,1.71-.43,1.4,1.4,0,0,0,.59-1.24,1,1,0,0,0-.32-.78,2.15,2.15,0,0,0-.83-.47c-.34-.11-.71-.22-1.12-.32l-1.22-.32a5.13,5.13,0,0,1-1.12-.44,2.22,2.22,0,0,1-.83-.81,2.39,2.39,0,0,1-.32-1.25,2.77,2.77,0,0,1,1.07-2.24,4.25,4.25,0,0,1,2.77-.86,10.22,10.22,0,0,1,3.38.6l-.44,1.18a9.08,9.08,0,0,0-2.86-.53,2.39,2.39,0,0,0-1.52.46,1.41,1.41,0,0,0-.58,1.18,1.11,1.11,0,0,0,.25.74,1.6,1.6,0,0,0,.64.46,7.87,7.87,0,0,0,.92.27l1.05.23a6.4,6.4,0,0,1,1,.33,4.58,4.58,0,0,1,.91.47,2,2,0,0,1,.64.77,2.73,2.73,0,0,1,.24,1.18,2.8,2.8,0,0,1-1.05,2.31,4.6,4.6,0,0,1-2.93.83A9.13,9.13,0,0,1,365.51,300.85Z"/><path class="cls-2" d="M63.11,326.44a5.49,5.49,0,0,1,1.33-3.84,4.47,4.47,0,0,1,3.49-1.46,4.17,4.17,0,0,1,3,1.06,4,4,0,0,1,1.1,3,4.7,4.7,0,0,1-.19,1.3H64.93a4,4,0,0,0,1,2.79,3.56,3.56,0,0,0,2.69,1,7.35,7.35,0,0,0,3.14-.81l.34,1.07a7.9,7.9,0,0,1-3.94,1.06,4.93,4.93,0,0,1-3.72-1.37A5.22,5.22,0,0,1,63.11,326.44Zm1.9-1.08h5.35l0-.3a2.84,2.84,0,0,0-.65-2,2.43,2.43,0,0,0-1.85-.69,2.51,2.51,0,0,0-1.9.8A4,4,0,0,0,65,325.36Z"/><path class="cls-2" d="M78.52,330.85l.38-1.21a9,9,0,0,0,3.24.66,3,3,0,0,0,1.72-.43,1.43,1.43,0,0,0,.59-1.24,1,1,0,0,0-.32-.78,2.31,2.31,0,0,0-.83-.47c-.34-.11-.72-.22-1.12-.32L81,326.74a5.33,5.33,0,0,1-1.12-.44,2.22,2.22,0,0,1-.83-.81,2.39,2.39,0,0,1-.31-1.25A2.74,2.74,0,0,1,79.76,322a4.22,4.22,0,0,1,2.76-.86,10.18,10.18,0,0,1,3.38.6l-.44,1.18a9,9,0,0,0-2.86-.53,2.39,2.39,0,0,0-1.52.46A1.44,1.44,0,0,0,80.5,324a1.11,1.11,0,0,0,.25.74,1.57,1.57,0,0,0,.65.46,7.33,7.33,0,0,0,.92.27l1.05.23a6.6,6.6,0,0,1,1,.33,4.58,4.58,0,0,1,.91.47,2,2,0,0,1,.64.77,2.73,2.73,0,0,1,.25,1.18,2.8,2.8,0,0,1-1.06,2.31,4.58,4.58,0,0,1-2.93.83A9.16,9.16,0,0,1,78.52,330.85Z"/><path class="cls-2" d="M88.43,328.44v-7.06h1.82v6.8a2,2,0,0,0,.58,1.54,2.48,2.48,0,0,0,1.75.54,5,5,0,0,0,2.4-.68v-8.2h1.81v10H95.62l-.31-.8a5.52,5.52,0,0,1-3.29,1,3.83,3.83,0,0,1-2.67-.83A3,3,0,0,1,88.43,328.44Z"/><path class="cls-2" d="M97.23,335.16H98a2.21,2.21,0,0,0,1.63-.5,2.43,2.43,0,0,0,.46-1.68v-11.6h1.82V333a3.34,3.34,0,0,1-.88,2.58,3.9,3.9,0,0,1-2.74.82h-1Zm2.83-16.26a1.33,1.33,0,0,1,0-1.8,1.25,1.25,0,0,1,.93-.34,1.24,1.24,0,1,1,0,2.48A1.25,1.25,0,0,1,100.06,318.9Z"/><path class="cls-2" d="M104.45,326.48a5.61,5.61,0,0,1,1.29-4,4.69,4.69,0,0,1,3.64-1.39,4.51,4.51,0,0,1,3.48,1.33,6.6,6.6,0,0,1-.06,7.76,5.31,5.31,0,0,1-7.1.06A5.34,5.34,0,0,1,104.45,326.48Zm1.86-.08a4.75,4.75,0,0,0,.76,2.88,2.54,2.54,0,0,0,2.16,1,2.63,2.63,0,0,0,2.22-1,4.68,4.68,0,0,0,.77-2.88,5,5,0,0,0-.73-2.93,2.48,2.48,0,0,0-2.11-1,2.75,2.75,0,0,0-2.27,1A4.67,4.67,0,0,0,106.31,326.4Z"/><path class="cls-2" d="M115.9,330.85l.38-1.21a9,9,0,0,0,3.25.66,2.91,2.91,0,0,0,1.71-.43,1.43,1.43,0,0,0,.59-1.24,1,1,0,0,0-.32-.78,2.23,2.23,0,0,0-.83-.47c-.34-.11-.71-.22-1.12-.32l-1.23-.32a5.33,5.33,0,0,1-1.12-.44,2.2,2.2,0,0,1-.82-.81,2.39,2.39,0,0,1-.32-1.25,2.77,2.77,0,0,1,1.07-2.24,4.23,4.23,0,0,1,2.77-.86,10.27,10.27,0,0,1,3.38.6l-.44,1.18a9.13,9.13,0,0,0-2.86-.53,2.42,2.42,0,0,0-1.53.46,1.43,1.43,0,0,0-.57,1.18,1.15,1.15,0,0,0,.24.74,1.63,1.63,0,0,0,.65.46,7.87,7.87,0,0,0,.92.27l1,.23a6.29,6.29,0,0,1,1,.33,4.32,4.32,0,0,1,.91.47,2.06,2.06,0,0,1,.65.77,2.73,2.73,0,0,1,.24,1.18,2.78,2.78,0,0,1-1.06,2.31,4.58,4.58,0,0,1-2.93.83A9.16,9.16,0,0,1,115.9,330.85Z"/><path class="cls-2" d="M132.3,330.3a5.11,5.11,0,0,1-1.32-3.76,5.35,5.35,0,0,1,1.45-3.92,5.06,5.06,0,0,1,3.81-1.48,10,10,0,0,1,2.81.41l-.29,1.25a7.2,7.2,0,0,0-2.29-.34,3.41,3.41,0,0,0-2.63,1.1,4.12,4.12,0,0,0-1,2.9,3.84,3.84,0,0,0,1,2.81,3.6,3.6,0,0,0,2.71,1,8.92,8.92,0,0,0,2.37-.38l.28,1.16a8.77,8.77,0,0,1-3.11.58A5.1,5.1,0,0,1,132.3,330.3Z"/><path class="cls-2" d="M140.56,326.44a5.53,5.53,0,0,1,1.32-3.84,4.48,4.48,0,0,1,3.49-1.46,4.18,4.18,0,0,1,3,1.06,4,4,0,0,1,1.09,3,4.69,4.69,0,0,1-.18,1.3h-7a4,4,0,0,0,1,2.79,3.55,3.55,0,0,0,2.69,1,7.35,7.35,0,0,0,3.14-.81l.34,1.07a7.93,7.93,0,0,1-3.94,1.06,4.93,4.93,0,0,1-3.72-1.37A5.22,5.22,0,0,1,140.56,326.44Zm1.9-1.08h5.34l0-.3a2.8,2.8,0,0,0-.65-2,2.41,2.41,0,0,0-1.84-.69,2.49,2.49,0,0,0-1.9.8A4,4,0,0,0,142.46,325.36Z"/><path class="cls-2" d="M152,329.16V316.38h1.82V328.9a1.41,1.41,0,0,0,.34,1.08,1.43,1.43,0,0,0,1,.32,2.29,2.29,0,0,0,.86-.18l.14,1.1a4.35,4.35,0,0,1-1.8.4,2.38,2.38,0,0,1-1.76-.61A2.49,2.49,0,0,1,152,329.16Z"/><path class="cls-2" d="M157.26,326.48a5.61,5.61,0,0,1,1.29-4,4.73,4.73,0,0,1,3.65-1.39,4.48,4.48,0,0,1,3.47,1.33,6.63,6.63,0,0,1,0,7.76,5.33,5.33,0,0,1-7.11.06A5.38,5.38,0,0,1,157.26,326.48Zm1.87-.08a4.68,4.68,0,0,0,.76,2.88,2.54,2.54,0,0,0,2.15,1,2.6,2.6,0,0,0,2.22-1,4.61,4.61,0,0,0,.78-2.88,5,5,0,0,0-.74-2.93,2.45,2.45,0,0,0-2.1-1,2.73,2.73,0,0,0-2.27,1A4.67,4.67,0,0,0,159.13,326.4Z"/><path class="cls-2" d="M168.43,322.46v-1.08H170v-1.92a3.39,3.39,0,0,1,.83-2.44,3.06,3.06,0,0,1,2.33-.87,7.4,7.4,0,0,1,2.24.34l-.2,1.23a4.82,4.82,0,0,0-1.48-.24c-1.24,0-1.85.74-1.85,2.2v1.7h2.38v1.22h-2.38v8.78H170V322.6Z"/><path class="cls-2" d="M175.34,328.75a2.82,2.82,0,0,1,1-2.33,4.56,4.56,0,0,1,2.91-.82h2.15v-.93a2,2,0,0,0-.57-1.58,2.74,2.74,0,0,0-1.83-.51,12.66,12.66,0,0,0-3.3.52l-.23-1.27a14.44,14.44,0,0,1,4-.69q3.78,0,3.78,3.3v6.94h-1.19l-.28-.69a5.44,5.44,0,0,1-3.08.93,3.6,3.6,0,0,1-2.44-.79A2.6,2.6,0,0,1,175.34,328.75Zm1.78-.14a1.64,1.64,0,0,0,.56,1.3,2.16,2.16,0,0,0,1.49.49,4.58,4.58,0,0,0,2.27-.63v-3.15h-1.92a2.74,2.74,0,0,0-1.78.52A1.83,1.83,0,0,0,177.12,328.61Z"/><path class="cls-2" d="M186.08,331.38v-10h1.19l.29.78a6.34,6.34,0,0,1,1.62-.74,6.09,6.09,0,0,1,1.81-.28,3.84,3.84,0,0,1,2.61.78,2.93,2.93,0,0,1,.87,2.3v7.16h-1.81v-6.92a1.87,1.87,0,0,0-.54-1.47,2.37,2.37,0,0,0-1.66-.49,5.4,5.4,0,0,0-2.56.7v8.18Z"/><path class="cls-2" d="M196.67,326.44A5.49,5.49,0,0,1,198,322.6a4.45,4.45,0,0,1,3.49-1.46,4.17,4.17,0,0,1,3,1.06,4,4,0,0,1,1.09,3,4.69,4.69,0,0,1-.18,1.3h-6.95a4,4,0,0,0,1,2.79,3.56,3.56,0,0,0,2.69,1,7.35,7.35,0,0,0,3.14-.81l.34,1.07a7.9,7.9,0,0,1-3.94,1.06,4.93,4.93,0,0,1-3.72-1.37A5.22,5.22,0,0,1,196.67,326.44Zm1.9-1.08h5.34l0-.3a2.84,2.84,0,0,0-.64-2,2.43,2.43,0,0,0-1.85-.69,2.51,2.51,0,0,0-1.9.8A4,4,0,0,0,198.57,325.36Z"/><path class="cls-2" d="M206.56,334.62a6.29,6.29,0,0,0,.7-1.36,4.45,4.45,0,0,0,.24-1.5,4.65,4.65,0,0,0-.33-1.72l1.66-.42a4.45,4.45,0,0,1,.33,1.78,5.8,5.8,0,0,1-1.61,3.76Z"/><path class="cls-2" d="M216.81,330.3a5.08,5.08,0,0,1-1.33-3.76,5.35,5.35,0,0,1,1.45-3.92,5.08,5.08,0,0,1,3.81-1.48,10,10,0,0,1,2.81.41l-.29,1.25a7.18,7.18,0,0,0-2.28-.34,3.42,3.42,0,0,0-2.64,1.1,4.17,4.17,0,0,0-1,2.9,3.84,3.84,0,0,0,1,2.81,3.6,3.6,0,0,0,2.71,1,8.92,8.92,0,0,0,2.37-.38l.28,1.16a8.72,8.72,0,0,1-3.1.58A5.07,5.07,0,0,1,216.81,330.3Z"/><path class="cls-2" d="M225.19,328.75a2.82,2.82,0,0,1,1-2.33,4.56,4.56,0,0,1,2.91-.82h2.16v-.93a2,2,0,0,0-.58-1.58,2.72,2.72,0,0,0-1.83-.51,12.79,12.79,0,0,0-3.3.52l-.23-1.27a14.44,14.44,0,0,1,4-.69q3.78,0,3.78,3.3v6.94h-1.19l-.28-.69a5.43,5.43,0,0,1-3.07.93,3.63,3.63,0,0,1-2.45-.79A2.6,2.6,0,0,1,225.19,328.75Zm1.78-.14a1.67,1.67,0,0,0,.56,1.3,2.17,2.17,0,0,0,1.5.49,4.61,4.61,0,0,0,2.27-.63v-3.15h-1.93a2.76,2.76,0,0,0-1.78.52A1.83,1.83,0,0,0,227,328.61Z"/><path class="cls-2" d="M235.94,331.38v-10h1.19l.28.76a4.9,4.9,0,0,1,3-1,3,3,0,0,1,1,.16l-.2,1.32a5.86,5.86,0,0,0-.94-.08,4.94,4.94,0,0,0-2.56.69v8.15Z"/><path class="cls-2" d="M243.27,331.38v-15h1.82v5.35a6.39,6.39,0,0,1,2.66-.57,4.23,4.23,0,0,1,3.35,1.35,5.54,5.54,0,0,1,1.18,3.78A5.76,5.76,0,0,1,251,330.2a4.89,4.89,0,0,1-6.33.48l-.31.7Zm1.82-2a3.9,3.9,0,0,0,2.26.83,2.79,2.79,0,0,0,2.31-1,4.6,4.6,0,0,0,.81-2.94,4.39,4.39,0,0,0-.8-2.81,2.73,2.73,0,0,0-2.26-1,4.8,4.8,0,0,0-2.32.62Z"/><path class="cls-2" d="M254.06,326.48a5.61,5.61,0,0,1,1.29-4,4.71,4.71,0,0,1,3.65-1.39,4.48,4.48,0,0,1,3.47,1.33,6.6,6.6,0,0,1-.06,7.76,5.31,5.31,0,0,1-7.1.06A5.38,5.38,0,0,1,254.06,326.48Zm1.87-.08a4.68,4.68,0,0,0,.76,2.88,2.51,2.51,0,0,0,2.15,1,2.63,2.63,0,0,0,2.22-1,4.62,4.62,0,0,0,.77-2.88,5,5,0,0,0-.73-2.93,2.45,2.45,0,0,0-2.1-1,2.73,2.73,0,0,0-2.27,1A4.61,4.61,0,0,0,255.93,326.4Z"/><path class="cls-2" d="M266,331.38v-10h1.2l.28.78a6.34,6.34,0,0,1,1.62-.74,6.1,6.1,0,0,1,1.82-.28,3.81,3.81,0,0,1,2.6.78,2.93,2.93,0,0,1,.87,2.3v7.16h-1.81v-6.92a1.87,1.87,0,0,0-.54-1.47,2.37,2.37,0,0,0-1.66-.49,5.4,5.4,0,0,0-2.56.7v8.18Z"/><path class="cls-2" d="M276.63,326.48a5.61,5.61,0,0,1,1.29-4,4.71,4.71,0,0,1,3.65-1.39,4.5,4.5,0,0,1,3.47,1.33,6.6,6.6,0,0,1-.06,7.76,5.31,5.31,0,0,1-7.1.06A5.38,5.38,0,0,1,276.63,326.48Zm1.86-.08a4.68,4.68,0,0,0,.77,2.88,2.51,2.51,0,0,0,2.15,1,2.63,2.63,0,0,0,2.22-1,4.68,4.68,0,0,0,.77-2.88,5,5,0,0,0-.73-2.93,2.45,2.45,0,0,0-2.1-1,2.75,2.75,0,0,0-2.28,1A4.67,4.67,0,0,0,278.49,326.4Z"/><path class="cls-2" d="M287.19,334.62a6.71,6.71,0,0,0,.69-1.36,4.45,4.45,0,0,0,.24-1.5,4.65,4.65,0,0,0-.33-1.72l1.66-.42a4.45,4.45,0,0,1,.33,1.78,5.75,5.75,0,0,1-1.61,3.76Z"/><path class="cls-2" d="M296.73,336.38v-15h1.19l.3.8a4.83,4.83,0,0,1,3-1,4.25,4.25,0,0,1,3.34,1.31,5.43,5.43,0,0,1,1.18,3.77,5.83,5.83,0,0,1-1.26,3.95,4.33,4.33,0,0,1-3.44,1.45,5.16,5.16,0,0,1-2.52-.6v5.36Zm1.81-6.78a4.17,4.17,0,0,0,2.33.7,2.68,2.68,0,0,0,2.24-1.1,4.67,4.67,0,0,0,.83-2.92,4.47,4.47,0,0,0-.78-2.82,2.68,2.68,0,0,0-2.23-1,3.4,3.4,0,0,0-1.22.21,5,5,0,0,0-1.17.63Z"/><path class="cls-2" d="M307.52,328.75a2.81,2.81,0,0,1,1-2.33,4.56,4.56,0,0,1,2.91-.82h2.16v-.93a2,2,0,0,0-.58-1.58,2.7,2.7,0,0,0-1.83-.51,12.66,12.66,0,0,0-3.29.52l-.24-1.27a14.51,14.51,0,0,1,4-.69q3.8,0,3.79,3.3v6.94h-1.2l-.27-.69a5.47,5.47,0,0,1-3.08.93,3.6,3.6,0,0,1-2.44-.79A2.6,2.6,0,0,1,307.52,328.75Zm1.78-.14a1.66,1.66,0,0,0,.55,1.3,2.19,2.19,0,0,0,1.5.49,4.58,4.58,0,0,0,2.27-.63v-3.15h-1.93a2.71,2.71,0,0,0-1.77.52A1.8,1.8,0,0,0,309.3,328.61Z"/><path class="cls-2" d="M318.26,336.38v-15h1.19l.3.8a4.85,4.85,0,0,1,3-1,4.25,4.25,0,0,1,3.34,1.31,5.43,5.43,0,0,1,1.18,3.77,5.83,5.83,0,0,1-1.26,3.95,4.31,4.31,0,0,1-3.43,1.45,5.11,5.11,0,0,1-2.52-.6v5.36Zm1.82-6.78a4.11,4.11,0,0,0,2.32.7,2.66,2.66,0,0,0,2.24-1.1,4.67,4.67,0,0,0,.84-2.92,4.47,4.47,0,0,0-.78-2.82,2.69,2.69,0,0,0-2.24-1,3.43,3.43,0,0,0-1.22.21,5,5,0,0,0-1.16.63Z"/><path class="cls-2" d="M329.07,326.44a5.49,5.49,0,0,1,1.33-3.84,4.47,4.47,0,0,1,3.49-1.46,4.17,4.17,0,0,1,3,1.06,4,4,0,0,1,1.1,3,4.7,4.7,0,0,1-.19,1.3h-6.95a4,4,0,0,0,1,2.79,3.58,3.58,0,0,0,2.69,1,7.35,7.35,0,0,0,3.14-.81l.35,1.07a8,8,0,0,1-3.95,1.06,4.93,4.93,0,0,1-3.72-1.37A5.26,5.26,0,0,1,329.07,326.44Zm1.91-1.08h5.34l0-.3a2.84,2.84,0,0,0-.65-2,2.41,2.41,0,0,0-1.85-.69,2.51,2.51,0,0,0-1.9.8A4,4,0,0,0,331,325.36Z"/><path class="cls-2" d="M340.55,318.9a1.33,1.33,0,0,1,0-1.8,1.41,1.41,0,0,1,1.84,0,1.33,1.33,0,0,1,0,1.8,1.41,1.41,0,0,1-1.84,0Zm0,12.48v-10h1.81v10Z"/><path class="cls-2" d="M345.06,330.85l.38-1.21a9,9,0,0,0,3.24.66,2.91,2.91,0,0,0,1.71-.43,1.41,1.41,0,0,0,.6-1.24,1,1,0,0,0-.33-.78,2.15,2.15,0,0,0-.83-.47c-.34-.11-.71-.22-1.12-.32l-1.22-.32a5.13,5.13,0,0,1-1.12-.44,2.22,2.22,0,0,1-.83-.81,2.39,2.39,0,0,1-.32-1.25,2.77,2.77,0,0,1,1.07-2.24,4.27,4.27,0,0,1,2.77-.86,10.22,10.22,0,0,1,3.38.6l-.44,1.18a9,9,0,0,0-2.86-.53,2.39,2.39,0,0,0-1.52.46A1.41,1.41,0,0,0,347,324a1.11,1.11,0,0,0,.25.74,1.57,1.57,0,0,0,.65.46,7.15,7.15,0,0,0,.91.27l1,.23a6.4,6.4,0,0,1,1.05.33,4.58,4.58,0,0,1,.91.47,2,2,0,0,1,.64.77,2.73,2.73,0,0,1,.24,1.18,2.8,2.8,0,0,1-1.05,2.31,4.58,4.58,0,0,1-2.93.83A9.13,9.13,0,0,1,345.06,330.85Z"/><path class="cls-2" d="M42.52,361.38v-10h1.19l.31.8a5.81,5.81,0,0,1,3.24-1,3.45,3.45,0,0,1,2.91,1.1,6,6,0,0,1,3.52-1.1,3.72,3.72,0,0,1,2.57.81,3,3,0,0,1,.9,2.35v7.08H55.35v-6.91a1.84,1.84,0,0,0-.57-1.47,2.37,2.37,0,0,0-1.61-.5,5,5,0,0,0-2.53.7,4.46,4.46,0,0,1,.12,1.08v7.1H48.94v-6.92a1.9,1.9,0,0,0-.53-1.47,2.38,2.38,0,0,0-1.65-.49,4.68,4.68,0,0,0-2.42.7v8.18Z"/><path class="cls-2" d="M59.37,356.44a5.49,5.49,0,0,1,1.33-3.84,4.45,4.45,0,0,1,3.49-1.46,4.17,4.17,0,0,1,3,1.06,4,4,0,0,1,1.09,3,4.69,4.69,0,0,1-.18,1.3h-7a4,4,0,0,0,1,2.79,3.56,3.56,0,0,0,2.69,1,7.35,7.35,0,0,0,3.14-.81l.34,1.07a7.9,7.9,0,0,1-3.94,1.06,4.93,4.93,0,0,1-3.72-1.37A5.22,5.22,0,0,1,59.37,356.44Zm1.9-1.08h5.35l0-.3a2.84,2.84,0,0,0-.64-2,2.43,2.43,0,0,0-1.85-.69,2.49,2.49,0,0,0-1.9.8A4,4,0,0,0,61.27,355.36Z"/><path class="cls-2" d="M69.41,352.46v-1.08h1.68l.42-3H72.9v3h3v1.22h-3v5.9a1.61,1.61,0,0,0,1.79,1.8,3.32,3.32,0,0,0,1.48-.32l.15,1.12a5.32,5.32,0,0,1-2.35.52,2.58,2.58,0,0,1-2.88-2.86l0-6.16Z"/><path class="cls-2" d="M77.54,358.75a2.82,2.82,0,0,1,1-2.33,4.56,4.56,0,0,1,2.91-.82h2.16v-.93a2,2,0,0,0-.58-1.58,2.74,2.74,0,0,0-1.83-.51,12.73,12.73,0,0,0-3.3.52l-.23-1.27a14.44,14.44,0,0,1,4-.69q3.78,0,3.78,3.3v6.94H84.27l-.28-.69a5.43,5.43,0,0,1-3.07.93,3.63,3.63,0,0,1-2.45-.79A2.6,2.6,0,0,1,77.54,358.75Zm1.78-.14a1.67,1.67,0,0,0,.56,1.3,2.16,2.16,0,0,0,1.49.49,4.62,4.62,0,0,0,2.28-.63v-3.15H81.72a2.76,2.76,0,0,0-1.78.52A1.83,1.83,0,0,0,79.32,358.61Z"/><path class="cls-2" d="M88.28,359.16V346.38H90.1V358.9a1.41,1.41,0,0,0,.34,1.08,1.43,1.43,0,0,0,1,.32,2.25,2.25,0,0,0,.86-.18l.14,1.1a4.34,4.34,0,0,1-1.79.4A2.39,2.39,0,0,1,88.9,361,2.49,2.49,0,0,1,88.28,359.16Z"/><path class="cls-2" d="M94.31,348.9a1.33,1.33,0,0,1,0-1.8,1.41,1.41,0,0,1,1.84,0,1.33,1.33,0,0,1,0,1.8,1.41,1.41,0,0,1-1.84,0Zm0,12.48v-10h1.82v10Z"/><path class="cls-2" d="M98.64,361.38v-1.19l6.08-7.44H98.64v-1.37H107v1.15L100.9,360h6.17v1.37Z"/><path class="cls-2" d="M109,358.75a2.81,2.81,0,0,1,1-2.33,4.56,4.56,0,0,1,2.91-.82h2.16v-.93a2,2,0,0,0-.58-1.58,2.7,2.7,0,0,0-1.83-.51,12.66,12.66,0,0,0-3.29.52l-.24-1.27a14.57,14.57,0,0,1,4-.69q3.78,0,3.78,3.3v6.94h-1.2l-.27-.69a5.47,5.47,0,0,1-3.08.93,3.64,3.64,0,0,1-2.45-.79A2.62,2.62,0,0,1,109,358.75Zm1.78-.14a1.66,1.66,0,0,0,.55,1.3,2.2,2.2,0,0,0,1.5.49,4.61,4.61,0,0,0,2.27-.63v-3.15h-1.93a2.71,2.71,0,0,0-1.77.52A1.8,1.8,0,0,0,110.73,358.61Z"/><path class="cls-2" d="M119.07,356.52a5.67,5.67,0,0,1,1.31-3.91,4.48,4.48,0,0,1,3.5-1.47,5.79,5.79,0,0,1,2.54.56v-5.32h1.82v15H127l-.26-.76a4.7,4.7,0,0,1-3,1,4.46,4.46,0,0,1-3.47-1.34A5.31,5.31,0,0,1,119.07,356.52Zm1.86,0a4.25,4.25,0,0,0,.84,2.8,2.8,2.8,0,0,0,2.31,1,4,4,0,0,0,2.34-.78v-6.4a4.59,4.59,0,0,0-2.3-.66,2.84,2.84,0,0,0-2.32,1.1A4.57,4.57,0,0,0,120.93,356.48Z"/><path class="cls-2" d="M130.62,356.48a5.61,5.61,0,0,1,1.29-4,4.71,4.71,0,0,1,3.65-1.39,4.5,4.5,0,0,1,3.47,1.33,6.6,6.6,0,0,1-.06,7.76,5.31,5.31,0,0,1-7.1.06A5.34,5.34,0,0,1,130.62,356.48Zm1.86-.08a4.75,4.75,0,0,0,.76,2.88,2.54,2.54,0,0,0,2.16,1,2.63,2.63,0,0,0,2.22-1,4.68,4.68,0,0,0,.77-2.88,5,5,0,0,0-.73-2.93,2.46,2.46,0,0,0-2.1-1,2.75,2.75,0,0,0-2.28,1A4.67,4.67,0,0,0,132.48,356.4Z"/><path class="cls-2" d="M142.07,360.85l.38-1.21a9.06,9.06,0,0,0,3.25.66,2.91,2.91,0,0,0,1.71-.43,1.43,1.43,0,0,0,.59-1.24,1,1,0,0,0-.32-.78,2.23,2.23,0,0,0-.83-.47c-.34-.11-.71-.22-1.12-.32l-1.22-.32a5.42,5.42,0,0,1-1.13-.44,2.2,2.2,0,0,1-.82-.81,2.39,2.39,0,0,1-.32-1.25,2.77,2.77,0,0,1,1.07-2.24,4.25,4.25,0,0,1,2.77-.86,10.22,10.22,0,0,1,3.38.6l-.44,1.18a9.08,9.08,0,0,0-2.86-.53,2.44,2.44,0,0,0-1.53.46,1.43,1.43,0,0,0-.57,1.18,1.15,1.15,0,0,0,.24.74,1.63,1.63,0,0,0,.65.46,7.87,7.87,0,0,0,.92.27l1,.23a6.71,6.71,0,0,1,1.05.33,4.23,4.23,0,0,1,.9.47,2.06,2.06,0,0,1,.65.77,2.73,2.73,0,0,1,.24,1.18,2.78,2.78,0,0,1-1.06,2.31,4.55,4.55,0,0,1-2.92.83A9.21,9.21,0,0,1,142.07,360.85Z"/><path class="cls-2" d="M156.15,356.48a5.65,5.65,0,0,1,1.28-4,4.73,4.73,0,0,1,3.65-1.39,4.47,4.47,0,0,1,3.47,1.33,6.63,6.63,0,0,1-.05,7.76,5.31,5.31,0,0,1-7.1.06A5.34,5.34,0,0,1,156.15,356.48Zm1.86-.08a4.75,4.75,0,0,0,.76,2.88,2.54,2.54,0,0,0,2.16,1,2.6,2.6,0,0,0,2.21-1,4.61,4.61,0,0,0,.78-2.88,5,5,0,0,0-.74-2.93,2.45,2.45,0,0,0-2.1-1,2.73,2.73,0,0,0-2.27,1A4.67,4.67,0,0,0,158,356.4Z"/><path class="cls-2" d="M168,358.44v-7.06h1.82v6.8a2,2,0,0,0,.58,1.54,2.49,2.49,0,0,0,1.75.54,5,5,0,0,0,2.4-.68v-8.2h1.81v10h-1.17l-.31-.8a5.52,5.52,0,0,1-3.29,1,3.83,3.83,0,0,1-2.67-.83A3,3,0,0,1,168,358.44Z"/><path class="cls-2" d="M184,366.38v-15h1.19l.3.8a4.85,4.85,0,0,1,3-1,4.25,4.25,0,0,1,3.34,1.31,5.43,5.43,0,0,1,1.18,3.77,5.83,5.83,0,0,1-1.26,3.95,4.33,4.33,0,0,1-3.44,1.45,5.09,5.09,0,0,1-2.51-.6v5.36Zm1.82-6.78a4.11,4.11,0,0,0,2.32.7,2.68,2.68,0,0,0,2.24-1.1,4.67,4.67,0,0,0,.84-2.92,4.4,4.4,0,0,0-.79-2.82,2.68,2.68,0,0,0-2.23-1,3.4,3.4,0,0,0-1.22.21,5,5,0,0,0-1.16.63Z"/><path class="cls-2" d="M195.39,359.16V346.38h1.82V358.9a1.41,1.41,0,0,0,.34,1.08,1.43,1.43,0,0,0,1,.32,2.29,2.29,0,0,0,.86-.18l.14,1.1a4.34,4.34,0,0,1-1.79.4A2.39,2.39,0,0,1,196,361,2.49,2.49,0,0,1,195.39,359.16Z"/><path class="cls-2" d="M200.73,358.75a2.81,2.81,0,0,1,1-2.33,4.56,4.56,0,0,1,2.91-.82h2.16v-.93a2,2,0,0,0-.58-1.58,2.7,2.7,0,0,0-1.83-.51,12.79,12.79,0,0,0-3.3.52l-.23-1.27a14.51,14.51,0,0,1,4-.69c2.52,0,3.79,1.1,3.79,3.3v6.94h-1.2l-.27-.69a5.47,5.47,0,0,1-3.08.93,3.64,3.64,0,0,1-2.45-.79A2.59,2.59,0,0,1,200.73,358.75Zm1.77-.14a1.67,1.67,0,0,0,.56,1.3,2.17,2.17,0,0,0,1.5.49,4.61,4.61,0,0,0,2.27-.63v-3.15H204.9a2.76,2.76,0,0,0-1.78.52A1.83,1.83,0,0,0,202.5,358.61Z"/><path class="cls-2" d="M210.94,360.85l.38-1.21a9,9,0,0,0,3.24.66,3,3,0,0,0,1.72-.43,1.43,1.43,0,0,0,.59-1.24,1,1,0,0,0-.32-.78,2.23,2.23,0,0,0-.83-.47c-.34-.11-.71-.22-1.12-.32l-1.23-.32a5.33,5.33,0,0,1-1.12-.44,2.3,2.3,0,0,1-.83-.81,2.39,2.39,0,0,1-.31-1.25,2.74,2.74,0,0,1,1.07-2.24,4.23,4.23,0,0,1,2.77-.86,10.16,10.16,0,0,1,3.37.6l-.44,1.18a9,9,0,0,0-2.86-.53,2.39,2.39,0,0,0-1.52.46,1.44,1.44,0,0,0-.58,1.18,1.16,1.16,0,0,0,.25.74,1.57,1.57,0,0,0,.65.46,7.33,7.33,0,0,0,.92.27l1,.23a6.6,6.6,0,0,1,1,.33,4.32,4.32,0,0,1,.91.47,2,2,0,0,1,.64.77,2.59,2.59,0,0,1,.25,1.18,2.78,2.78,0,0,1-1.06,2.31,4.58,4.58,0,0,1-2.93.83A9.16,9.16,0,0,1,210.94,360.85Z"/><path class="cls-2" d="M219.74,352.46v-1.08h1.68l.42-3h1.4v3h3v1.22h-3v5.9a1.6,1.6,0,0,0,1.78,1.8,3.32,3.32,0,0,0,1.48-.32l.15,1.12a5.29,5.29,0,0,1-2.35.52,2.58,2.58,0,0,1-2.88-2.86l0-6.16Z"/><path class="cls-2" d="M228.68,348.9a1.33,1.33,0,0,1,0-1.8,1.26,1.26,0,0,1,.92-.34,1.25,1.25,0,0,1,.92.34,1.33,1.33,0,0,1,0,1.8,1.25,1.25,0,0,1-.92.34A1.26,1.26,0,0,1,228.68,348.9Zm0,12.48v-10h1.81v10Z"/><path class="cls-2" d="M232.7,352.46v-1.08h1.53v-1.92a3.39,3.39,0,0,1,.83-2.44,3.08,3.08,0,0,1,2.35-.87,6.62,6.62,0,0,1,2.19.35l-.16,1.22a6.18,6.18,0,0,0-1.49-.24,1.7,1.7,0,0,0-1.4.55,2.54,2.54,0,0,0-.45,1.65v1.7h6.4v10h-1.81V352.6H236.1v8.78h-1.87V352.6Zm7.57-4.8a1.14,1.14,0,0,1,1.25-1.22,1.31,1.31,0,0,1,.93.33,1.18,1.18,0,0,1,.36.89,1.22,1.22,0,0,1-.36.92,1.31,1.31,0,0,1-.93.34,1.25,1.25,0,0,1-.92-.34A1.28,1.28,0,0,1,240.27,347.66Z"/><path class="cls-2" d="M246.29,360.3a5.12,5.12,0,0,1-1.33-3.76,5.39,5.39,0,0,1,1.45-3.92,5.1,5.1,0,0,1,3.82-1.48,10,10,0,0,1,2.81.41l-.29,1.25a7.2,7.2,0,0,0-2.29-.34,3.4,3.4,0,0,0-2.63,1.1,4.12,4.12,0,0,0-1,2.9,3.84,3.84,0,0,0,1,2.81,3.6,3.6,0,0,0,2.71,1,8.92,8.92,0,0,0,2.37-.38l.28,1.16a8.77,8.77,0,0,1-3.11.58A5.1,5.1,0,0,1,246.29,360.3Z"/><path class="cls-2" d="M254.68,358.75a2.82,2.82,0,0,1,1-2.33,4.56,4.56,0,0,1,2.91-.82h2.15v-.93a2,2,0,0,0-.57-1.58,2.74,2.74,0,0,0-1.83-.51,12.66,12.66,0,0,0-3.3.52l-.23-1.27a14.44,14.44,0,0,1,4-.69q3.78,0,3.78,3.3v6.94h-1.19l-.28-.69a5.44,5.44,0,0,1-3.08.93,3.6,3.6,0,0,1-2.44-.79A2.6,2.6,0,0,1,254.68,358.75Zm1.78-.14a1.64,1.64,0,0,0,.56,1.3,2.16,2.16,0,0,0,1.49.49,4.58,4.58,0,0,0,2.27-.63v-3.15h-1.92a2.74,2.74,0,0,0-1.78.52A1.83,1.83,0,0,0,256.46,358.61Z"/><path class="cls-2" d="M264.8,356.52a5.63,5.63,0,0,1,1.32-3.91,4.45,4.45,0,0,1,3.5-1.47,5.77,5.77,0,0,1,2.53.56v-5.32H274v15h-1.2l-.25-.76a4.75,4.75,0,0,1-3,1,4.46,4.46,0,0,1-3.47-1.34A5.31,5.31,0,0,1,264.8,356.52Zm1.86,0a4.25,4.25,0,0,0,.84,2.8,2.8,2.8,0,0,0,2.31,1,4,4,0,0,0,2.34-.78v-6.4a4.59,4.59,0,0,0-2.3-.66,2.81,2.81,0,0,0-2.31,1.1A4.52,4.52,0,0,0,266.66,356.48Z"/><path class="cls-2" d="M276.35,356.48a5.61,5.61,0,0,1,1.29-4,4.71,4.71,0,0,1,3.65-1.39,4.48,4.48,0,0,1,3.47,1.33,6.6,6.6,0,0,1-.06,7.76,5.31,5.31,0,0,1-7.1.06A5.38,5.38,0,0,1,276.35,356.48Zm1.87-.08a4.68,4.68,0,0,0,.76,2.88,2.51,2.51,0,0,0,2.15,1,2.63,2.63,0,0,0,2.22-1,4.62,4.62,0,0,0,.77-2.88,5,5,0,0,0-.73-2.93,2.45,2.45,0,0,0-2.1-1,2.73,2.73,0,0,0-2.27,1A4.61,4.61,0,0,0,278.22,356.4Z"/><path class="cls-2" d="M287.81,360.85l.38-1.21a9,9,0,0,0,3.24.66,2.91,2.91,0,0,0,1.71-.43,1.4,1.4,0,0,0,.59-1.24,1,1,0,0,0-.32-.78,2.15,2.15,0,0,0-.83-.47c-.34-.11-.71-.22-1.12-.32l-1.22-.32a5.13,5.13,0,0,1-1.12-.44,2.22,2.22,0,0,1-.83-.81,2.39,2.39,0,0,1-.32-1.25A2.77,2.77,0,0,1,289,352a4.25,4.25,0,0,1,2.77-.86,10.22,10.22,0,0,1,3.38.6l-.44,1.18a9.08,9.08,0,0,0-2.86-.53,2.39,2.39,0,0,0-1.52.46,1.41,1.41,0,0,0-.58,1.18,1.15,1.15,0,0,0,.24.74,1.71,1.71,0,0,0,.65.46,7.87,7.87,0,0,0,.92.27l1,.23a6.4,6.4,0,0,1,1.05.33,4.58,4.58,0,0,1,.91.47,2,2,0,0,1,.64.77,2.73,2.73,0,0,1,.24,1.18,2.8,2.8,0,0,1-1.05,2.31,4.6,4.6,0,0,1-2.93.83A9.13,9.13,0,0,1,287.81,360.85Z"/><path class="cls-2" d="M296.46,364.62a6.29,6.29,0,0,0,.7-1.36,4.45,4.45,0,0,0,.24-1.5,4.66,4.66,0,0,0-.34-1.72l1.66-.42a4.28,4.28,0,0,1,.34,1.78,5.8,5.8,0,0,1-1.61,3.76Z"/><path class="cls-2" d="M306,366.38v-15h1.19l.3.8a4.85,4.85,0,0,1,3-1,4.25,4.25,0,0,1,3.34,1.31,5.43,5.43,0,0,1,1.18,3.77,5.83,5.83,0,0,1-1.26,3.95,4.31,4.31,0,0,1-3.43,1.45,5.11,5.11,0,0,1-2.52-.6v5.36Zm1.82-6.78a4.11,4.11,0,0,0,2.32.7,2.66,2.66,0,0,0,2.24-1.1,4.67,4.67,0,0,0,.84-2.92,4.47,4.47,0,0,0-.78-2.82,2.71,2.71,0,0,0-2.24-1,3.43,3.43,0,0,0-1.22.21,5,5,0,0,0-1.16.63Z"/><path class="cls-2" d="M316.81,356.48a5.61,5.61,0,0,1,1.29-4,4.71,4.71,0,0,1,3.65-1.39,4.48,4.48,0,0,1,3.47,1.33,6.6,6.6,0,0,1-.06,7.76,5.31,5.31,0,0,1-7.1.06A5.38,5.38,0,0,1,316.81,356.48Zm1.87-.08a4.68,4.68,0,0,0,.76,2.88,2.51,2.51,0,0,0,2.15,1,2.63,2.63,0,0,0,2.22-1,4.62,4.62,0,0,0,.77-2.88,5,5,0,0,0-.73-2.93,2.45,2.45,0,0,0-2.1-1,2.77,2.77,0,0,0-2.28,1A4.67,4.67,0,0,0,318.68,356.4Z"/><path class="cls-2" d="M328.17,356.52a5.63,5.63,0,0,1,1.32-3.91,4.45,4.45,0,0,1,3.5-1.47,5.77,5.77,0,0,1,2.53.56v-5.32h1.82v15h-1.2l-.25-.76a4.75,4.75,0,0,1-3,1,4.46,4.46,0,0,1-3.47-1.34A5.31,5.31,0,0,1,328.17,356.52Zm1.86,0a4.25,4.25,0,0,0,.84,2.8,2.8,2.8,0,0,0,2.31,1,4,4,0,0,0,2.34-.78v-6.4a4.59,4.59,0,0,0-2.3-.66,2.81,2.81,0,0,0-2.31,1.1A4.52,4.52,0,0,0,330,356.48Z"/><path class="cls-2" d="M339.74,358.75a2.82,2.82,0,0,1,1-2.33,4.54,4.54,0,0,1,2.91-.82h2.15v-.93a2,2,0,0,0-.57-1.58,2.74,2.74,0,0,0-1.83-.51,12.66,12.66,0,0,0-3.3.52l-.23-1.27a14.44,14.44,0,0,1,4-.69q3.78,0,3.78,3.3v6.94h-1.19l-.28-.69a5.44,5.44,0,0,1-3.08.93,3.6,3.6,0,0,1-2.44-.79A2.6,2.6,0,0,1,339.74,358.75Zm1.78-.14a1.64,1.64,0,0,0,.56,1.3,2.16,2.16,0,0,0,1.49.49,4.58,4.58,0,0,0,2.27-.63v-3.15h-1.92a2.74,2.74,0,0,0-1.78.52A1.8,1.8,0,0,0,341.52,358.61Z"/><path class="cls-2" d="M354.48,356.52a5.67,5.67,0,0,1,1.31-3.91,4.48,4.48,0,0,1,3.5-1.47,5.79,5.79,0,0,1,2.54.56v-5.32h1.82v15h-1.2l-.25-.76a4.75,4.75,0,0,1-3,1,4.46,4.46,0,0,1-3.47-1.34A5.31,5.31,0,0,1,354.48,356.52Zm1.86,0a4.25,4.25,0,0,0,.84,2.8,2.8,2.8,0,0,0,2.31,1,4,4,0,0,0,2.34-.78v-6.4a4.59,4.59,0,0,0-2.3-.66,2.84,2.84,0,0,0-2.32,1.1A4.57,4.57,0,0,0,356.34,356.48Z"/><path class="cls-2" d="M366,356.44a5.49,5.49,0,0,1,1.33-3.84,4.45,4.45,0,0,1,3.49-1.46,4.17,4.17,0,0,1,3,1.06,4,4,0,0,1,1.09,3,4.69,4.69,0,0,1-.18,1.3h-6.95a4,4,0,0,0,1,2.79,3.56,3.56,0,0,0,2.69,1,7.35,7.35,0,0,0,3.14-.81l.34,1.07a7.9,7.9,0,0,1-3.94,1.06,4.93,4.93,0,0,1-3.72-1.37A5.22,5.22,0,0,1,366,356.44Zm1.9-1.08h5.35l0-.3a2.84,2.84,0,0,0-.64-2,2.43,2.43,0,0,0-1.85-.69,2.49,2.49,0,0,0-1.9.8A4,4,0,0,0,367.93,355.36Z"/><path class="cls-2" d="M69.24,396.38v-15h1.19l.31.8a4.81,4.81,0,0,1,3-1,4.23,4.23,0,0,1,3.34,1.31,5.43,5.43,0,0,1,1.19,3.77A5.84,5.84,0,0,1,77,390.17a4.31,4.31,0,0,1-3.43,1.45,5.11,5.11,0,0,1-2.52-.6v5.36Zm1.82-6.78a4.14,4.14,0,0,0,2.32.7,2.66,2.66,0,0,0,2.24-1.1,4.67,4.67,0,0,0,.84-2.92,4.47,4.47,0,0,0-.78-2.82,2.69,2.69,0,0,0-2.24-1,3.43,3.43,0,0,0-1.22.21,5,5,0,0,0-1.16.63Z"/><path class="cls-2" d="M80.68,389.16V376.38h1.81V388.9a1.19,1.19,0,0,0,1.36,1.4,2.25,2.25,0,0,0,.86-.18l.15,1.1a4.42,4.42,0,0,1-1.8.4,2.39,2.39,0,0,1-1.77-.61A2.49,2.49,0,0,1,80.68,389.16Z"/><path class="cls-2" d="M86,388.75a2.84,2.84,0,0,1,1-2.33A4.56,4.56,0,0,1,90,385.6h2.16v-.93a2,2,0,0,0-.58-1.58,2.7,2.7,0,0,0-1.83-.51,12.66,12.66,0,0,0-3.29.52l-.24-1.27a14.57,14.57,0,0,1,4-.69q3.78,0,3.78,3.3v6.94H92.74l-.28-.69a5.44,5.44,0,0,1-3.08.93,3.6,3.6,0,0,1-2.44-.79A2.6,2.6,0,0,1,86,388.75Zm1.78-.14a1.66,1.66,0,0,0,.55,1.3,2.2,2.2,0,0,0,1.5.49,4.58,4.58,0,0,0,2.27-.63v-3.15H90.19a2.72,2.72,0,0,0-1.78.52A1.8,1.8,0,0,0,87.79,388.61Z"/><path class="cls-2" d="M96.75,391.38v-10h1.19l.29.78a6.34,6.34,0,0,1,1.62-.74,6,6,0,0,1,1.81-.28,3.79,3.79,0,0,1,2.6.78,2.91,2.91,0,0,1,.88,2.3v7.16h-1.82v-6.92a1.86,1.86,0,0,0-.53-1.47,2.37,2.37,0,0,0-1.66-.49,5.4,5.4,0,0,0-2.56.7v8.18Z"/><path class="cls-2" d="M106.76,382.46v-1.08h1.68l.42-3h1.4v3h3v1.22h-3v5.9a1.6,1.6,0,0,0,1.78,1.8,3.26,3.26,0,0,0,1.48-.32l.16,1.12a5.36,5.36,0,0,1-2.36.52,2.9,2.9,0,0,1-2.13-.73,2.87,2.87,0,0,1-.75-2.13l0-6.16Z"/><path class="cls-2" d="M114.9,388.75a2.81,2.81,0,0,1,1-2.33,4.56,4.56,0,0,1,2.91-.82H121v-.93a2,2,0,0,0-.58-1.58,2.7,2.7,0,0,0-1.83-.51,12.79,12.79,0,0,0-3.3.52l-.23-1.27a14.51,14.51,0,0,1,4-.69c2.52,0,3.79,1.1,3.79,3.3v6.94h-1.2l-.27-.69a5.47,5.47,0,0,1-3.08.93,3.64,3.64,0,0,1-2.45-.79A2.59,2.59,0,0,1,114.9,388.75Zm1.77-.14a1.67,1.67,0,0,0,.56,1.3,2.17,2.17,0,0,0,1.5.49,4.61,4.61,0,0,0,2.27-.63v-3.15h-1.93a2.76,2.76,0,0,0-1.78.52A1.83,1.83,0,0,0,116.67,388.61Z"/><path class="cls-2" d="M125.11,390.85l.38-1.21a9,9,0,0,0,3.24.66,3,3,0,0,0,1.72-.43,1.43,1.43,0,0,0,.59-1.24,1,1,0,0,0-.32-.78,2.23,2.23,0,0,0-.83-.47c-.34-.11-.71-.22-1.12-.32l-1.23-.32a5.33,5.33,0,0,1-1.12-.44,2.3,2.3,0,0,1-.83-.81,2.39,2.39,0,0,1-.31-1.25,2.74,2.74,0,0,1,1.07-2.24,4.23,4.23,0,0,1,2.77-.86,10.16,10.16,0,0,1,3.37.6l-.44,1.18a9,9,0,0,0-2.86-.53,2.39,2.39,0,0,0-1.52.46,1.41,1.41,0,0,0-.58,1.18,1.16,1.16,0,0,0,.25.74,1.57,1.57,0,0,0,.65.46,7.33,7.33,0,0,0,.92.27l1.05.23a6.6,6.6,0,0,1,1,.33,4.32,4.32,0,0,1,.91.47,2,2,0,0,1,.64.77,2.59,2.59,0,0,1,.25,1.18,2.78,2.78,0,0,1-1.06,2.31,4.58,4.58,0,0,1-2.93.83A9.16,9.16,0,0,1,125.11,390.85Z"/><path class="cls-2" d="M133.76,394.62a6.29,6.29,0,0,0,.7-1.36,4.45,4.45,0,0,0,.24-1.5,4.65,4.65,0,0,0-.33-1.72l1.66-.42a4.45,4.45,0,0,1,.33,1.78,5.8,5.8,0,0,1-1.61,3.76Z"/><path class="cls-2" d="M142.68,386.52a5.63,5.63,0,0,1,1.32-3.91,4.45,4.45,0,0,1,3.5-1.47,5.74,5.74,0,0,1,2.53.56v-5.32h1.82v15h-1.19l-.26-.76a4.73,4.73,0,0,1-3,1,4.46,4.46,0,0,1-3.47-1.34A5.31,5.31,0,0,1,142.68,386.52Zm1.86,0a4.25,4.25,0,0,0,.84,2.8,2.8,2.8,0,0,0,2.31,1,3.94,3.94,0,0,0,2.34-.78v-6.4a4.56,4.56,0,0,0-2.3-.66,2.81,2.81,0,0,0-2.31,1.1A4.58,4.58,0,0,0,144.54,386.48Z"/><path class="cls-2" d="M154.23,386.44a5.49,5.49,0,0,1,1.33-3.84,4.47,4.47,0,0,1,3.49-1.46,4.15,4.15,0,0,1,3,1.06,4,4,0,0,1,1.1,3,4.7,4.7,0,0,1-.19,1.3h-6.95a4,4,0,0,0,1,2.79,3.58,3.58,0,0,0,2.69,1,7.32,7.32,0,0,0,3.14-.81l.35,1.07a8,8,0,0,1-3.95,1.06,4.93,4.93,0,0,1-3.72-1.37A5.26,5.26,0,0,1,154.23,386.44Zm1.91-1.08h5.34l0-.3a2.84,2.84,0,0,0-.65-2,2.41,2.41,0,0,0-1.85-.69,2.49,2.49,0,0,0-1.89.8A4,4,0,0,0,156.14,385.36Z"/><path class="cls-2" d="M162.89,395.16h.76a2.18,2.18,0,0,0,1.63-.5,2.43,2.43,0,0,0,.47-1.68v-11.6h1.81V393a3.34,3.34,0,0,1-.88,2.58,3.89,3.89,0,0,1-2.74.82h-1.05Zm2.83-16.26a1.33,1.33,0,0,1,0-1.8,1.29,1.29,0,0,1,.93-.34,1.26,1.26,0,0,1,.92.34,1.36,1.36,0,0,1,0,1.8,1.26,1.26,0,0,1-.92.34A1.29,1.29,0,0,1,165.72,378.9Z"/><path class="cls-2" d="M170.11,386.44a5.49,5.49,0,0,1,1.33-3.84,4.47,4.47,0,0,1,3.49-1.46,4.17,4.17,0,0,1,3,1.06,4,4,0,0,1,1.1,3,4.7,4.7,0,0,1-.19,1.3h-6.95a4,4,0,0,0,1,2.79,3.56,3.56,0,0,0,2.69,1,7.35,7.35,0,0,0,3.14-.81l.35,1.07a8,8,0,0,1-4,1.06,4.93,4.93,0,0,1-3.72-1.37A5.22,5.22,0,0,1,170.11,386.44Zm1.91-1.08h5.34l0-.3a2.84,2.84,0,0,0-.65-2,2.41,2.41,0,0,0-1.85-.69,2.52,2.52,0,0,0-1.9.8A4,4,0,0,0,172,385.36Z"/><path class="cls-2" d="M180.15,382.46v-1.08h1.68l.42-3h1.4v3h3v1.22h-3v5.9a1.6,1.6,0,0,0,1.78,1.8,3.32,3.32,0,0,0,1.48-.32l.15,1.12a5.29,5.29,0,0,1-2.35.52,2.59,2.59,0,0,1-2.88-2.86l0-6.16Z"/><path class="cls-2" d="M188.15,386.48a5.61,5.61,0,0,1,1.29-4,4.69,4.69,0,0,1,3.64-1.39,4.47,4.47,0,0,1,3.47,1.33,6.58,6.58,0,0,1-.05,7.76,5.31,5.31,0,0,1-7.1.06A5.34,5.34,0,0,1,188.15,386.48Zm1.86-.08a4.75,4.75,0,0,0,.76,2.88,2.54,2.54,0,0,0,2.16,1,2.63,2.63,0,0,0,2.22-1,4.68,4.68,0,0,0,.77-2.88,5,5,0,0,0-.73-2.93,2.47,2.47,0,0,0-2.11-1,2.75,2.75,0,0,0-2.27,1A4.67,4.67,0,0,0,190,386.4Z"/><path class="cls-2" d="M199.6,390.85l.38-1.21a9,9,0,0,0,3.25.66,2.93,2.93,0,0,0,1.71-.43,1.43,1.43,0,0,0,.59-1.24,1,1,0,0,0-.32-.78,2.23,2.23,0,0,0-.83-.47c-.34-.11-.71-.22-1.12-.32l-1.23-.32a5.33,5.33,0,0,1-1.12-.44,2.2,2.2,0,0,1-.82-.81,2.3,2.3,0,0,1-.32-1.25,2.77,2.77,0,0,1,1.07-2.24,4.23,4.23,0,0,1,2.77-.86,10.27,10.27,0,0,1,3.38.6l-.44,1.18a9.08,9.08,0,0,0-2.86-.53,2.42,2.42,0,0,0-1.53.46,1.43,1.43,0,0,0-.57,1.18,1.15,1.15,0,0,0,.24.74,1.63,1.63,0,0,0,.65.46,7.87,7.87,0,0,0,.92.27l1,.23a6.29,6.29,0,0,1,1,.33,4.09,4.09,0,0,1,.91.47,2.06,2.06,0,0,1,.65.77,2.73,2.73,0,0,1,.24,1.18,2.78,2.78,0,0,1-1.06,2.31,4.58,4.58,0,0,1-2.93.83A9.16,9.16,0,0,1,199.6,390.85Z"/><path class="cls-2" d="M214.38,391.38v-15h1.86V382a6.32,6.32,0,0,1,3.08-.82,3.74,3.74,0,0,1,2.57.78,3,3,0,0,1,.87,2.32v7.14h-1.82v-6.92c0-1.31-.73-2-2.18-2a5.2,5.2,0,0,0-2.52.7v8.18Z"/><path class="cls-2" d="M225.43,388.44v-7.06h1.82v6.8a2,2,0,0,0,.58,1.54,2.49,2.49,0,0,0,1.75.54,5,5,0,0,0,2.4-.68v-8.2h1.81v10h-1.17l-.31-.8a5.52,5.52,0,0,1-3.29,1,3.85,3.85,0,0,1-2.67-.83A3,3,0,0,1,225.43,388.44Z"/><path class="cls-2" d="M236.81,391.38v-10H238l.3.8a5.86,5.86,0,0,1,3.25-1,3.45,3.45,0,0,1,2.91,1.1,6,6,0,0,1,3.52-1.1,3.72,3.72,0,0,1,2.57.81,3,3,0,0,1,.9,2.35v7.08h-1.82v-6.91a1.87,1.87,0,0,0-.56-1.47,2.39,2.39,0,0,0-1.61-.5,5.1,5.1,0,0,0-2.54.7,4.46,4.46,0,0,1,.12,1.08v7.1h-1.81v-6.92a1.87,1.87,0,0,0-.54-1.47,2.33,2.33,0,0,0-1.64-.49,4.68,4.68,0,0,0-2.42.7v8.18Z"/><path class="cls-2" d="M253.71,388.75a2.82,2.82,0,0,1,1-2.33,4.56,4.56,0,0,1,2.91-.82h2.16v-.93a2,2,0,0,0-.58-1.58,2.7,2.7,0,0,0-1.83-.51,12.79,12.79,0,0,0-3.3.52l-.23-1.27a14.44,14.44,0,0,1,4-.69q3.78,0,3.78,3.3v6.94h-1.19l-.28-.69a5.43,5.43,0,0,1-3.07.93,3.63,3.63,0,0,1-2.45-.79A2.6,2.6,0,0,1,253.71,388.75Zm1.78-.14a1.67,1.67,0,0,0,.56,1.3,2.17,2.17,0,0,0,1.5.49,4.61,4.61,0,0,0,2.27-.63v-3.15h-1.93a2.76,2.76,0,0,0-1.78.52A1.83,1.83,0,0,0,255.49,388.61Z"/><path class="cls-2" d="M264.46,391.38v-10h1.19l.28.78a6.58,6.58,0,0,1,1.63-.74,6,6,0,0,1,1.81-.28,3.81,3.81,0,0,1,2.6.78,2.94,2.94,0,0,1,.88,2.3v7.16H271v-6.92a1.9,1.9,0,0,0-.53-1.47,2.4,2.4,0,0,0-1.67-.49,5.43,5.43,0,0,0-2.56.7v8.18Z"/><path class="cls-2" d="M275,386.48a5.61,5.61,0,0,1,1.29-4,4.73,4.73,0,0,1,3.65-1.39,4.48,4.48,0,0,1,3.47,1.33,6.63,6.63,0,0,1-.05,7.76,5.33,5.33,0,0,1-7.11.06A5.38,5.38,0,0,1,275,386.48Zm1.87-.08a4.68,4.68,0,0,0,.76,2.88,2.52,2.52,0,0,0,2.15,1,2.63,2.63,0,0,0,2.22-1,4.61,4.61,0,0,0,.78-2.88,5,5,0,0,0-.74-2.93,2.45,2.45,0,0,0-2.1-1,2.73,2.73,0,0,0-2.27,1A4.61,4.61,0,0,0,276.91,386.4Z"/><path class="cls-2" d="M286.5,390.85l.38-1.21a9,9,0,0,0,3.24.66,2.91,2.91,0,0,0,1.71-.43,1.41,1.41,0,0,0,.6-1.24,1,1,0,0,0-.33-.78,2.15,2.15,0,0,0-.83-.47c-.33-.11-.71-.22-1.11-.32l-1.23-.32a5.13,5.13,0,0,1-1.12-.44,2.22,2.22,0,0,1-.83-.81,2.39,2.39,0,0,1-.32-1.25,2.77,2.77,0,0,1,1.07-2.24,4.27,4.27,0,0,1,2.77-.86,10.22,10.22,0,0,1,3.38.6l-.44,1.18a9,9,0,0,0-2.86-.53,2.39,2.39,0,0,0-1.52.46,1.41,1.41,0,0,0-.58,1.18,1.11,1.11,0,0,0,.25.74,1.57,1.57,0,0,0,.65.46,7.15,7.15,0,0,0,.91.27l1,.23a6.4,6.4,0,0,1,1.05.33,4.58,4.58,0,0,1,.91.47,2,2,0,0,1,.64.77,2.73,2.73,0,0,1,.24,1.18,2.8,2.8,0,0,1-1.05,2.31,4.58,4.58,0,0,1-2.93.83A9.13,9.13,0,0,1,286.5,390.85Z"/><path class="cls-2" d="M300.57,386.48a5.61,5.61,0,0,1,1.29-4,4.71,4.71,0,0,1,3.65-1.39,4.48,4.48,0,0,1,3.47,1.33,6.6,6.6,0,0,1-.06,7.76,5.31,5.31,0,0,1-7.1.06A5.38,5.38,0,0,1,300.57,386.48Zm1.87-.08a4.68,4.68,0,0,0,.76,2.88,2.51,2.51,0,0,0,2.15,1,2.63,2.63,0,0,0,2.22-1,4.62,4.62,0,0,0,.77-2.88,5,5,0,0,0-.73-2.93,2.45,2.45,0,0,0-2.1-1,2.77,2.77,0,0,0-2.28,1A4.67,4.67,0,0,0,302.44,386.4Z"/><path class="cls-2" d="M312.39,388.44v-7.06h1.81v6.8a2,2,0,0,0,.58,1.54,2.49,2.49,0,0,0,1.75.54,5,5,0,0,0,2.4-.68v-8.2h1.82v10h-1.17l-.31-.8a5.57,5.57,0,0,1-3.29,1,3.82,3.82,0,0,1-2.67-.83A3,3,0,0,1,312.39,388.44Z"/><path class="cls-2" d="M327.76,386.52a5.63,5.63,0,0,1,1.32-3.91,4.45,4.45,0,0,1,3.5-1.47,5.77,5.77,0,0,1,2.53.56v-5.32h1.82v15h-1.2l-.25-.76a4.75,4.75,0,0,1-3,1,4.46,4.46,0,0,1-3.47-1.34A5.31,5.31,0,0,1,327.76,386.52Zm1.86,0a4.25,4.25,0,0,0,.84,2.8,2.8,2.8,0,0,0,2.31,1,4,4,0,0,0,2.34-.78v-6.4a4.59,4.59,0,0,0-2.3-.66,2.81,2.81,0,0,0-2.31,1.1A4.52,4.52,0,0,0,329.62,386.48Z"/><path class="cls-2" d="M339.31,386.44a5.49,5.49,0,0,1,1.33-3.84,4.47,4.47,0,0,1,3.49-1.46,4.17,4.17,0,0,1,3,1.06,4,4,0,0,1,1.1,3,4.7,4.7,0,0,1-.19,1.3h-6.95a4,4,0,0,0,1,2.79,3.56,3.56,0,0,0,2.69,1,7.35,7.35,0,0,0,3.14-.81l.34,1.07a7.9,7.9,0,0,1-3.94,1.06,4.93,4.93,0,0,1-3.72-1.37A5.22,5.22,0,0,1,339.31,386.44Zm1.9-1.08h5.35l0-.3a2.84,2.84,0,0,0-.65-2,2.41,2.41,0,0,0-1.85-.69,2.51,2.51,0,0,0-1.9.8A4,4,0,0,0,341.21,385.36Z"/><path class="cls-2" d="M56.16,418.75a2.81,2.81,0,0,1,1-2.33,4.56,4.56,0,0,1,2.91-.82h2.16v-.93a2,2,0,0,0-.58-1.58,2.7,2.7,0,0,0-1.83-.51,12.79,12.79,0,0,0-3.3.52l-.23-1.27a14.51,14.51,0,0,1,4-.69c2.52,0,3.79,1.1,3.79,3.3v6.94h-1.2l-.27-.69a5.47,5.47,0,0,1-3.08.93,3.64,3.64,0,0,1-2.45-.79A2.59,2.59,0,0,1,56.16,418.75Zm1.77-.14a1.67,1.67,0,0,0,.56,1.3,2.17,2.17,0,0,0,1.5.49,4.61,4.61,0,0,0,2.27-.63v-3.15H60.33a2.76,2.76,0,0,0-1.78.52A1.83,1.83,0,0,0,57.93,418.61Z"/><path class="cls-2" d="M66.9,421.38v-10h1.19l.28.78a6.58,6.58,0,0,1,1.63-.74,6,6,0,0,1,1.81-.28,3.79,3.79,0,0,1,2.6.78,2.94,2.94,0,0,1,.88,2.3v7.16H73.47v-6.92a1.9,1.9,0,0,0-.53-1.47,2.4,2.4,0,0,0-1.67-.49,5.43,5.43,0,0,0-2.56.7v8.18Z"/><path class="cls-2" d="M78.35,408.9a1.33,1.33,0,0,1,0-1.8,1.41,1.41,0,0,1,1.84,0,1.33,1.33,0,0,1,0,1.8,1.41,1.41,0,0,1-1.84,0Zm0,12.48v-10h1.82v10Z"/><path class="cls-2" d="M83.38,421.38v-10h1.19l.31.8a5.81,5.81,0,0,1,3.24-1,3.45,3.45,0,0,1,2.91,1.1,6,6,0,0,1,3.52-1.1,3.72,3.72,0,0,1,2.57.81,3,3,0,0,1,.9,2.35v7.08H96.2v-6.91a1.84,1.84,0,0,0-.56-1.47,2.37,2.37,0,0,0-1.61-.5,5,5,0,0,0-2.53.7,4.46,4.46,0,0,1,.12,1.08v7.1H89.8v-6.92a1.9,1.9,0,0,0-.53-1.47,2.38,2.38,0,0,0-1.65-.49,4.68,4.68,0,0,0-2.42.7v8.18Z"/><path class="cls-2" d="M100.29,418.75a2.81,2.81,0,0,1,1-2.33,4.56,4.56,0,0,1,2.91-.82h2.16v-.93a2,2,0,0,0-.58-1.58,2.7,2.7,0,0,0-1.83-.51,12.66,12.66,0,0,0-3.29.52l-.24-1.27a14.51,14.51,0,0,1,4-.69q3.8,0,3.79,3.3v6.94H107l-.27-.69a5.47,5.47,0,0,1-3.08.93,3.64,3.64,0,0,1-2.45-.79A2.62,2.62,0,0,1,100.29,418.75Zm1.77-.14a1.67,1.67,0,0,0,.56,1.3,2.17,2.17,0,0,0,1.5.49,4.61,4.61,0,0,0,2.27-.63v-3.15h-1.93a2.71,2.71,0,0,0-1.77.52A1.81,1.81,0,0,0,102.06,418.61Z"/><path class="cls-2" d="M111.27,408.9a1.33,1.33,0,0,1,0-1.8,1.41,1.41,0,0,1,1.84,0,1.33,1.33,0,0,1,0,1.8,1.41,1.41,0,0,1-1.84,0Zm0,12.48v-10h1.82v10Z"/><path class="cls-2" d="M115.78,420.85l.38-1.21a9,9,0,0,0,3.24.66,2.91,2.91,0,0,0,1.71-.43,1.4,1.4,0,0,0,.59-1.24,1,1,0,0,0-.32-.78,2.15,2.15,0,0,0-.83-.47c-.34-.11-.71-.22-1.12-.32l-1.22-.32a5.42,5.42,0,0,1-1.13-.44,2.27,2.27,0,0,1-.82-.81,2.39,2.39,0,0,1-.32-1.25A2.77,2.77,0,0,1,117,412a4.25,4.25,0,0,1,2.77-.86,10.22,10.22,0,0,1,3.38.6l-.44,1.18a9.08,9.08,0,0,0-2.86-.53,2.44,2.44,0,0,0-1.53.46,1.43,1.43,0,0,0-.57,1.18,1.15,1.15,0,0,0,.24.74,1.63,1.63,0,0,0,.65.46,7.87,7.87,0,0,0,.92.27l1.05.23a6.4,6.4,0,0,1,1,.33,4.58,4.58,0,0,1,.91.47,2,2,0,0,1,.64.77,2.73,2.73,0,0,1,.24,1.18,2.8,2.8,0,0,1-1,2.31,4.6,4.6,0,0,1-2.93.83A9.13,9.13,0,0,1,115.78,420.85Z"/><path class="cls-2" d="M124.43,424.62a6.77,6.77,0,0,0,.7-1.36,4.72,4.72,0,0,0,.24-1.5A4.66,4.66,0,0,0,125,420l1.66-.42a4.45,4.45,0,0,1,.34,1.78,5.77,5.77,0,0,1-1.62,3.76Z"/><path class="cls-2" d="M133.15,412.46v-1.08h1.53v-1.92a3.39,3.39,0,0,1,.83-2.44,3.08,3.08,0,0,1,2.35-.87,6.62,6.62,0,0,1,2.19.35l-.16,1.22a6.25,6.25,0,0,0-1.49-.24,1.7,1.7,0,0,0-1.4.55,2.54,2.54,0,0,0-.45,1.65v1.7H143v10h-1.81V412.6h-4.59v8.78h-1.87V412.6Zm7.57-4.8a1.14,1.14,0,0,1,1.25-1.22,1.31,1.31,0,0,1,.93.33,1.18,1.18,0,0,1,.36.89,1.22,1.22,0,0,1-.36.92,1.31,1.31,0,0,1-.93.34,1.25,1.25,0,0,1-.92-.34A1.28,1.28,0,0,1,140.72,407.66Z"/><path class="cls-2" d="M146.12,419.16V406.38h1.81V418.9a1.19,1.19,0,0,0,1.36,1.4,2.25,2.25,0,0,0,.86-.18l.15,1.1a4.42,4.42,0,0,1-1.8.4,2.39,2.39,0,0,1-1.77-.61A2.49,2.49,0,0,1,146.12,419.16Z"/><path class="cls-2" d="M150.45,412.46v-1.08h1.68l.42-3H154v3h3v1.22h-3v5.9a1.82,1.82,0,0,0,.45,1.34,1.84,1.84,0,0,0,1.34.46,3.25,3.25,0,0,0,1.47-.32l.16,1.12a5.36,5.36,0,0,1-2.36.52,2.9,2.9,0,0,1-2.13-.73,2.87,2.87,0,0,1-.75-2.13l0-6.16Z"/><path class="cls-2" d="M159.23,421.38v-10h1.19l.29.76a4.89,4.89,0,0,1,3-1,3,3,0,0,1,1,.16l-.21,1.32a5.64,5.64,0,0,0-.93-.08,4.91,4.91,0,0,0-2.56.69v8.15Z"/><path class="cls-2" d="M165.52,416.48a5.61,5.61,0,0,1,1.29-4,4.71,4.71,0,0,1,3.65-1.39,4.48,4.48,0,0,1,3.47,1.33,6.6,6.6,0,0,1-.06,7.76,5.31,5.31,0,0,1-7.1.06A5.38,5.38,0,0,1,165.52,416.48Zm1.87-.08a4.68,4.68,0,0,0,.76,2.88,2.51,2.51,0,0,0,2.15,1,2.63,2.63,0,0,0,2.22-1,4.62,4.62,0,0,0,.77-2.88,5,5,0,0,0-.73-2.93,2.45,2.45,0,0,0-2.1-1,2.73,2.73,0,0,0-2.27,1A4.61,4.61,0,0,0,167.39,416.4Z"/><path class="cls-2" d="M177,420.85l.38-1.21a9,9,0,0,0,3.24.66,2.91,2.91,0,0,0,1.71-.43,1.4,1.4,0,0,0,.59-1.24,1,1,0,0,0-.32-.78,2.15,2.15,0,0,0-.83-.47c-.34-.11-.71-.22-1.12-.32l-1.22-.32a5.42,5.42,0,0,1-1.13-.44,2.27,2.27,0,0,1-.82-.81,2.39,2.39,0,0,1-.32-1.25,2.77,2.77,0,0,1,1.07-2.24,4.25,4.25,0,0,1,2.77-.86,10.22,10.22,0,0,1,3.38.6l-.44,1.18a9.08,9.08,0,0,0-2.86-.53,2.44,2.44,0,0,0-1.53.46A1.43,1.43,0,0,0,179,414a1.15,1.15,0,0,0,.24.74,1.71,1.71,0,0,0,.65.46,7.87,7.87,0,0,0,.92.27l1,.23a6.4,6.4,0,0,1,1.05.33,4.58,4.58,0,0,1,.91.47,2,2,0,0,1,.64.77,2.73,2.73,0,0,1,.24,1.18,2.8,2.8,0,0,1-1,2.31,4.6,4.6,0,0,1-2.93.83A9.13,9.13,0,0,1,177,420.85Z"/><path class="cls-2" d="M191.05,416.52a5.63,5.63,0,0,1,1.32-3.91,4.45,4.45,0,0,1,3.5-1.47,5.77,5.77,0,0,1,2.53.56v-5.32h1.82v15H199l-.25-.76a4.75,4.75,0,0,1-3,1,4.46,4.46,0,0,1-3.47-1.34A5.31,5.31,0,0,1,191.05,416.52Zm1.86,0a4.25,4.25,0,0,0,.84,2.8,2.8,2.8,0,0,0,2.31,1,4,4,0,0,0,2.34-.78v-6.4a4.59,4.59,0,0,0-2.3-.66,2.81,2.81,0,0,0-2.31,1.1A4.52,4.52,0,0,0,192.91,416.48Z"/><path class="cls-2" d="M202.6,416.44a5.49,5.49,0,0,1,1.33-3.84,4.47,4.47,0,0,1,3.49-1.46,4.15,4.15,0,0,1,3,1.06,4,4,0,0,1,1.1,3,4.7,4.7,0,0,1-.19,1.3h-7a4,4,0,0,0,1,2.79,3.56,3.56,0,0,0,2.69,1,7.32,7.32,0,0,0,3.14-.81l.35,1.07a8,8,0,0,1-3.95,1.06,4.93,4.93,0,0,1-3.72-1.37A5.22,5.22,0,0,1,202.6,416.44Zm1.91-1.08h5.34l0-.3a2.84,2.84,0,0,0-.65-2,2.41,2.41,0,0,0-1.85-.69,2.49,2.49,0,0,0-1.89.8A3.9,3.9,0,0,0,204.51,415.36Z"/><path class="cls-2" d="M219.24,420.3a5.12,5.12,0,0,1-1.33-3.76,5.39,5.39,0,0,1,1.45-3.92,5.1,5.1,0,0,1,3.82-1.48,10,10,0,0,1,2.81.41l-.29,1.25a7.2,7.2,0,0,0-2.29-.34,3.4,3.4,0,0,0-2.63,1.1,4.12,4.12,0,0,0-1,2.9,3.84,3.84,0,0,0,1,2.81,3.58,3.58,0,0,0,2.71,1,8.79,8.79,0,0,0,2.36-.38l.29,1.16a8.77,8.77,0,0,1-3.11.58A5.1,5.1,0,0,1,219.24,420.3Z"/><path class="cls-2" d="M227.63,418.75a2.82,2.82,0,0,1,1-2.33,4.56,4.56,0,0,1,2.91-.82h2.15v-.93a2,2,0,0,0-.57-1.58,2.74,2.74,0,0,0-1.83-.51,12.66,12.66,0,0,0-3.3.52l-.23-1.27a14.44,14.44,0,0,1,4-.69q3.78,0,3.78,3.3v6.94h-1.19l-.28-.69a5.44,5.44,0,0,1-3.08.93,3.6,3.6,0,0,1-2.44-.79A2.6,2.6,0,0,1,227.63,418.75Zm1.78-.14a1.64,1.64,0,0,0,.56,1.3,2.16,2.16,0,0,0,1.49.49,4.58,4.58,0,0,0,2.27-.63v-3.15h-1.92a2.74,2.74,0,0,0-1.78.52A1.83,1.83,0,0,0,229.41,418.61Z"/><path class="cls-2" d="M237.55,412.46v-1.08h1.54v-1.92a3.38,3.38,0,0,1,.82-2.44,3.1,3.1,0,0,1,2.34-.87,7.45,7.45,0,0,1,2.24.34l-.2,1.23a4.87,4.87,0,0,0-1.48-.24c-1.24,0-1.86.74-1.86,2.2v1.7h2.38v1.22H241v8.78h-1.86V412.6Z"/><path class="cls-2" d="M244.11,416.44a5.53,5.53,0,0,1,1.32-3.84,4.48,4.48,0,0,1,3.49-1.46A4.19,4.19,0,0,1,252,412.2a4,4,0,0,1,1.09,3,4.35,4.35,0,0,1-.19,1.3h-7a4,4,0,0,0,1,2.79,3.55,3.55,0,0,0,2.69,1,7.35,7.35,0,0,0,3.14-.81l.34,1.07a7.93,7.93,0,0,1-3.94,1.06,4.91,4.91,0,0,1-3.72-1.37A5.22,5.22,0,0,1,244.11,416.44Zm1.9-1.08h5.34l0-.3a2.84,2.84,0,0,0-.65-2,2.41,2.41,0,0,0-1.85-.69,2.49,2.49,0,0,0-1.89.8A4,4,0,0,0,246,415.36Zm1.85-6.34,3.54-3.46,1.11,1.06-3.83,3.12Z"/><path class="cls-2" d="M259.42,416.44a5.53,5.53,0,0,1,1.32-3.84,4.49,4.49,0,0,1,3.5-1.46,4.17,4.17,0,0,1,3,1.06,4,4,0,0,1,1.09,3,4.69,4.69,0,0,1-.18,1.3h-7a4,4,0,0,0,1,2.79,3.55,3.55,0,0,0,2.69,1,7.35,7.35,0,0,0,3.14-.81l.34,1.07a7.9,7.9,0,0,1-3.94,1.06,4.93,4.93,0,0,1-3.72-1.37A5.22,5.22,0,0,1,259.42,416.44Zm1.9-1.08h5.34l0-.3a2.8,2.8,0,0,0-.65-2,2.39,2.39,0,0,0-1.84-.69,2.49,2.49,0,0,0-1.9.8A4,4,0,0,0,261.32,415.36Z"/><path class="cls-2" d="M274.83,420.85l.38-1.21a9,9,0,0,0,3.24.66,2.91,2.91,0,0,0,1.71-.43,1.41,1.41,0,0,0,.6-1.24,1,1,0,0,0-.33-.78,2.15,2.15,0,0,0-.83-.47c-.33-.11-.71-.22-1.11-.32l-1.23-.32a5.13,5.13,0,0,1-1.12-.44,2.22,2.22,0,0,1-.83-.81,2.39,2.39,0,0,1-.32-1.25,2.77,2.77,0,0,1,1.07-2.24,4.27,4.27,0,0,1,2.77-.86,10.22,10.22,0,0,1,3.38.6l-.44,1.18a9,9,0,0,0-2.86-.53,2.39,2.39,0,0,0-1.52.46,1.41,1.41,0,0,0-.58,1.18,1.11,1.11,0,0,0,.25.74,1.57,1.57,0,0,0,.65.46,7.15,7.15,0,0,0,.91.27l1.05.23a6.4,6.4,0,0,1,1.05.33,4.58,4.58,0,0,1,.91.47,2,2,0,0,1,.64.77,2.73,2.73,0,0,1,.24,1.18,2.8,2.8,0,0,1-1.05,2.31,4.58,4.58,0,0,1-2.93.83A9.13,9.13,0,0,1,274.83,420.85Z"/><path class="cls-2" d="M284.34,418.75a2.84,2.84,0,0,1,1-2.33,4.56,4.56,0,0,1,2.91-.82h2.16v-.93a2,2,0,0,0-.57-1.58,2.75,2.75,0,0,0-1.84-.51,12.66,12.66,0,0,0-3.29.52l-.24-1.27a14.57,14.57,0,0,1,4-.69q3.78,0,3.78,3.3v6.94h-1.19l-.28-.69a5.44,5.44,0,0,1-3.08.93,3.6,3.6,0,0,1-2.44-.79A2.6,2.6,0,0,1,284.34,418.75Zm1.78-.14a1.66,1.66,0,0,0,.55,1.3,2.2,2.2,0,0,0,1.5.49,4.58,4.58,0,0,0,2.27-.63v-3.15h-1.92a2.72,2.72,0,0,0-1.78.52A1.8,1.8,0,0,0,286.12,418.61Z"/><path class="cls-2" d="M295.78,420.3a5.11,5.11,0,0,1-1.32-3.76,5.35,5.35,0,0,1,1.45-3.92,5.06,5.06,0,0,1,3.81-1.48,10,10,0,0,1,2.81.41l-.29,1.25a7.2,7.2,0,0,0-2.29-.34,3.41,3.41,0,0,0-2.63,1.1,4.17,4.17,0,0,0-1,2.9,3.84,3.84,0,0,0,1,2.81,3.6,3.6,0,0,0,2.71,1,8.92,8.92,0,0,0,2.37-.38l.28,1.16a8.73,8.73,0,0,1-3.11.58A5.1,5.1,0,0,1,295.78,420.3Z"/><path class="cls-2" d="M304.82,421.38v-15h1.86V412a6.32,6.32,0,0,1,3.08-.82,3.74,3.74,0,0,1,2.57.78,3,3,0,0,1,.87,2.32v7.14h-1.82v-6.92c0-1.31-.73-2-2.18-2a5.17,5.17,0,0,0-2.52.7v8.18Z"/><path class="cls-2" d="M315.41,416.44a5.53,5.53,0,0,1,1.33-3.84,4.48,4.48,0,0,1,3.49-1.46,4.19,4.19,0,0,1,3,1.06,4.08,4.08,0,0,1,1.09,3,4.35,4.35,0,0,1-.19,1.3h-6.95a4,4,0,0,0,1,2.79,3.58,3.58,0,0,0,2.69,1,7.39,7.39,0,0,0,3.15-.81l.34,1.07a7.93,7.93,0,0,1-3.94,1.06,4.9,4.9,0,0,1-3.72-1.37A5.22,5.22,0,0,1,315.41,416.44Zm1.68-6.66v-.18l2.28-2.4h1.48l2.32,2.4v.18h-1.52l-1.51-1.48h-.07l-1.49,1.48Zm.23,5.58h5.34l0-.3a2.84,2.84,0,0,0-.65-2,2.41,2.41,0,0,0-1.85-.69,2.49,2.49,0,0,0-1.89.8A4,4,0,0,0,317.32,415.36Z"/><path class="cls-2" d="M326.2,420.85l.39-1.21a9,9,0,0,0,3.24.66,2.91,2.91,0,0,0,1.71-.43,1.4,1.4,0,0,0,.59-1.24,1,1,0,0,0-.32-.78,2.15,2.15,0,0,0-.83-.47c-.34-.11-.71-.22-1.12-.32l-1.22-.32a5.42,5.42,0,0,1-1.13-.44,2.27,2.27,0,0,1-.82-.81,2.39,2.39,0,0,1-.32-1.25,2.77,2.77,0,0,1,1.07-2.24,4.25,4.25,0,0,1,2.77-.86,10.22,10.22,0,0,1,3.38.6l-.44,1.18a9.08,9.08,0,0,0-2.86-.53,2.44,2.44,0,0,0-1.53.46,1.43,1.43,0,0,0-.57,1.18,1.15,1.15,0,0,0,.24.74,1.63,1.63,0,0,0,.65.46,7.87,7.87,0,0,0,.92.27l1.05.23a6.4,6.4,0,0,1,1.05.33,4.58,4.58,0,0,1,.91.47,2,2,0,0,1,.64.77,2.73,2.73,0,0,1,.24,1.18,2.8,2.8,0,0,1-1.05,2.31,4.6,4.6,0,0,1-2.93.83A9.21,9.21,0,0,1,326.2,420.85Z"/><path class="cls-2" d="M340.28,416.52a5.67,5.67,0,0,1,1.31-3.91,4.49,4.49,0,0,1,3.51-1.47,5.77,5.77,0,0,1,2.53.56v-5.32h1.82v15h-1.2l-.25-.76a4.75,4.75,0,0,1-3,1,4.46,4.46,0,0,1-3.47-1.34A5.31,5.31,0,0,1,340.28,416.52Zm1.86,0a4.25,4.25,0,0,0,.84,2.8,2.8,2.8,0,0,0,2.31,1,4,4,0,0,0,2.34-.78v-6.4a4.59,4.59,0,0,0-2.3-.66,2.81,2.81,0,0,0-2.31,1.1A4.52,4.52,0,0,0,342.14,416.48Z"/><path class="cls-2" d="M351.83,416.44a5.49,5.49,0,0,1,1.33-3.84,4.45,4.45,0,0,1,3.49-1.46,4.17,4.17,0,0,1,3,1.06,4,4,0,0,1,1.09,3,4.69,4.69,0,0,1-.18,1.3h-7a4,4,0,0,0,1,2.79,3.56,3.56,0,0,0,2.69,1,7.35,7.35,0,0,0,3.14-.81l.34,1.07a7.9,7.9,0,0,1-3.94,1.06,4.93,4.93,0,0,1-3.72-1.37A5.22,5.22,0,0,1,351.83,416.44Zm1.9-1.08h5.35l0-.3a2.84,2.84,0,0,0-.65-2,2.41,2.41,0,0,0-1.85-.69,2.51,2.51,0,0,0-1.9.8A4,4,0,0,0,353.73,415.36Z"/><path class="cls-2" d="M152.11,450.3a5.08,5.08,0,0,1-1.33-3.76,5.35,5.35,0,0,1,1.45-3.92,5.09,5.09,0,0,1,3.81-1.48,10.07,10.07,0,0,1,2.82.41l-.3,1.25a7.18,7.18,0,0,0-2.28-.34,3.38,3.38,0,0,0-2.63,1.1,4.12,4.12,0,0,0-1,2.9,3.84,3.84,0,0,0,.95,2.81,3.62,3.62,0,0,0,2.72,1,8.85,8.85,0,0,0,2.36-.38L159,451a8.72,8.72,0,0,1-3.1.58A5.07,5.07,0,0,1,152.11,450.3Z"/><path class="cls-2" d="M161.14,451.38v-15H163V442a6.29,6.29,0,0,1,3.08-.82,3.72,3.72,0,0,1,2.56.78,3,3,0,0,1,.87,2.32v7.14H167.7v-6.92c0-1.31-.72-2-2.18-2a5.16,5.16,0,0,0-2.51.7v8.18Z"/><path class="cls-2" d="M171.8,448.75a2.81,2.81,0,0,1,1-2.33,4.56,4.56,0,0,1,2.91-.82h2.16v-.93a2,2,0,0,0-.58-1.58,2.7,2.7,0,0,0-1.83-.51,12.79,12.79,0,0,0-3.3.52l-.23-1.27a14.51,14.51,0,0,1,4-.69c2.52,0,3.79,1.1,3.79,3.3v6.94h-1.2l-.28-.69a5.43,5.43,0,0,1-3.07.93,3.63,3.63,0,0,1-2.45-.79A2.59,2.59,0,0,1,171.8,448.75Zm1.77-.14a1.67,1.67,0,0,0,.56,1.3,2.17,2.17,0,0,0,1.5.49,4.61,4.61,0,0,0,2.27-.63v-3.15H176a2.71,2.71,0,0,0-1.77.52A1.81,1.81,0,0,0,173.57,448.61ZM175,439l3.53-3.44,1.14,1.06-3.87,3.12Z"/><path class="cls-2" d="M205.09,448.75a2.81,2.81,0,0,1,1-2.33,4.56,4.56,0,0,1,2.91-.82h2.16v-.93a2,2,0,0,0-.58-1.58,2.7,2.7,0,0,0-1.83-.51,12.66,12.66,0,0,0-3.29.52l-.24-1.27a14.51,14.51,0,0,1,4-.69q3.79,0,3.79,3.3v6.94h-1.2l-.27-.69a5.47,5.47,0,0,1-3.08.93,3.64,3.64,0,0,1-2.45-.79A2.62,2.62,0,0,1,205.09,448.75Zm1.77-.14a1.67,1.67,0,0,0,.56,1.3,2.17,2.17,0,0,0,1.5.49,4.61,4.61,0,0,0,2.27-.63v-3.15h-1.93a2.71,2.71,0,0,0-1.77.52A1.81,1.81,0,0,0,206.86,448.61Z"/><path class="cls-2" d="M215.2,446.52a5.63,5.63,0,0,1,1.32-3.91,4.48,4.48,0,0,1,3.5-1.47,5.82,5.82,0,0,1,2.54.56v-5.32h1.81v15h-1.19l-.26-.76a4.7,4.7,0,0,1-3,1,4.49,4.49,0,0,1-3.48-1.34A5.36,5.36,0,0,1,215.2,446.52Zm1.87,0a4.31,4.31,0,0,0,.83,2.8,2.84,2.84,0,0,0,2.32,1,4,4,0,0,0,2.34-.78v-6.4a4.61,4.61,0,0,0-2.3-.66,2.81,2.81,0,0,0-2.32,1.1A4.57,4.57,0,0,0,217.07,446.48Z"/><path class="cls-2" d="M226.76,446.44a5.53,5.53,0,0,1,1.32-3.84,4.49,4.49,0,0,1,3.5-1.46,4.17,4.17,0,0,1,3,1.06,4,4,0,0,1,1.09,3,4.69,4.69,0,0,1-.18,1.3h-7a4,4,0,0,0,1,2.79,3.55,3.55,0,0,0,2.69,1,7.35,7.35,0,0,0,3.14-.81l.34,1.07a7.9,7.9,0,0,1-3.94,1.06,4.93,4.93,0,0,1-3.72-1.37A5.22,5.22,0,0,1,226.76,446.44Zm1.9-1.08H234l0-.3a2.8,2.8,0,0,0-.65-2,2.39,2.39,0,0,0-1.84-.69,2.49,2.49,0,0,0-1.9.8A4,4,0,0,0,228.66,445.36Z"/><path class="cls-2" d="M237.55,450.85l.38-1.21a9,9,0,0,0,3.24.66,2.91,2.91,0,0,0,1.71-.43,1.41,1.41,0,0,0,.6-1.24,1,1,0,0,0-.33-.78,2.15,2.15,0,0,0-.83-.47c-.33-.11-.71-.22-1.12-.32l-1.22-.32a5.33,5.33,0,0,1-1.12-.44,2.22,2.22,0,0,1-.83-.81,2.39,2.39,0,0,1-.32-1.25,2.77,2.77,0,0,1,1.07-2.24,4.27,4.27,0,0,1,2.77-.86,10.22,10.22,0,0,1,3.38.6l-.44,1.18a9,9,0,0,0-2.86-.53,2.39,2.39,0,0,0-1.52.46,1.41,1.41,0,0,0-.58,1.18,1.11,1.11,0,0,0,.25.74,1.57,1.57,0,0,0,.65.46,7.67,7.67,0,0,0,.91.27l1,.23a6.4,6.4,0,0,1,1.05.33,4.58,4.58,0,0,1,.91.47,2,2,0,0,1,.64.77,2.73,2.73,0,0,1,.24,1.18,2.8,2.8,0,0,1-1,2.31,4.58,4.58,0,0,1-2.93.83A9.13,9.13,0,0,1,237.55,450.85Z"/><path class="cls-2" d="M247.79,438.9a1.33,1.33,0,0,1,0-1.8,1.41,1.41,0,0,1,1.84,0,1.33,1.33,0,0,1,0,1.8,1.41,1.41,0,0,1-1.84,0Zm0,12.48v-10h1.82v10Z"/><path class="cls-2" d="M251.7,441.55v-.17h1.89l2.73,8.76,2.74-8.76h1.78v.17l-3.53,9.83h-2.19Z"/><path class="cls-2" d="M261.93,446.48a5.61,5.61,0,0,1,1.29-4,4.71,4.71,0,0,1,3.65-1.39,4.48,4.48,0,0,1,3.47,1.33,6.6,6.6,0,0,1-.06,7.76,5.31,5.31,0,0,1-7.1.06A5.38,5.38,0,0,1,261.93,446.48Zm1.87-.08a4.68,4.68,0,0,0,.76,2.88,2.52,2.52,0,0,0,2.15,1,2.63,2.63,0,0,0,2.22-1,4.61,4.61,0,0,0,.78-2.88,5,5,0,0,0-.74-2.93,2.45,2.45,0,0,0-2.1-1,2.73,2.73,0,0,0-2.27,1A4.61,4.61,0,0,0,263.8,446.4Z"/><path class="cls-2" d="M273.39,450.85l.38-1.21a9,9,0,0,0,3.24.66,2.91,2.91,0,0,0,1.71-.43,1.41,1.41,0,0,0,.6-1.24,1,1,0,0,0-.33-.78,2.15,2.15,0,0,0-.83-.47c-.33-.11-.71-.22-1.12-.32l-1.22-.32a5.13,5.13,0,0,1-1.12-.44,2.22,2.22,0,0,1-.83-.81,2.39,2.39,0,0,1-.32-1.25,2.77,2.77,0,0,1,1.07-2.24,4.27,4.27,0,0,1,2.77-.86,10.22,10.22,0,0,1,3.38.6l-.44,1.18a9,9,0,0,0-2.86-.53,2.39,2.39,0,0,0-1.52.46,1.41,1.41,0,0,0-.58,1.18,1.11,1.11,0,0,0,.25.74,1.57,1.57,0,0,0,.65.46,7.15,7.15,0,0,0,.91.27l1.05.23a6.4,6.4,0,0,1,1,.33,4.58,4.58,0,0,1,.91.47,2,2,0,0,1,.64.77,2.73,2.73,0,0,1,.24,1.18,2.8,2.8,0,0,1-1.05,2.31,4.58,4.58,0,0,1-2.93.83A9.13,9.13,0,0,1,273.39,450.85Z"/><path class="cls-2" d="M188.41,446.44a5.53,5.53,0,0,1,1.32-3.84,4.49,4.49,0,0,1,3.5-1.46,4.17,4.17,0,0,1,3,1.06,4,4,0,0,1,1.09,3,4.69,4.69,0,0,1-.18,1.3h-7a4,4,0,0,0,1,2.79,3.56,3.56,0,0,0,2.69,1,7.35,7.35,0,0,0,3.14-.81l.34,1.07a7.9,7.9,0,0,1-3.94,1.06,4.93,4.93,0,0,1-3.72-1.37A5.22,5.22,0,0,1,188.41,446.44Zm1.9-1.08h5.34l0-.3a2.8,2.8,0,0,0-.65-2,2.39,2.39,0,0,0-1.84-.69,2.49,2.49,0,0,0-1.9.8A4,4,0,0,0,190.31,445.36Z"/><path class="cls-2" d="M124.12,334.4a6.07,6.07,0,0,0,.7-1.36,4.45,4.45,0,0,0,.24-1.5,4.69,4.69,0,0,0-.33-1.72l1.66-.42a4.45,4.45,0,0,1,.33,1.78,5.8,5.8,0,0,1-1.61,3.76Z"/><polygon class="cls-3" points="198.91 64.13 203.53 99.64 174.47 96.63 168.16 73.12 198.91 64.13"/><polygon class="cls-4" points="221.57 70.89 198.91 64.12 204.01 103.35 215.69 92.01 221.57 70.89"/><path class="cls-5" d="M196.88,109.71c-3.33-.88-8-13.36-10.41-21.6l5.16,29.48,17.29-9c-5.34.94-10.18,1.58-12,1.09"/><path class="cls-6" d="M222,72.44,185.71,83.66l.75,4.45c2.41,8.24,7.09,20.72,10.42,21.6,1.86.49,6.7-.15,12-1.09l13.81-7.15Z"/><path class="cls-7" d="M170.37,81.59l-.31,0,4.76,19.18,15.77,15.81c-2.93-3.48-12.06-14.37-14.06-17-1.51-2-4.1-9.7-6.16-18"/><path class="cls-8" d="M185.71,83.66l-15.34-2.07c2.06,8.26,4.65,16,6.16,18,2,2.62,11.13,13.51,14.06,17l1,1Z"/><polygon class="cls-9" points="199.1 64.1 221.67 70.87 234.59 60.04 210.44 55.64 199.1 64.1"/><polygon class="cls-10" points="185.71 83.66 221.67 70.87 238.19 68.16 197.62 83.15 185.71 83.66"/><path class="cls-11" d="M185.7,83.66,168.3,73.1l-17.86-1.27c2.41,1.85,11.66,8.89,13.68,9.32s17.68,2.09,21.58,2.51"/><path class="cls-12" d="M164.12,81.15c-2-.43-11.27-7.47-13.68-9.32l-.41,0L163.27,83l22.44.66h0c-3.9-.42-19.55-2.09-21.58-2.51"/><path class="cls-13" d="M170.52,70.21c-3.54-.43-7.05-4.1-8.74-6.13l-.48.13,7,8.89,14.6-4.27c-5.26.92-10.34,1.64-12.38,1.38"/><path class="cls-14" d="M190.51,56.82l-28.73,7.26c1.69,2,5.2,5.7,8.74,6.13,2,.26,7.12-.46,12.38-1.38l16.2-4.73Z"/><rect class="cls-15" x="197.02" y="65.46" width="23.81" height="23.4" transform="translate(-7.76 25.66) rotate(-6.9)"/><ellipse class="cls-16" cx="207.56" cy="65.92" rx="11.9" ry="3.91" transform="translate(-6.42 25.41) rotate(-6.9)"/><ellipse class="cls-15" cx="210.32" cy="88.78" rx="11.9" ry="3.91" transform="translate(-9.14 25.91) rotate(-6.9)"/><ellipse class="cls-17" cx="207.56" cy="65.92" rx="4.1" ry="1.35" transform="translate(-6.42 25.41) rotate(-6.9)"/><path class="cls-18" d="M240,76.16,215.22,97.83l7.81,5a3,3,0,0,0,2.91.47c1.66-.64,27.95-9.57,27.95-9.57a4,4,0,0,0,1.21-.87l-.06,0Z"/><path class="cls-19" d="M240,76.16,255,92.8l.06,0a3.76,3.76,0,0,0,.92-1.55c.54-1.78,7.15-20,7.15-20a3.51,3.51,0,0,0,.08-2.17c-.34-1.21-2.61-9.79-2.61-9.79l-.34-.85Z"/><path class="cls-20" d="M260.3,58.43l-45.08,39.4,1.63,1,32.13-11a2.12,2.12,0,0,0,1.75-1.32c.44-1.09,8.42-20.67,10.38-25.46l-.47-1.77Z"/><path class="cls-21" d="M226.45,68.88a4.48,4.48,0,0,0-1.93,2c-.74,1.44-12.62,25.29-12.62,25.29s-1.5,3,.33,3.12,36.18-12.54,36.18-12.54A2.51,2.51,0,0,0,250,85.14C250.51,83.83,261,58.61,261,58.61s.43-1.82-1.33-1.74Z"/><path class="cls-19" d="M230.53,77.06l-8.19,17.53c10-3.55,24.51-8.87,24.51-8.87a4.64,4.64,0,0,0,2.62-2.25c.51-1.08,4.45-10.37,7.27-17.06-5.68,2-23.5,8.19-24.64,8.75A2.87,2.87,0,0,0,230.53,77.06Z"/><path class="cls-22" d="M225.52,70.61c-.56.88-12.33,25.13-12.33,25.13s-1,2,0,2c.34,0,4.18-1.35,9.15-3.12l8.19-17.53a2.68,2.68,0,0,1,.77-1.33L226,70A3.36,3.36,0,0,0,225.52,70.61Z"/><path class="cls-23" d="M259.58,57.88,226.85,69.47A2.58,2.58,0,0,0,226,70l5.26,5.72a3.14,3.14,0,0,1,.8-.56c1.14-.57,19-6.78,24.65-8.76l2.91-6.9S260.42,58.05,259.58,57.88Z"/><path class="cls-24" d="M253.14,69.62c-1.59.64-2.11,3.24-2.73,4.3s-1.45.82-1.7.24-.82-1-2.09-.14-1.05,1.83-.82,2.21.92.87.25,1.7-1.72-.73-2.47.43,1.09,1.87,1.2,2.63-1.35,1.64-2.37,1.77-.49-.87-.64-1.67-.49-.87-1.27-.17-.68-.51-.86-1.07-.74-1.09-2,.13-.26,2.39-.68,3.79-4.22,3-5.43,4.51.49,1.93,1.64,1.7a.85.85,0,0,1,1,.35c6.83-2.47,12.68-4.61,12.68-4.61a4.64,4.64,0,0,0,2.62-2.25c.42-.87,3.07-7.12,5.56-13A1.47,1.47,0,0,0,253.14,69.62Z"/><path class="cls-24" d="M228,88.94a1.55,1.55,0,0,0-.66.47,1.28,1.28,0,0,0-.56,1.3c.14.64.89.4,1.3.17a1.41,1.41,0,0,0,.7-1.63C228.71,88.89,228.34,88.84,228,88.94Z"/><path class="cls-24" d="M232.17,80.66a.85.85,0,0,0-.78.2h0l-.24.17-.06.06-.16.1a1.13,1.13,0,0,0-.28.34,1.44,1.44,0,0,0-.22.92c.29.89,1.14.17,1.54-.22S232.85,80.93,232.17,80.66Z"/><path class="cls-24" d="M240.27,76.54a2.77,2.77,0,0,1-2,1.38c-.68.06-1-.39-.76-1A2.11,2.11,0,0,1,239,75.64C239.74,75.4,240.87,75.61,240.27,76.54Z"/><path class="cls-24" d="M234.28,81.46a.48.48,0,0,1-.24.18.16.16,0,0,1-.19,0l.05-.07s0-.06,0-.09.07-.13.13-.18.18-.09.24,0S234.3,81.4,234.28,81.46Z"/><path class="cls-25" d="M231.7,81.09c-.24-.12-.58.14-.74.28a.38.38,0,0,0-.09.09s0,0-.07.05a1.32,1.32,0,0,0-.18.33c-.05.18-.12.55.06.69s.51,0,.72-.14a1.32,1.32,0,0,0,.5-.76A.47.47,0,0,0,231.7,81.09Z"/><path class="cls-25" d="M228.21,89.36a.73.73,0,0,0-.82.22l-.11.14a1,1,0,0,0-.19.26.71.71,0,0,0-.09.36c0,.18,0,.34.14.41.37.4,1.07-.42,1.19-.75S228.42,89.49,228.21,89.36Z"/><polygon class="cls-25" points="228.54 89.4 228.54 89.4 228.54 89.4 228.54 89.4"/><path class="cls-25" d="M228.49,89.24c0,.05,0,.17,0,.16s.07-.08.05-.12S228.53,89.19,228.49,89.24Z"/><path class="cls-25" d="M232,81s0,.1.09.09a.12.12,0,0,0,.05-.15C232.07,80.79,231.94,80.88,232,81Z"/><path class="cls-25" d="M234,81.38c-.06.05,0,.21.05.15S234.12,81.32,234,81.38Z"/><path class="cls-25" d="M238.87,76.13a1.18,1.18,0,0,0-1,.39.94.94,0,0,0-.33.67c0,.57.9.11,1.09-.06S239.41,76.28,238.87,76.13Z"/><path class="cls-25" d="M239.87,75.94a.13.13,0,0,0-.15.09c-.08.14.07.29.15.18a.19.19,0,0,0,.06-.07C240,76.07,240,76,239.87,75.94Z"/><path class="cls-25" d="M240.43,81.29a3.71,3.71,0,0,0-.27.29c-.68.72-.76-.56-.79-.73a1,1,0,0,0-1-.92c-.4,0-.91.68-1,1.06a2.26,2.26,0,0,0,0,.86,6.23,6.23,0,0,1,.09.74c-.07.53-.09,1-.09,1-.48,1.93-2.77,2.64-4.24,3.59-.45.28-1.42.87-1.51,1.52-.15.28.07.64.44.8.54.23,1.37-.1,1.93-.08.23,0,.42.18.64.2a2.49,2.49,0,0,0,1-.32c.87-.37,2.86-1,3.35-2a.68.68,0,0,0,0-.7c-.45-.61-1.17-.91-1.15-1.65a2.78,2.78,0,0,1,.14-.44c.47-1.1,1.45-.14,1.87.39.3.37.79.1,1.11-.07a1.14,1.14,0,0,0,.45-1.34,2,2,0,0,0,0-.25,5.81,5.81,0,0,1-.16-1.32,3.07,3.07,0,0,0,0-.8C241.19,80.64,240.82,80.86,240.43,81.29Z"/><path class="cls-25" d="M253.37,70.28l-.16,0c-.44-.06-.81.46-1,.77a5.09,5.09,0,0,0-.61,1.49,4.11,4.11,0,0,1-.52,1.42,6.64,6.64,0,0,1-.74.76,1.5,1.5,0,0,1-.68.31c-1.06.26-1.46-1-2.39-1A1.63,1.63,0,0,0,246,75c-.38.86.54,1.65.48,2.52a1.07,1.07,0,0,1-1,1c-.47.06-1-.22-1.45,0-.23.12-.21.44-.15.63a.85.85,0,0,0,.28.37l.2.23a5,5,0,0,0,.58.54c.48.46.07,1.06-.28,1.44a4.6,4.6,0,0,1-.62.55,3.6,3.6,0,0,0-.88.6c-.56.8,1.12.74,1.46.66,1.07-.28.28,1.21.2,1.44a.71.71,0,0,0,.11.55c.23.45,1.16-.17,1.39-.31.88-.52,1.86-.94,2.16-2a1.26,1.26,0,0,0,0-.72.94.94,0,0,0-.19-.32c-.85-.9.34-1.92.87-2.36A10.43,10.43,0,0,0,252,76.14c.27-.6.46-1.23.74-1.83s.64-1.15.86-1.77S254.25,70.59,253.37,70.28Z"/><path class="cls-25" d="M242.93,84a1.93,1.93,0,0,0-1.45.88.83.83,0,0,0,0,.92c.45.71,1.65,0,2-.4S243.72,83.92,242.93,84Z"/><path class="cls-25" d="M240.78,85.73c-.16-.07-.26.11-.23.25s0,.2.15.18a.19.19,0,0,0,.18-.14C240.9,85.92,240.88,85.77,240.78,85.73Z"/><path class="cls-26" d="M227.57,89.55a1,1,0,0,0-.46.51.62.62,0,0,0,0,.5.21.21,0,0,0,.21.14c.05,0,.05-.07,0-.1s0-.4,0-.56a2.52,2.52,0,0,1,.12-.29,1.62,1.62,0,0,0,.1-.18S227.59,89.54,227.57,89.55Z"/><path class="cls-26" d="M232.66,87.76l-.16.07h0a1.31,1.31,0,0,0-.68.73.63.63,0,0,0,0,.52c.14.18.31.18.49.29,0,0,0,0,0-.06l0-.06s0,0,0,0v0l-.09-.1a.41.41,0,0,1-.07-.51,1.76,1.76,0,0,1,.55-.82S232.68,87.75,232.66,87.76Z"/><path class="cls-26" d="M238.2,80.21a.88.88,0,0,0-.6.57.13.13,0,0,0,0,.06.05.05,0,0,0,0,0,2.09,2.09,0,0,0-.06.66,6,6,0,0,1,0,2.5.14.14,0,0,0,0,.06s0,.06,0,0A1.89,1.89,0,0,0,238,83a6.33,6.33,0,0,0-.2-1.68,1.38,1.38,0,0,1,.45-1.07S238.23,80.21,238.2,80.21Z"/><path class="cls-26" d="M245.41,80.48s-.06,0,0,.07a.87.87,0,0,1-.07.88,2.24,2.24,0,0,1-.61.79s0,0,0,0h0c.26.1.68-.47.8-.65a.86.86,0,0,0,.12-.76A.72.72,0,0,0,245.41,80.48Z"/><path class="cls-26" d="M247.07,74.24a1.17,1.17,0,0,0-.92,1.09.43.43,0,0,1,0,.11,2.12,2.12,0,0,0,.39,1.27s0,0,0,0a3.42,3.42,0,0,1-.2-1.14.89.89,0,0,1,0-.22,2.38,2.38,0,0,1,.7-1.08Z"/><path class="cls-26" d="M251.46,73.6a5.24,5.24,0,0,1-.53.71c-.19.21-.45.57-.73.64,0,0,0,0,0,0,.3.07.57-.16.77-.36a1.74,1.74,0,0,0,.54-1S251.49,73.56,251.46,73.6Z"/><path class="cls-26" d="M231.09,81.41a1.13,1.13,0,0,0-.42.61.54.54,0,0,0,0,.31c0,.12.12.14.24.18s0,0,0-.05c-.19-.21-.07-.51,0-.75,0,0,0,0,0,0l.16-.27S231.09,81.41,231.09,81.41Z"/><path class="cls-26" d="M238.25,76.37a.9.9,0,0,0-.49.45.41.41,0,0,0,.05.53s0,0,0,0c-.17-.36.24-.68.42-.94C238.26,76.38,238.26,76.36,238.25,76.37Z"/><path class="cls-20" d="M232.77,75a4.38,4.38,0,0,0-.81.43L226.5,70.6,231,76.22a3,3,0,0,0-.52.85l-7.75,16.66s7.4-15.18,7.94-16.25a4.81,4.81,0,0,1,1.53-1.86c.33-.2,3.06-1.62,3.06-1.62Z"/><path class="cls-27" d="M227.18,69.35l31.22-11S230.77,67.51,227.18,69.35Z"/><path class="cls-27" d="M213.39,95.29l11.73-23.86S216.69,89.61,213.39,95.29Z"/><polygon class="cls-28" points="187.94 132.15 258.53 93.53 256.35 89.55 186.89 127.55 187.94 132.15"/><rect class="cls-29" x="188.89" y="108.46" width="27.71" height="5.1" transform="translate(-28.4 110.94) rotate(-28.68)"/><rect class="cls-29" x="221.88" y="90.15" width="28.67" height="5.1" transform="translate(-15.5 124.76) rotate(-28.68)"/><rect class="cls-30" x="192.01" y="115.45" width="27.74" height="2.51" transform="translate(-30.75 113.14) rotate(-28.68)"/><rect class="cls-30" x="225.88" y="96.92" width="27.74" height="2.51" transform="translate(-17.7 127.12) rotate(-28.68)"/><rect class="cls-31" x="158.1" y="203.64" width="10.76" height="23.83" rx="2.68" ry="2.68"/><rect class="cls-31" x="250.75" y="203.64" width="10.76" height="23.83" rx="2.68" ry="2.68"/><path class="cls-32" d="M262.57,94.47c0-.18,0-.41,0-.53H157.05c0,.12,0,.35,0,.53l.21,4.13,104.54,11.65Z"/><path class="cls-33" d="M157.25,98.6,163,215a13.16,13.16,0,0,0,13.15,13.16h67.23A13.16,13.16,0,0,0,256.57,215l5.22-104.79Z"/><path class="cls-33" d="M266.83,93.07a3.68,3.68,0,0,1-3.65,3.65H156.43a3.59,3.59,0,0,1-3.54-3.65V88a3.49,3.49,0,0,1,3.54-3.53H263.18A3.59,3.59,0,0,1,266.83,88Z"/><path class="cls-27" d="M215.6,144l-5.27,3.71,6.91-.82.31,0,.88-.1,6.14-.74,2.64-5.28.27-.55,3.5-7L225.62,137,221,129c-1.24-1.91-2.55-2.75-3.83-2.88C214.9,126,212.59,128,211,130c-.45.57-.86,1.15-1.23,1.7-.14.21-.28.43-.4.63.12.26.26.54.4.83l.62,1.23c1.35,2.62,3.2,6,5.26,9.62"/><path class="cls-27" d="M229.54,169.28c-.68-.05-1.45-.1-2.3-.14-3-.14-6.78-.22-11-.26l-.58-6.41L213,168.86l-.12.28-.35.82-2.43,5.69,3.25,4.92.34.51,4.31,6.53-.58-6.53h9.24c2.28-.11,3.65-.82,4.41-1.87,1.23-1.91.62-4.93-.29-7.35a24.17,24.17,0,0,0-1.2-2.58"/><path class="cls-27" d="M240.12,165a3,3,0,0,0-.24-1.38l-.11-.19-8.22-14.24-9.49,5c.59,1,1.31,2.25,2.06,3.59l5.19,9c.19.28.61.95,1.11,1.87h0l.15.28a21.07,21.07,0,0,1,1.2,2.64,11.36,11.36,0,0,1,1,6.14Z"/><path class="cls-27" d="M209.72,129.79l.44-.55a11.38,11.38,0,0,1,4.82-3.91H200.29a3.09,3.09,0,0,0-1.07.9l-.12.19-8.22,14.24,9.11,5.7c.56-1,1.29-2.25,2.08-3.58l5.18-9c.16-.3.53-1,1.07-1.89v0l.16-.27c.33-.53.75-1.16,1.25-1.81"/><path class="cls-27" d="M186.74,169.31a25.69,25.69,0,0,0,2.83.25c.39-.57.81-1.21,1.27-1.92,1.6-2.48,3.59-5.76,5.71-9.36l5.84,2.7-4.17-5.57-.18-.24-.53-.71-3.71-5-5.89.36-.61,0-7.81.47,5.94,2.76-4.62,8c-1,2-1.11,3.58-.58,4.75,1,2,4,3,6.51,3.43"/><path class="cls-27" d="M202.24,170.62H191.86c-.33,0-1.13,0-2.17,0l0,0h-.32a21,21,0,0,1-2.88-.28,11.44,11.44,0,0,1-5.8-2.22L188,180.88a3.07,3.07,0,0,0,1.32.48H206l.39-10.73c-1.15,0-2.6,0-4.14,0"/></g></g></svg>