<svg id="Camada_1" data-name="Camada 1" xmlns="http://www.w3.org/2000/svg" viewBox="0 0 400.7 492.63"><defs><style>.cls-1{fill:#494847;}.cls-2{fill:#d9d9d9;}.cls-3{fill:#939292;}.cls-4{fill:#648182;}.cls-5{fill:#d36c3e;}.cls-6{fill:#010101;}.cls-7{fill:#e06612;}.cls-8{fill:#f47920;}.cls-9{fill:#fff;}</style></defs><title>cxsdelixo</title><path class="cls-1" d="M136.37,274.48v-14h3.2v11.64h6.35v2.37Z"/><path class="cls-1" d="M147.32,261.26a1.7,1.7,0,0,1,.52-1.31,2.16,2.16,0,0,1,2.74,0,1.7,1.7,0,0,1,.52,1.31,1.73,1.73,0,0,1-.52,1.32,1.85,1.85,0,0,1-1.37.5,1.89,1.89,0,0,1-1.37-.5A1.76,1.76,0,0,1,147.32,261.26Zm.32,13.22v-10h3.12v10Z"/><path class="cls-1" d="M152.13,274.48v-.27l3.71-4.67-3.58-4.82v-.24h3.54l2,3.09,1.94-3.09h3.18v.24L159,269.4l3.56,4.81v.27h-3.48l-1.94-3-1.8,3Z"/><path class="cls-1" d="M162.88,269.63a5.63,5.63,0,0,1,1.33-4,4.87,4.87,0,0,1,3.76-1.44,5,5,0,0,1,3.7,1.33A5.28,5.28,0,0,1,173,269.4a5.48,5.48,0,0,1-1.34,3.93,4.88,4.88,0,0,1-3.72,1.43,5,5,0,0,1-3.73-1.32A5.15,5.15,0,0,1,162.88,269.63Zm3.19-.11a4.39,4.39,0,0,0,.47,2.25,1.64,1.64,0,0,0,2.77,0,4.28,4.28,0,0,0,.48-2.25c0-2.07-.6-3.1-1.82-3.1S166.07,267.45,166.07,269.52Z"/><path class="cls-1" d="M179,274.48v-10h2l.36.65a4.55,4.55,0,0,1,2.84-.94,3.15,3.15,0,0,1,1.2.25l-.33,2.25a5,5,0,0,0-1.14-.13,4.24,4.24,0,0,0-1.77.34v7.58Z"/><path class="cls-1" d="M185.77,269.58a5.34,5.34,0,0,1,1.45-3.89,5,5,0,0,1,3.78-1.5,4.49,4.49,0,0,1,3.19,1.09,4,4,0,0,1,1.16,3,5.33,5.33,0,0,1-.26,1.77h-6.15c.23,1.63,1.27,2.44,3.13,2.44a8,8,0,0,0,2.83-.55l.49,1.76a9.7,9.7,0,0,1-4.27,1,5.41,5.41,0,0,1-3.93-1.38A5,5,0,0,1,185.77,269.58Zm3.25-1.32h3.49V268c0-1.22-.52-1.83-1.57-1.83a1.63,1.63,0,0,0-1.23.54A3.1,3.1,0,0,0,189,268.26Z"/><path class="cls-1" d="M196.76,269.69a5.37,5.37,0,0,1,1.54-4,5.53,5.53,0,0,1,4-1.51,11.57,11.57,0,0,1,2.78.35l-.46,2.11a8.41,8.41,0,0,0-1.84-.23,2.67,2.67,0,0,0-2.07.87,3.19,3.19,0,0,0-.79,2.24,3,3,0,0,0,.76,2.2,3,3,0,0,0,2.2.76,7.4,7.4,0,0,0,1.9-.28l.44,1.9a8.43,8.43,0,0,1-3.26.65,5.34,5.34,0,0,1-3.87-1.32A5,5,0,0,1,196.76,269.69Z"/><path class="cls-1" d="M206.53,261.26a1.7,1.7,0,0,1,.52-1.31,2.16,2.16,0,0,1,2.74,0,1.7,1.7,0,0,1,.52,1.31,1.73,1.73,0,0,1-.52,1.32,1.86,1.86,0,0,1-1.38.5,1.88,1.88,0,0,1-1.36-.5A1.76,1.76,0,0,1,206.53,261.26Zm.32,13.22v-10H210v10Z"/><path class="cls-1" d="M211.81,269.69a5.33,5.33,0,0,1,1.54-4,5.53,5.53,0,0,1,4-1.51,11.57,11.57,0,0,1,2.78.35l-.46,2.11a8.41,8.41,0,0,0-1.84-.23,2.67,2.67,0,0,0-2.07.87,3.19,3.19,0,0,0-.79,2.24,3,3,0,0,0,.76,2.2,3,3,0,0,0,2.19.76,7.41,7.41,0,0,0,1.91-.28l.44,1.9a8.43,8.43,0,0,1-3.26.65,5.34,5.34,0,0,1-3.87-1.32A5,5,0,0,1,211.81,269.69Z"/><path class="cls-1" d="M221.9,271.75V259.48H225v11.74a1.32,1.32,0,0,0,.33,1,1.57,1.57,0,0,0,1.05.3,2.13,2.13,0,0,0,.52-.07l.16,1.84a5.05,5.05,0,0,1-2.14.46Q221.9,274.76,221.9,271.75Z"/><path class="cls-1" d="M227.9,271.82a3,3,0,0,1,1.1-2.45,5,5,0,0,1,3.12-.87h1.56v-.26a1.39,1.39,0,0,0-.46-1.18,2.42,2.42,0,0,0-1.5-.37,14.41,14.41,0,0,0-3.26.53l-.39-2.13a13.51,13.51,0,0,1,4.55-.9,4.66,4.66,0,0,1,3.1.92,3.23,3.23,0,0,1,1.07,2.61v6.76h-2l-.42-.64a5.11,5.11,0,0,1-3,.92,3.87,3.87,0,0,1-2.55-.8A2.65,2.65,0,0,1,227.9,271.82Zm3-.29a1.18,1.18,0,0,0,.38.91,1.45,1.45,0,0,0,1,.34,3.45,3.45,0,0,0,1.35-.29v-2.37h-1.12a1.75,1.75,0,0,0-1.19.38A1.34,1.34,0,0,0,230.94,271.53Zm.42-9.49,3.35-3.8L236.6,260l-3.89,3.26Z"/><path class="cls-1" d="M238,264.72v-.24h3.28l1.88,8,1.88-8h3.12v.24L245,274.48h-3.86Z"/><path class="cls-1" d="M248.71,269.58a5.34,5.34,0,0,1,1.45-3.89,5,5,0,0,1,3.78-1.5,4.49,4.49,0,0,1,3.19,1.09,4,4,0,0,1,1.16,3,5.33,5.33,0,0,1-.26,1.77h-6.15c.23,1.63,1.27,2.44,3.13,2.44a8,8,0,0,0,2.83-.55l.49,1.76a9.7,9.7,0,0,1-4.27,1,5.41,5.41,0,0,1-3.93-1.38A5,5,0,0,1,248.71,269.58Zm3.25-1.32h3.49V268c0-1.22-.53-1.83-1.57-1.83a1.63,1.63,0,0,0-1.23.54A3,3,0,0,0,252,268.26Z"/><path class="cls-1" d="M260.22,271.75V259.48h3.12v11.74a1.32,1.32,0,0,0,.33,1,1.57,1.57,0,0,0,1.05.3,2.13,2.13,0,0,0,.52-.07l.16,1.84a5.05,5.05,0,0,1-2.14.46Q260.22,274.76,260.22,271.75Z"/><path class="cls-1" d="M78.2,304.48v-14h4.72a4.78,4.78,0,0,1,3.33,1.07,3.9,3.9,0,0,1,1.18,3,4,4,0,0,1-1.22,3.11,4.81,4.81,0,0,1-3.37,1.11H80.06v5.68Zm1.86-7.08h2.68a2.59,2.59,0,0,0,2.78-2.8,2.72,2.72,0,0,0-.71-2,2.79,2.79,0,0,0-2-.71H80.06Z"/><path class="cls-1" d="M89.11,301.85a2.81,2.81,0,0,1,1-2.33,4.56,4.56,0,0,1,2.91-.82h2.16v-.93a2,2,0,0,0-.58-1.58,2.7,2.7,0,0,0-1.83-.51,12.66,12.66,0,0,0-3.29.52l-.24-1.27a14.57,14.57,0,0,1,4-.7q3.8,0,3.79,3.3v7h-1.2l-.27-.69a5.47,5.47,0,0,1-3.08.93,3.64,3.64,0,0,1-2.45-.79A2.62,2.62,0,0,1,89.11,301.85Zm1.77-.14a1.67,1.67,0,0,0,.56,1.3,2.17,2.17,0,0,0,1.5.49,4.61,4.61,0,0,0,2.27-.63v-3.15H93.28a2.71,2.71,0,0,0-1.77.52A1.81,1.81,0,0,0,90.88,301.71Z"/><path class="cls-1" d="M99.85,309.48v-15H101l.3.8a4.87,4.87,0,0,1,3-1,4.25,4.25,0,0,1,3.34,1.32,5.43,5.43,0,0,1,1.18,3.77,5.83,5.83,0,0,1-1.26,3.95,4.31,4.31,0,0,1-3.43,1.45,5.11,5.11,0,0,1-2.52-.6v5.36Zm1.82-6.78a4.1,4.1,0,0,0,2.32.69,2.67,2.67,0,0,0,2.24-1.09,4.67,4.67,0,0,0,.84-2.92,4.47,4.47,0,0,0-.78-2.82,2.68,2.68,0,0,0-2.24-1,3.43,3.43,0,0,0-1.22.21,5,5,0,0,0-1.16.63Z"/><path class="cls-1" d="M110.66,299.54A5.47,5.47,0,0,1,112,295.7a4.47,4.47,0,0,1,3.49-1.47,4.17,4.17,0,0,1,3,1.07,4,4,0,0,1,1.1,3,4.57,4.57,0,0,1-.19,1.29h-7a4,4,0,0,0,1,2.8,3.56,3.56,0,0,0,2.69,1,7.33,7.33,0,0,0,3.14-.8l.34,1.07a7.9,7.9,0,0,1-3.94,1.06,5,5,0,0,1-3.72-1.37A5.23,5.23,0,0,1,110.66,299.54Zm1.9-1.08h5.35l0-.3a2.84,2.84,0,0,0-.65-2,2.42,2.42,0,0,0-1.85-.7,2.52,2.52,0,0,0-1.9.81A4,4,0,0,0,112.56,298.46Zm1.86-6.35,3.54-3.45,1.11,1.06-3.83,3.12Z"/><path class="cls-1" d="M122.14,292a1.33,1.33,0,0,1,0-1.8,1.26,1.26,0,0,1,.92-.34,1.25,1.25,0,0,1,.92.34,1.33,1.33,0,0,1,0,1.8,1.25,1.25,0,0,1-.92.34A1.26,1.26,0,0,1,122.14,292Zm0,12.48v-10H124v10Z"/><path class="cls-1" d="M126.65,304l.38-1.21a9,9,0,0,0,3.24.65A2.92,2.92,0,0,0,132,303a1.42,1.42,0,0,0,.59-1.25,1,1,0,0,0-.32-.77,2.15,2.15,0,0,0-.83-.47c-.34-.11-.71-.22-1.12-.32l-1.22-.32a4.68,4.68,0,0,1-1.12-.45,2.12,2.12,0,0,1-.83-.8,2.39,2.39,0,0,1-.32-1.25,2.76,2.76,0,0,1,1.07-2.24,4.25,4.25,0,0,1,2.77-.87,10.24,10.24,0,0,1,3.38.61l-.44,1.18a9.08,9.08,0,0,0-2.86-.53,2.34,2.34,0,0,0-1.52.46,1.41,1.41,0,0,0-.58,1.18,1.11,1.11,0,0,0,.25.74,1.6,1.6,0,0,0,.64.46,6.35,6.35,0,0,0,.92.26l1.05.24a7.49,7.49,0,0,1,1,.32,5.19,5.19,0,0,1,.91.48,2,2,0,0,1,.64.77,2.73,2.73,0,0,1,.24,1.18,2.8,2.8,0,0,1-1.05,2.31,4.66,4.66,0,0,1-2.93.83A9.29,9.29,0,0,1,126.65,304Z"/><path class="cls-1" d="M135.3,307.72a6.29,6.29,0,0,0,.7-1.36,4.65,4.65,0,0,0-.1-3.22l1.66-.42a4.28,4.28,0,0,1,.34,1.78,5.82,5.82,0,0,1-1.61,3.76Z"/><path class="cls-1" d="M144.21,299.54a5.52,5.52,0,0,1,1.33-3.84,4.49,4.49,0,0,1,3.49-1.47,4.2,4.2,0,0,1,3.05,1.07,4,4,0,0,1,1.09,3,4.24,4.24,0,0,1-.19,1.29H146a4,4,0,0,0,1,2.8,3.54,3.54,0,0,0,2.69,1,7.33,7.33,0,0,0,3.14-.8l.34,1.07a7.93,7.93,0,0,1-3.94,1.06,4.94,4.94,0,0,1-3.72-1.37A5.24,5.24,0,0,1,144.21,299.54Zm1.91-1.08h5.34l0-.3a2.84,2.84,0,0,0-.65-2,2.41,2.41,0,0,0-1.84-.7,2.5,2.5,0,0,0-1.9.81A4,4,0,0,0,146.12,298.46Z"/><path class="cls-1" d="M155.53,304.48v-10h1.19l.31.8a5.82,5.82,0,0,1,3.24-1,3.45,3.45,0,0,1,2.91,1.11,6,6,0,0,1,3.52-1.11,3.72,3.72,0,0,1,2.57.81,3,3,0,0,1,.9,2.36v7.08h-1.81v-6.91a1.84,1.84,0,0,0-.57-1.47,2.37,2.37,0,0,0-1.61-.5,5.13,5.13,0,0,0-2.53.69,4.61,4.61,0,0,1,.12,1.09v7.1H162v-6.93a1.93,1.93,0,0,0-.53-1.47,2.43,2.43,0,0,0-1.65-.48,4.77,4.77,0,0,0-2.42.69v8.19Z"/><path class="cls-1" d="M173,304.48v-15h1.82v5.35a6.48,6.48,0,0,1,2.67-.58,4.2,4.2,0,0,1,3.34,1.35,5.57,5.57,0,0,1,1.19,3.79,5.67,5.67,0,0,1-1.27,3.92,4.37,4.37,0,0,1-3.47,1.43,4.43,4.43,0,0,1-2.86-.94l-.3.7Zm1.82-2a3.9,3.9,0,0,0,2.27.83,2.8,2.8,0,0,0,2.31-1,4.66,4.66,0,0,0,.8-2.94,4.39,4.39,0,0,0-.8-2.81,2.71,2.71,0,0,0-2.26-1,4.83,4.83,0,0,0-2.32.62Z"/><path class="cls-1" d="M183.78,301.85a2.81,2.81,0,0,1,1-2.33,4.56,4.56,0,0,1,2.91-.82h2.16v-.93a2,2,0,0,0-.58-1.58,2.7,2.7,0,0,0-1.83-.51,12.79,12.79,0,0,0-3.3.52l-.23-1.27a14.57,14.57,0,0,1,4-.7c2.52,0,3.79,1.1,3.79,3.3v7h-1.2l-.28-.69a5.41,5.41,0,0,1-3.07.93,3.63,3.63,0,0,1-2.45-.79A2.59,2.59,0,0,1,183.78,301.85Zm1.77-.14a1.67,1.67,0,0,0,.56,1.3,2.17,2.17,0,0,0,1.5.49,4.61,4.61,0,0,0,2.27-.63v-3.15H188a2.76,2.76,0,0,0-1.78.52A1.83,1.83,0,0,0,185.55,301.71Z"/><path class="cls-1" d="M194.52,302.26V289.48h1.81V302a1.18,1.18,0,0,0,1.36,1.39,2.23,2.23,0,0,0,.86-.17l.15,1.1a4.42,4.42,0,0,1-1.8.4,2.39,2.39,0,0,1-1.77-.61A2.49,2.49,0,0,1,194.52,302.26Z"/><path class="cls-1" d="M199.85,301.85a2.84,2.84,0,0,1,1-2.33,4.58,4.58,0,0,1,2.91-.82H206v-.93a2,2,0,0,0-.57-1.58,2.74,2.74,0,0,0-1.83-.51,12.66,12.66,0,0,0-3.3.52l-.24-1.27a14.63,14.63,0,0,1,4-.7q3.78,0,3.78,3.3v7h-1.19l-.28-.69a5.44,5.44,0,0,1-3.08.93,3.6,3.6,0,0,1-2.44-.79A2.6,2.6,0,0,1,199.85,301.85Zm1.78-.14a1.66,1.66,0,0,0,.55,1.3,2.2,2.2,0,0,0,1.5.49,4.58,4.58,0,0,0,2.27-.63v-3.15H204a2.72,2.72,0,0,0-1.78.52A1.8,1.8,0,0,0,201.63,301.71Z"/><path class="cls-1" d="M209.83,306.66a2.39,2.39,0,0,1,.55-1.57,3,3,0,0,1,1.39-.95,2,2,0,0,1-.26-2.42,2.12,2.12,0,0,1,.8-.74,3.26,3.26,0,0,1-2.08-3.18,3.26,3.26,0,0,1,1.18-2.64,4.76,4.76,0,0,1,3.18-1,5.75,5.75,0,0,1,2.5.49l3.26-.19v1.26l-2,.11a4,4,0,0,1,.43,1.87,3.24,3.24,0,0,1-1.17,2.65,4.88,4.88,0,0,1-3.21,1,5.43,5.43,0,0,1-1-.08,1.32,1.32,0,0,0-.66,1.11c0,.58.42.88,1.26.88H216a4.22,4.22,0,0,1,2.65.74,2.38,2.38,0,0,1,1,2,3.17,3.17,0,0,1-1.39,2.74,6.54,6.54,0,0,1-3.82,1,6.12,6.12,0,0,1-3.41-.81A2.58,2.58,0,0,1,209.83,306.66Zm1.66-.18a1.7,1.7,0,0,0,.78,1.48,3.78,3.78,0,0,0,2.18.54,4.58,4.58,0,0,0,2.47-.59,1.82,1.82,0,0,0,.93-1.58,1.23,1.23,0,0,0-.55-1.08,2.77,2.77,0,0,0-1.56-.37h-1.69a3.93,3.93,0,0,1-1.34-.21,2.3,2.3,0,0,0-.9.75A1.84,1.84,0,0,0,211.49,306.48Zm.56-8.72a2.42,2.42,0,0,0,.63,1.78,2.31,2.31,0,0,0,1.73.64,2.58,2.58,0,0,0,1.84-.64,2.35,2.35,0,0,0,.67-1.78,2.49,2.49,0,0,0-.6-1.81,2.28,2.28,0,0,0-1.73-.62,2.58,2.58,0,0,0-1.86.64A2.31,2.31,0,0,0,212.05,297.76Z"/><path class="cls-1" d="M221.36,299.54a5.52,5.52,0,0,1,1.33-3.84,4.49,4.49,0,0,1,3.49-1.47,4.2,4.2,0,0,1,3,1.07,4.08,4.08,0,0,1,1.09,3,4.24,4.24,0,0,1-.19,1.29h-6.95a4,4,0,0,0,1,2.8,3.57,3.57,0,0,0,2.69,1,7.37,7.37,0,0,0,3.15-.8l.34,1.07a7.93,7.93,0,0,1-3.94,1.06,4.94,4.94,0,0,1-3.72-1.37A5.24,5.24,0,0,1,221.36,299.54Zm1.91-1.08h5.34l0-.3a2.84,2.84,0,0,0-.65-2,2.42,2.42,0,0,0-1.85-.7,2.5,2.5,0,0,0-1.89.81A4,4,0,0,0,223.27,298.46Z"/><path class="cls-1" d="M232.68,304.48v-10h1.19l.29.78a6.34,6.34,0,0,1,1.62-.74,6.1,6.1,0,0,1,1.81-.29,3.74,3.74,0,0,1,2.6.79,2.89,2.89,0,0,1,.88,2.3v7.16h-1.82v-6.93a1.89,1.89,0,0,0-.53-1.47,2.42,2.42,0,0,0-1.66-.48,5.5,5.5,0,0,0-2.56.69v8.19Z"/><path class="cls-1" d="M243.37,304l.38-1.21a9,9,0,0,0,3.24.65,2.92,2.92,0,0,0,1.71-.42,1.42,1.42,0,0,0,.59-1.25A1,1,0,0,0,249,301a2.15,2.15,0,0,0-.83-.47c-.34-.11-.71-.22-1.12-.32l-1.22-.32a4.94,4.94,0,0,1-1.13-.45,2.17,2.17,0,0,1-.82-.8,2.39,2.39,0,0,1-.32-1.25,2.76,2.76,0,0,1,1.07-2.24,4.25,4.25,0,0,1,2.77-.87,10.24,10.24,0,0,1,3.38.61l-.44,1.18a9.08,9.08,0,0,0-2.86-.53,2.38,2.38,0,0,0-1.53.46,1.43,1.43,0,0,0-.57,1.18,1.15,1.15,0,0,0,.24.74,1.63,1.63,0,0,0,.65.46,6.35,6.35,0,0,0,.92.26l1.05.24a7.49,7.49,0,0,1,1,.32,5.19,5.19,0,0,1,.91.48,2,2,0,0,1,.64.77,2.73,2.73,0,0,1,.24,1.18,2.8,2.8,0,0,1-1.05,2.31,4.66,4.66,0,0,1-2.93.83A9.29,9.29,0,0,1,243.37,304Z"/><path class="cls-1" d="M252,307.72a6.77,6.77,0,0,0,.7-1.36,4.45,4.45,0,0,0,.24-1.5,4.66,4.66,0,0,0-.34-1.72l1.66-.42a4.45,4.45,0,0,1,.34,1.78,5.79,5.79,0,0,1-1.62,3.76Z"/><path class="cls-1" d="M261.56,304.48v-10h1.19l.3.8a5.84,5.84,0,0,1,3.24-1,3.46,3.46,0,0,1,2.92,1.11,6,6,0,0,1,3.51-1.11,3.73,3.73,0,0,1,2.58.81,3,3,0,0,1,.9,2.36v7.08h-1.82v-6.91a1.87,1.87,0,0,0-.56-1.47,2.39,2.39,0,0,0-1.61-.5,5.16,5.16,0,0,0-2.54.69,4.61,4.61,0,0,1,.12,1.09v7.1H268v-6.93a1.89,1.89,0,0,0-.53-1.47,2.38,2.38,0,0,0-1.64-.48,4.77,4.77,0,0,0-2.42.69v8.19Z"/><path class="cls-1" d="M278.4,299.54a5.52,5.52,0,0,1,1.33-3.84,4.49,4.49,0,0,1,3.49-1.47,4.2,4.2,0,0,1,3,1.07,4,4,0,0,1,1.09,3,4.24,4.24,0,0,1-.19,1.29h-6.95a4,4,0,0,0,1,2.8,3.58,3.58,0,0,0,2.7,1,7.36,7.36,0,0,0,3.14-.8l.34,1.07a7.93,7.93,0,0,1-3.94,1.06,4.94,4.94,0,0,1-3.72-1.37A5.24,5.24,0,0,1,278.4,299.54Zm1.91-1.08h5.34l0-.3a2.84,2.84,0,0,0-.65-2,2.42,2.42,0,0,0-1.85-.7,2.5,2.5,0,0,0-1.89.81A4,4,0,0,0,280.31,298.46Z"/><path class="cls-1" d="M288.44,295.56v-1.08h1.68l.42-3h1.4v3h3v1.22h-3v5.9a1.59,1.59,0,0,0,1.79,1.79,3.25,3.25,0,0,0,1.47-.31l.16,1.11a5.24,5.24,0,0,1-2.36.53,2.91,2.91,0,0,1-2.13-.73,2.87,2.87,0,0,1-.75-2.13l0-6.16Z"/><path class="cls-1" d="M296.58,301.85a2.81,2.81,0,0,1,1-2.33,4.56,4.56,0,0,1,2.91-.82h2.16v-.93a2,2,0,0,0-.58-1.58,2.7,2.7,0,0,0-1.83-.51,12.66,12.66,0,0,0-3.29.52l-.24-1.27a14.57,14.57,0,0,1,4-.7q3.8,0,3.79,3.3v7h-1.2l-.27-.69a5.47,5.47,0,0,1-3.08.93,3.64,3.64,0,0,1-2.45-.79A2.62,2.62,0,0,1,296.58,301.85Zm1.78-.14a1.66,1.66,0,0,0,.55,1.3,2.2,2.2,0,0,0,1.5.49,4.61,4.61,0,0,0,2.27-.63v-3.15h-1.93a2.71,2.71,0,0,0-1.77.52A1.8,1.8,0,0,0,298.36,301.71Z"/><path class="cls-1" d="M307.56,292a1.33,1.33,0,0,1,0-1.8,1.41,1.41,0,0,1,1.84,0,1.33,1.33,0,0,1,0,1.8,1.41,1.41,0,0,1-1.84,0Zm0,12.48v-10h1.82v10Z"/><path class="cls-1" d="M312.07,304l.38-1.21a9,9,0,0,0,3.24.65,2.92,2.92,0,0,0,1.71-.42,1.42,1.42,0,0,0,.59-1.25,1,1,0,0,0-.32-.77,2.15,2.15,0,0,0-.83-.47c-.34-.11-.71-.22-1.12-.32l-1.22-.32a4.68,4.68,0,0,1-1.12-.45,2.12,2.12,0,0,1-.83-.8,2.39,2.39,0,0,1-.32-1.25,2.76,2.76,0,0,1,1.07-2.24,4.25,4.25,0,0,1,2.77-.87,10.24,10.24,0,0,1,3.38.61L319,296a9.08,9.08,0,0,0-2.86-.53,2.34,2.34,0,0,0-1.52.46,1.41,1.41,0,0,0-.58,1.18,1.15,1.15,0,0,0,.24.74,1.71,1.71,0,0,0,.65.46,6.35,6.35,0,0,0,.92.26l1.05.24a7.49,7.49,0,0,1,1,.32,5.19,5.19,0,0,1,.91.48,2,2,0,0,1,.64.77,2.73,2.73,0,0,1,.24,1.18,2.8,2.8,0,0,1-1.05,2.31,4.66,4.66,0,0,1-2.93.83A9.29,9.29,0,0,1,312.07,304Z"/><path class="cls-1" d="M320.72,307.72a6.29,6.29,0,0,0,.7-1.36,4.65,4.65,0,0,0-.1-3.22l1.66-.42a4.28,4.28,0,0,1,.34,1.78,5.82,5.82,0,0,1-1.61,3.76Z"/><path class="cls-1" d="M96.81,339.48v-15H98l.3.8a4.84,4.84,0,0,1,3-1,4.25,4.25,0,0,1,3.34,1.32,5.43,5.43,0,0,1,1.18,3.77,5.83,5.83,0,0,1-1.26,3.95,4.33,4.33,0,0,1-3.44,1.45,5.16,5.16,0,0,1-2.52-.6v5.36Zm1.81-6.78a4.16,4.16,0,0,0,2.33.69,2.67,2.67,0,0,0,2.24-1.09,4.67,4.67,0,0,0,.83-2.92,4.47,4.47,0,0,0-.78-2.82,2.65,2.65,0,0,0-2.23-1,3.4,3.4,0,0,0-1.22.21,5.21,5.21,0,0,0-1.17.63Z"/><path class="cls-1" d="M108.24,332.26V319.48h1.82V332a1.41,1.41,0,0,0,.34,1.08,1.43,1.43,0,0,0,1,.31,2.27,2.27,0,0,0,.86-.17l.14,1.1a4.34,4.34,0,0,1-1.79.4,2.39,2.39,0,0,1-1.77-.61A2.49,2.49,0,0,1,108.24,332.26Z"/><path class="cls-1" d="M113.58,331.85a2.81,2.81,0,0,1,1-2.33,4.56,4.56,0,0,1,2.91-.82h2.16v-.93a2,2,0,0,0-.58-1.58,2.7,2.7,0,0,0-1.83-.51,12.79,12.79,0,0,0-3.3.52l-.23-1.27a14.57,14.57,0,0,1,4-.7c2.52,0,3.79,1.1,3.79,3.3v7h-1.2l-.28-.69a5.41,5.41,0,0,1-3.07.93,3.63,3.63,0,0,1-2.45-.79A2.59,2.59,0,0,1,113.58,331.85Zm1.77-.14a1.67,1.67,0,0,0,.56,1.3,2.17,2.17,0,0,0,1.5.49,4.61,4.61,0,0,0,2.27-.63v-3.15h-1.93a2.76,2.76,0,0,0-1.78.52A1.83,1.83,0,0,0,115.35,331.71Zm1.46-9.6,3.53-3.43,1.14,1.06-3.87,3.12Z"/><path class="cls-1" d="M123.79,334l.38-1.21a9,9,0,0,0,3.24.65,3,3,0,0,0,1.72-.42,1.45,1.45,0,0,0,.59-1.25,1,1,0,0,0-.32-.77,2.31,2.31,0,0,0-.83-.47c-.34-.11-.72-.22-1.12-.32l-1.23-.32a4.86,4.86,0,0,1-1.12-.45,2.19,2.19,0,0,1-.83-.8,2.39,2.39,0,0,1-.31-1.25A2.73,2.73,0,0,1,125,325.1a4.22,4.22,0,0,1,2.76-.87,10.19,10.19,0,0,1,3.38.61l-.44,1.18a9,9,0,0,0-2.86-.53,2.34,2.34,0,0,0-1.52.46,1.41,1.41,0,0,0-.58,1.18,1.11,1.11,0,0,0,.25.74,1.57,1.57,0,0,0,.65.46,6,6,0,0,0,.92.26l1,.24a7.79,7.79,0,0,1,1,.32,4.86,4.86,0,0,1,.91.48,1.88,1.88,0,0,1,.64.77,2.73,2.73,0,0,1,.25,1.18,2.8,2.8,0,0,1-1.06,2.31,4.64,4.64,0,0,1-2.93.83A9.33,9.33,0,0,1,123.79,334Z"/><path class="cls-1" d="M132.59,325.56v-1.08h1.68l.42-3h1.39v3h3v1.22h-3v5.9a1.6,1.6,0,0,0,1.79,1.79,3.32,3.32,0,0,0,1.48-.31l.15,1.11a5.16,5.16,0,0,1-2.35.53,2.58,2.58,0,0,1-2.88-2.86l0-6.16Z"/><path class="cls-1" d="M141.53,322a1.33,1.33,0,0,1,0-1.8,1.41,1.41,0,0,1,1.84,0,1.33,1.33,0,0,1,0,1.8,1.41,1.41,0,0,1-1.84,0Zm0,12.48v-10h1.82v10Z"/><path class="cls-1" d="M147.27,333.39a5,5,0,0,1-1.33-3.76,5.34,5.34,0,0,1,1.45-3.91,5.1,5.1,0,0,1,3.81-1.49,9.62,9.62,0,0,1,2.81.42l-.29,1.24a7.48,7.48,0,0,0-2.28-.33,3.42,3.42,0,0,0-2.64,1.1,4.17,4.17,0,0,0-1,2.9,3.84,3.84,0,0,0,1,2.81,3.6,3.6,0,0,0,2.72,1,8.51,8.51,0,0,0,2.36-.39l.28,1.17a8.72,8.72,0,0,1-3.1.58A5,5,0,0,1,147.27,333.39Z"/><path class="cls-1" d="M155.52,329.58a5.61,5.61,0,0,1,1.29-3.95,4.72,4.72,0,0,1,3.65-1.4,4.5,4.5,0,0,1,3.47,1.34,6.6,6.6,0,0,1-.06,7.76,5.31,5.31,0,0,1-7.1.06A5.34,5.34,0,0,1,155.52,329.58Zm1.86-.08a4.75,4.75,0,0,0,.76,2.88,2.53,2.53,0,0,0,2.16,1,2.62,2.62,0,0,0,2.22-1,4.68,4.68,0,0,0,.77-2.88,5,5,0,0,0-.73-2.93,2.45,2.45,0,0,0-2.1-1,2.75,2.75,0,0,0-2.28,1A4.67,4.67,0,0,0,157.38,329.5Z"/><path class="cls-1" d="M167,334l.38-1.21a9,9,0,0,0,3.25.65,2.92,2.92,0,0,0,1.71-.42,1.42,1.42,0,0,0,.59-1.25,1,1,0,0,0-.32-.77,2.23,2.23,0,0,0-.83-.47c-.34-.11-.71-.22-1.12-.32l-1.22-.32a4.94,4.94,0,0,1-1.13-.45,2.1,2.1,0,0,1-.82-.8,2.39,2.39,0,0,1-.32-1.25,2.76,2.76,0,0,1,1.07-2.24,4.23,4.23,0,0,1,2.77-.87,10.28,10.28,0,0,1,3.38.61l-.44,1.18a9.08,9.08,0,0,0-2.86-.53,2.37,2.37,0,0,0-1.53.46,1.43,1.43,0,0,0-.57,1.18,1.15,1.15,0,0,0,.24.74,1.63,1.63,0,0,0,.65.46,6.35,6.35,0,0,0,.92.26l1,.24a7.49,7.49,0,0,1,1.05.32,4.76,4.76,0,0,1,.9.48,2,2,0,0,1,.65.77,2.73,2.73,0,0,1,.24,1.18,2.78,2.78,0,0,1-1.06,2.31,4.64,4.64,0,0,1-2.93.83A9.37,9.37,0,0,1,167,334Z"/><path class="cls-1" d="M175.63,337.72a6.23,6.23,0,0,0,.69-1.36,4.45,4.45,0,0,0,.24-1.5,4.65,4.65,0,0,0-.33-1.72l1.66-.42a4.45,4.45,0,0,1,.33,1.78,5.77,5.77,0,0,1-1.61,3.76Z"/><path class="cls-1" d="M184,324.65v-.17h1.9l2.72,8.76,2.75-8.76h1.77v.17l-3.52,9.83h-2.2Z"/><path class="cls-1" d="M195.24,322a1.33,1.33,0,0,1,0-1.8,1.26,1.26,0,0,1,.92-.34,1.25,1.25,0,0,1,.92.34,1.33,1.33,0,0,1,0,1.8,1.25,1.25,0,0,1-.92.34A1.26,1.26,0,0,1,195.24,322Zm0,12.48v-10h1.82v10Z"/><path class="cls-1" d="M199.65,329.61a5.62,5.62,0,0,1,1.32-3.9,4.47,4.47,0,0,1,3.5-1.48,5.75,5.75,0,0,1,2.53.57v-5.32h1.82v15h-1.19l-.26-.76a4.73,4.73,0,0,1-3,1,4.49,4.49,0,0,1-3.47-1.34A5.34,5.34,0,0,1,199.65,329.61Zm1.86,0a4.25,4.25,0,0,0,.84,2.8,2.81,2.81,0,0,0,2.31,1,3.91,3.91,0,0,0,2.34-.77v-6.4a4.56,4.56,0,0,0-2.3-.66,2.81,2.81,0,0,0-2.31,1.1A4.56,4.56,0,0,0,201.51,329.58Z"/><path class="cls-1" d="M211.83,334.48v-10H213l.28.76a4.9,4.9,0,0,1,3-1,2.91,2.91,0,0,1,1,.17l-.2,1.32a5.86,5.86,0,0,0-.94-.08,4.94,4.94,0,0,0-2.56.69v8.15Z"/><path class="cls-1" d="M218.12,329.58a5.65,5.65,0,0,1,1.28-3.95,4.73,4.73,0,0,1,3.65-1.4,4.49,4.49,0,0,1,3.47,1.34,6.63,6.63,0,0,1-.05,7.76,5.31,5.31,0,0,1-7.1.06A5.34,5.34,0,0,1,218.12,329.58Zm1.86-.08a4.75,4.75,0,0,0,.76,2.88,2.53,2.53,0,0,0,2.16,1,2.59,2.59,0,0,0,2.21-1,4.61,4.61,0,0,0,.78-2.88,5,5,0,0,0-.74-2.93,2.45,2.45,0,0,0-2.1-1,2.73,2.73,0,0,0-2.27,1A4.67,4.67,0,0,0,220,329.5Z"/><path class="cls-1" d="M228.67,337.72a6.29,6.29,0,0,0,.7-1.36,4.45,4.45,0,0,0,.24-1.5,4.65,4.65,0,0,0-.33-1.72l1.66-.42a4.45,4.45,0,0,1,.33,1.78,5.82,5.82,0,0,1-1.61,3.76Z"/><path class="cls-1" d="M237.09,325.56v-1.08h1.68l.42-3h1.4v3h3v1.22h-3v5.9a1.59,1.59,0,0,0,1.78,1.79,3.29,3.29,0,0,0,1.48-.31l.15,1.11a5.16,5.16,0,0,1-2.35.53,2.59,2.59,0,0,1-2.88-2.86l0-6.16Z"/><path class="cls-1" d="M245.63,331.54v-7.06h1.81v6.8a2,2,0,0,0,.58,1.54,2.49,2.49,0,0,0,1.75.54,5,5,0,0,0,2.4-.68v-8.2H254v10h-1.17l-.31-.8a5.64,5.64,0,0,1-3.29,1,3.82,3.82,0,0,1-2.67-.83A3,3,0,0,1,245.63,331.54Z"/><path class="cls-1" d="M257.08,334.48v-15h1.82v5.35a6.4,6.4,0,0,1,2.66-.58,4.23,4.23,0,0,1,3.35,1.35,5.57,5.57,0,0,1,1.18,3.79,5.72,5.72,0,0,1-1.26,3.92,4.37,4.37,0,0,1-3.47,1.43,4.43,4.43,0,0,1-2.86-.94l-.31.7Zm1.82-2a3.9,3.9,0,0,0,2.26.83,2.77,2.77,0,0,0,2.31-1,4.6,4.6,0,0,0,.81-2.94,4.39,4.39,0,0,0-.8-2.81,2.73,2.73,0,0,0-2.26-1,4.8,4.8,0,0,0-2.32.62Z"/><path class="cls-1" d="M267.87,329.58a5.61,5.61,0,0,1,1.29-3.95,4.73,4.73,0,0,1,3.65-1.4,4.49,4.49,0,0,1,3.47,1.34,6.63,6.63,0,0,1,0,7.76,5.33,5.33,0,0,1-7.11.06A5.38,5.38,0,0,1,267.87,329.58Zm1.87-.08a4.68,4.68,0,0,0,.76,2.88,2.5,2.5,0,0,0,2.15,1,2.62,2.62,0,0,0,2.22-1,4.61,4.61,0,0,0,.78-2.88,5,5,0,0,0-.74-2.93,2.45,2.45,0,0,0-2.1-1,2.73,2.73,0,0,0-2.27,1A4.61,4.61,0,0,0,269.74,329.5Z"/><path class="cls-1" d="M283.85,329.61a5.62,5.62,0,0,1,1.32-3.9,4.46,4.46,0,0,1,3.5-1.48,5.78,5.78,0,0,1,2.53.57v-5.32H293v15h-1.2l-.25-.76a4.75,4.75,0,0,1-3,1,4.49,4.49,0,0,1-3.47-1.34A5.34,5.34,0,0,1,283.85,329.61Zm1.86,0a4.25,4.25,0,0,0,.84,2.8,2.81,2.81,0,0,0,2.31,1,4,4,0,0,0,2.34-.77v-6.4a4.56,4.56,0,0,0-2.3-.66,2.81,2.81,0,0,0-2.31,1.1A4.5,4.5,0,0,0,285.71,329.58Z"/><path class="cls-1" d="M295.4,329.54a5.47,5.47,0,0,1,1.33-3.84,4.47,4.47,0,0,1,3.49-1.47,4.16,4.16,0,0,1,3,1.07,4,4,0,0,1,1.1,3,4.57,4.57,0,0,1-.19,1.29h-6.95a4,4,0,0,0,1,2.8,3.57,3.57,0,0,0,2.69,1,7.29,7.29,0,0,0,3.14-.8l.35,1.07a8,8,0,0,1-3.95,1.06,5,5,0,0,1-3.72-1.37A5.27,5.27,0,0,1,295.4,329.54Zm1.91-1.08h5.34l0-.3a2.84,2.84,0,0,0-.65-2,2.42,2.42,0,0,0-1.85-.7,2.5,2.5,0,0,0-1.89.81A4,4,0,0,0,297.31,328.46Z"/><path class="cls-1" d="M103.76,369.48v-15H105l.3.8a4.87,4.87,0,0,1,3-1,4.24,4.24,0,0,1,3.34,1.32,5.43,5.43,0,0,1,1.18,3.77,5.83,5.83,0,0,1-1.26,3.95,4.31,4.31,0,0,1-3.43,1.45,5.11,5.11,0,0,1-2.52-.6v5.36Zm1.82-6.78a4.1,4.1,0,0,0,2.32.69,2.66,2.66,0,0,0,2.24-1.09,4.67,4.67,0,0,0,.84-2.92,4.47,4.47,0,0,0-.78-2.82,2.67,2.67,0,0,0-2.24-1,3.43,3.43,0,0,0-1.22.21,5,5,0,0,0-1.16.63Z"/><path class="cls-1" d="M114.55,361.85a2.82,2.82,0,0,1,1-2.33,4.56,4.56,0,0,1,2.91-.82h2.16v-.93a2,2,0,0,0-.58-1.58,2.74,2.74,0,0,0-1.83-.51,12.66,12.66,0,0,0-3.3.52l-.23-1.27a14.51,14.51,0,0,1,4-.7q3.78,0,3.78,3.3v7h-1.19l-.28-.69a5.44,5.44,0,0,1-3.08.93,3.62,3.62,0,0,1-2.44-.79A2.6,2.6,0,0,1,114.55,361.85Zm1.78-.14a1.67,1.67,0,0,0,.56,1.3,2.16,2.16,0,0,0,1.49.49,4.62,4.62,0,0,0,2.28-.63v-3.15h-1.93a2.76,2.76,0,0,0-1.78.52A1.83,1.83,0,0,0,116.33,361.71Z"/><path class="cls-1" d="M124.77,364l.38-1.21a9,9,0,0,0,3.24.65,2.92,2.92,0,0,0,1.71-.42,1.42,1.42,0,0,0,.59-1.25,1,1,0,0,0-.32-.77,2.15,2.15,0,0,0-.83-.47c-.34-.11-.71-.22-1.12-.32l-1.22-.32a4.68,4.68,0,0,1-1.12-.45,2.12,2.12,0,0,1-.83-.8,2.39,2.39,0,0,1-.32-1.25A2.76,2.76,0,0,1,126,355.1a4.25,4.25,0,0,1,2.77-.87,10.24,10.24,0,0,1,3.38.61l-.44,1.18a9.08,9.08,0,0,0-2.86-.53,2.34,2.34,0,0,0-1.52.46,1.41,1.41,0,0,0-.58,1.18,1.11,1.11,0,0,0,.25.74,1.6,1.6,0,0,0,.64.46,6.35,6.35,0,0,0,.92.26l1.05.24a7.49,7.49,0,0,1,1,.32,5.19,5.19,0,0,1,.91.48,2,2,0,0,1,.64.77,2.73,2.73,0,0,1,.24,1.18,2.8,2.8,0,0,1-1,2.31,4.66,4.66,0,0,1-2.93.83A9.29,9.29,0,0,1,124.77,364Z"/><path class="cls-1" d="M133.57,355.56v-1.08h1.68l.42-3h1.39v3h3v1.22h-3v5.9a1.6,1.6,0,0,0,1.79,1.79,3.25,3.25,0,0,0,1.47-.31l.16,1.11a5.19,5.19,0,0,1-2.35.53A2.92,2.92,0,0,1,136,364a2.86,2.86,0,0,1-.74-2.13l0-6.16Z"/><path class="cls-1" d="M141.7,361.85a2.82,2.82,0,0,1,1-2.33,4.56,4.56,0,0,1,2.91-.82h2.15v-.93a2,2,0,0,0-.57-1.58,2.74,2.74,0,0,0-1.83-.51,12.66,12.66,0,0,0-3.3.52l-.23-1.27a14.51,14.51,0,0,1,4-.7q3.78,0,3.78,3.3v7h-1.19l-.28-.69a5.44,5.44,0,0,1-3.08.93,3.6,3.6,0,0,1-2.44-.79A2.6,2.6,0,0,1,141.7,361.85Zm1.78-.14A1.64,1.64,0,0,0,144,363a2.16,2.16,0,0,0,1.49.49,4.58,4.58,0,0,0,2.27-.63v-3.15h-1.92a2.74,2.74,0,0,0-1.78.52A1.8,1.8,0,0,0,143.48,361.71Z"/><path class="cls-1" d="M156.44,359.61a5.66,5.66,0,0,1,1.31-3.9,4.49,4.49,0,0,1,3.51-1.48,5.78,5.78,0,0,1,2.53.57v-5.32h1.82v15h-1.2l-.25-.76a4.75,4.75,0,0,1-3,1,4.49,4.49,0,0,1-3.47-1.34A5.34,5.34,0,0,1,156.44,359.61Zm1.86,0a4.25,4.25,0,0,0,.84,2.8,2.8,2.8,0,0,0,2.31,1,4,4,0,0,0,2.34-.77v-6.4a4.59,4.59,0,0,0-2.3-.66,2.84,2.84,0,0,0-2.32,1.1A4.55,4.55,0,0,0,158.3,359.58Z"/><path class="cls-1" d="M168,359.54a5.47,5.47,0,0,1,1.33-3.84,4.47,4.47,0,0,1,3.49-1.47,4.17,4.17,0,0,1,3,1.07,4,4,0,0,1,1.09,3,4.57,4.57,0,0,1-.18,1.29h-6.95a4,4,0,0,0,1,2.8,3.56,3.56,0,0,0,2.69,1,7.33,7.33,0,0,0,3.14-.8l.34,1.07a7.9,7.9,0,0,1-3.94,1.06,5,5,0,0,1-3.72-1.37A5.23,5.23,0,0,1,168,359.54Zm1.9-1.08h5.35l0-.3a2.84,2.84,0,0,0-.64-2,2.43,2.43,0,0,0-1.85-.7,2.52,2.52,0,0,0-1.9.81A4,4,0,0,0,169.89,358.46Z"/><path class="cls-1" d="M183.3,359.61a5.62,5.62,0,0,1,1.32-3.9,4.49,4.49,0,0,1,3.5-1.48,5.83,5.83,0,0,1,2.54.57v-5.32h1.81v15h-1.19l-.26-.76a4.71,4.71,0,0,1-3,1,4.5,4.5,0,0,1-3.47-1.34A5.34,5.34,0,0,1,183.3,359.61Zm1.87,0a4.31,4.31,0,0,0,.83,2.8,2.83,2.83,0,0,0,2.32,1,4,4,0,0,0,2.34-.77v-6.4a4.62,4.62,0,0,0-2.31-.66,2.81,2.81,0,0,0-2.31,1.1A4.55,4.55,0,0,0,185.17,359.58Z"/><path class="cls-1" d="M194.85,359.54a5.52,5.52,0,0,1,1.33-3.84,4.49,4.49,0,0,1,3.49-1.47,4.2,4.2,0,0,1,3.05,1.07,4,4,0,0,1,1.09,3,4.24,4.24,0,0,1-.19,1.29h-7a4,4,0,0,0,1,2.8,3.58,3.58,0,0,0,2.7,1,7.33,7.33,0,0,0,3.14-.8l.34,1.07a7.93,7.93,0,0,1-3.94,1.06,4.94,4.94,0,0,1-3.72-1.37A5.24,5.24,0,0,1,194.85,359.54Zm1.91-1.08h5.34l0-.3a2.84,2.84,0,0,0-.65-2,2.42,2.42,0,0,0-1.85-.7,2.5,2.5,0,0,0-1.89.81A4,4,0,0,0,196.76,358.46Z"/><path class="cls-1" d="M206.17,364.48v-10h1.19l.29.78a6.51,6.51,0,0,1,1.62-.74,6.1,6.1,0,0,1,1.81-.29,3.79,3.79,0,0,1,2.61.79,2.92,2.92,0,0,1,.87,2.3v7.16h-1.81v-6.93a1.9,1.9,0,0,0-.54-1.47,2.42,2.42,0,0,0-1.66-.48,5.5,5.5,0,0,0-2.56.69v8.19Z"/><path class="cls-1" d="M216.18,355.56v-1.08h1.68l.42-3h1.4v3h3v1.22h-3v5.9a1.59,1.59,0,0,0,1.79,1.79,3.25,3.25,0,0,0,1.47-.31l.16,1.11a5.24,5.24,0,0,1-2.36.53,2.9,2.9,0,0,1-2.13-.73,2.87,2.87,0,0,1-.75-2.13l0-6.16Z"/><path class="cls-1" d="M224.18,359.54a5.47,5.47,0,0,1,1.33-3.84,4.47,4.47,0,0,1,3.49-1.47,4.17,4.17,0,0,1,3,1.07,4,4,0,0,1,1.1,3,4.57,4.57,0,0,1-.19,1.29H226a4,4,0,0,0,1,2.8,3.57,3.57,0,0,0,2.69,1,7.33,7.33,0,0,0,3.14-.8l.34,1.07a7.9,7.9,0,0,1-3.94,1.06,5,5,0,0,1-3.72-1.37A5.27,5.27,0,0,1,224.18,359.54Zm1.9-1.08h5.35l0-.3a2.84,2.84,0,0,0-.65-2,2.42,2.42,0,0,0-1.85-.7,2.53,2.53,0,0,0-1.9.81A4,4,0,0,0,226.08,358.46Z"/><path class="cls-1" d="M257.78,352a1.33,1.33,0,0,1,0-1.8,1.41,1.41,0,0,1,1.84,0,1.33,1.33,0,0,1,0,1.8,1.41,1.41,0,0,1-1.84,0Zm0,12.48v-10h1.82v10Z"/><path class="cls-1" d="M262.28,364l.38-1.21a9,9,0,0,0,3.25.65,2.94,2.94,0,0,0,1.71-.42,1.45,1.45,0,0,0,.59-1.25,1,1,0,0,0-.32-.77,2.23,2.23,0,0,0-.83-.47c-.34-.11-.71-.22-1.12-.32l-1.23-.32a4.86,4.86,0,0,1-1.12-.45,2.1,2.1,0,0,1-.82-.8,2.3,2.3,0,0,1-.32-1.25,2.73,2.73,0,0,1,1.07-2.24,4.23,4.23,0,0,1,2.77-.87,10.28,10.28,0,0,1,3.38.61l-.44,1.18a9.14,9.14,0,0,0-2.87-.53,2.35,2.35,0,0,0-1.52.46,1.44,1.44,0,0,0-.58,1.18,1.16,1.16,0,0,0,.25.74,1.57,1.57,0,0,0,.65.46,6.35,6.35,0,0,0,.92.26l1.05.24a7.36,7.36,0,0,1,1,.32,4.86,4.86,0,0,1,.91.48,1.88,1.88,0,0,1,.64.77,2.59,2.59,0,0,1,.25,1.18,2.78,2.78,0,0,1-1.06,2.31,4.64,4.64,0,0,1-2.93.83A9.33,9.33,0,0,1,262.28,364Z"/><path class="cls-1" d="M271.74,359.58a5.65,5.65,0,0,1,1.28-3.95,4.73,4.73,0,0,1,3.65-1.4,4.49,4.49,0,0,1,3.47,1.34,6.63,6.63,0,0,1-.05,7.76,5.33,5.33,0,0,1-7.11.06A5.38,5.38,0,0,1,271.74,359.58Zm1.86-.08a4.68,4.68,0,0,0,.76,2.88,2.53,2.53,0,0,0,2.16,1,2.59,2.59,0,0,0,2.21-1,4.61,4.61,0,0,0,.78-2.88,5,5,0,0,0-.74-2.93,2.45,2.45,0,0,0-2.1-1,2.73,2.73,0,0,0-2.27,1A4.67,4.67,0,0,0,273.6,359.5Z"/><path class="cls-1" d="M283.72,369.48v-15h1.19l.3.8a4.84,4.84,0,0,1,3-1,4.25,4.25,0,0,1,3.34,1.32,5.43,5.43,0,0,1,1.18,3.77,5.83,5.83,0,0,1-1.26,3.95,4.33,4.33,0,0,1-3.44,1.45,5.16,5.16,0,0,1-2.52-.6v5.36Zm1.81-6.78a4.16,4.16,0,0,0,2.33.69,2.67,2.67,0,0,0,2.24-1.09,4.67,4.67,0,0,0,.83-2.92,4.47,4.47,0,0,0-.78-2.82,2.65,2.65,0,0,0-2.23-1,3.4,3.4,0,0,0-1.22.21,5.21,5.21,0,0,0-1.17.63Z"/><path class="cls-1" d="M294.53,359.58a5.61,5.61,0,0,1,1.29-3.95,4.69,4.69,0,0,1,3.64-1.4,4.51,4.51,0,0,1,3.48,1.34,6.6,6.6,0,0,1-.06,7.76,5.31,5.31,0,0,1-7.1.06A5.34,5.34,0,0,1,294.53,359.58Zm1.86-.08a4.75,4.75,0,0,0,.76,2.88,2.53,2.53,0,0,0,2.16,1,2.62,2.62,0,0,0,2.22-1,4.68,4.68,0,0,0,.77-2.88,5,5,0,0,0-.73-2.93,2.46,2.46,0,0,0-2.11-1,2.75,2.75,0,0,0-2.27,1A4.67,4.67,0,0,0,296.39,359.5Z"/><path class="cls-1" d="M306.51,364.48v-10h1.19l.29.76a4.88,4.88,0,0,1,3-1,3,3,0,0,1,1,.17l-.21,1.32a5.64,5.64,0,0,0-.93-.08,4.91,4.91,0,0,0-2.56.69v8.15Z"/><path class="cls-1" d="M240.87,359.41a5.45,5.45,0,0,1,1.33-3.83,4.46,4.46,0,0,1,3.49-1.47,4.17,4.17,0,0,1,3,1.07,4,4,0,0,1,1.09,3,4.64,4.64,0,0,1-.18,1.3h-7a4,4,0,0,0,1,2.8,3.6,3.6,0,0,0,2.69,1,7.33,7.33,0,0,0,3.14-.8l.34,1.07a7.9,7.9,0,0,1-3.94,1.06,5,5,0,0,1-3.72-1.37A5.26,5.26,0,0,1,240.87,359.41Zm1.9-1.07h5.34l0-.3a2.84,2.84,0,0,0-.64-2,2.4,2.4,0,0,0-1.85-.7,2.5,2.5,0,0,0-1.9.81A4,4,0,0,0,242.77,358.34Z"/><polygon class="cls-2" points="179.17 135.25 249.75 96.63 247.58 92.64 178.12 130.65 179.17 135.25"/><path class="cls-3" d="M179.17,135.25c2.48-1.36.43-5.81.43-5.81l62.34-34.1-31.74-58L142.46,74.39l32.47,59.34c.9,1,2.56,2.44,4.24,1.52"/><rect class="cls-2" x="157.96" y="43.74" width="77.21" height="72.3" transform="translate(-14.22 104.15) rotate(-28.68)"/><polygon class="cls-4" points="217.84 45.19 157.15 78.22 152.57 69.6 213.27 36.57 217.84 45.19"/><rect class="cls-3" x="155.34" y="64.03" width="69.49" height="3.18" transform="translate(-8.17 99.29) rotate(-28.68)"/><rect class="cls-4" x="164.5" y="75" width="36.86" height="22.14" transform="translate(-18.86 98.37) rotate(-28.68)"/><rect class="cls-3" x="194.22" y="59.11" width="30.47" height="2.51" transform="translate(-3.27 107.94) rotate(-28.68)"/><rect class="cls-3" x="197.36" y="64.85" width="30.47" height="2.51" transform="translate(-5.64 110.16) rotate(-28.68)"/><rect class="cls-3" x="200.5" y="70.59" width="30.47" height="2.51" transform="translate(-8.01 112.37) rotate(-28.68)"/><rect class="cls-3" x="203.64" y="76.33" width="30.47" height="2.51" transform="translate(-10.38 114.58) rotate(-28.68)"/><rect class="cls-5" x="172.76" y="91.17" width="66.34" height="9.11" transform="translate(-20.67 110.59) rotate(-28.68)"/><rect class="cls-4" x="180.12" y="111.56" width="27.71" height="5.1" transform="translate(-30.96 107.11) rotate(-28.68)"/><rect class="cls-4" x="213.11" y="93.24" width="28.67" height="5.1" transform="translate(-18.07 120.93) rotate(-28.68)"/><rect class="cls-3" x="183.24" y="118.55" width="27.74" height="2.51" transform="translate(-33.32 109.31) rotate(-28.68)"/><rect class="cls-3" x="217.1" y="100.02" width="27.74" height="2.51" transform="translate(-20.27 123.29) rotate(-28.68)"/><rect class="cls-6" x="149.32" y="206.74" width="10.76" height="23.83" rx="2.68" ry="2.68"/><rect class="cls-6" x="241.97" y="206.74" width="10.76" height="23.83" rx="2.68" ry="2.68"/><path class="cls-7" d="M253.79,97.57c0-.18,0-.41,0-.53H148.28c0,.12,0,.35,0,.53l.2,4.13L253,113.35Z"/><path class="cls-8" d="M148.47,101.7l5.79,116.44a13.16,13.16,0,0,0,13.16,13.16h67.22a13.16,13.16,0,0,0,13.16-13.16L253,113.34Z"/><path class="cls-8" d="M258.06,96.17a3.69,3.69,0,0,1-3.65,3.65H147.65a3.59,3.59,0,0,1-3.53-3.65v-5a3.5,3.5,0,0,1,3.53-3.54H254.41a3.6,3.6,0,0,1,3.65,3.54Z"/><path class="cls-9" d="M206.82,147.12l-5.27,3.71,6.91-.83.31,0,.88-.11,6.14-.73,2.64-5.28.28-.55,3.49-7-5.36,3.77-4.62-8c-1.24-1.92-2.54-2.75-3.82-2.88-2.28-.12-4.59,1.93-6.23,3.92-.45.57-.86,1.15-1.22,1.7-.15.21-.28.42-.41.63.13.26.26.54.41.83s.4.79.62,1.22c1.35,2.63,3.2,6,5.25,9.63"/><path class="cls-9" d="M220.77,172.38c-.69,0-1.46-.1-2.3-.14-2.95-.14-6.79-.22-11-.26l-.57-6.42-2.74,6.4-.12.28-.35.82-2.44,5.69,3.25,4.92.34.51,4.32,6.53-.59-6.53h9.24c2.28-.11,3.65-.82,4.41-1.87,1.23-1.91.62-4.93-.29-7.35a26.36,26.36,0,0,0-1.19-2.58"/><path class="cls-9" d="M231.35,168.07a3.28,3.28,0,0,0-.24-1.38l-.12-.19-8.21-14.24-9.49,5c.59,1,1.3,2.25,2.05,3.59l5.19,9c.19.28.61.95,1.11,1.87h0l.16.28a21.16,21.16,0,0,1,1.19,2.64,11.27,11.27,0,0,1,1,6.14Z"/><path class="cls-9" d="M201,132.89l.43-.55a11.27,11.27,0,0,1,4.83-3.91h-14.7a3.34,3.34,0,0,0-1.07.89l-.11.2-8.22,14.24,9.1,5.7c.56-1,1.29-2.25,2.08-3.58l5.19-9c.15-.3.52-1,1.06-1.89v0l.17-.27a20.1,20.1,0,0,1,1.25-1.81"/><path class="cls-9" d="M178,172.41a25.69,25.69,0,0,0,2.83.25c.39-.57.82-1.21,1.27-1.92,1.6-2.48,3.59-5.77,5.71-9.37l5.85,2.71-4.17-5.57-.19-.24-.53-.71-3.71-5-5.88.36-.62,0-7.81.47,5.95,2.75-4.62,8c-1,2-1.11,3.57-.59,4.75,1,2,4,3,6.51,3.43"/><path class="cls-9" d="M193.47,173.72H183.09c-.34,0-1.13.05-2.17,0l0,0h-.32a21.15,21.15,0,0,1-2.89-.28,11.44,11.44,0,0,1-5.8-2.22L179.24,184a3,3,0,0,0,1.31.48h16.67l.38-10.73c-1.15,0-2.59,0-4.13,0"/></svg>