<svg id="Camada_1" data-name="Camada 1" xmlns="http://www.w3.org/2000/svg" viewBox="0 0 400.7 492.63"><defs><style>.cls-1{fill:#494847;}.cls-2{fill:#cac5c2;}.cls-3{fill:#c4854f;}.cls-4{fill:#b7794b;}.cls-5{fill:#5c7033;}.cls-6{fill:#a6cd5d;}.cls-7{fill:#6f843b;}.cls-8{fill:#85a943;}.cls-9{fill:#58863f;}.cls-10{fill:#4e7c39;}.cls-11{fill:#91b053;}.cls-12{fill:#010101;}.cls-13{fill:#e06612;}.cls-14{fill:#f47920;}.cls-15{fill:#fff;}</style></defs><title>cxsdelixo</title><path class="cls-1" d="M139.32,271V257h3.2v11.64h6.35V271Z"/><path class="cls-1" d="M150.27,257.81a1.7,1.7,0,0,1,.52-1.3,2.13,2.13,0,0,1,2.74,0,1.7,1.7,0,0,1,.52,1.3,1.75,1.75,0,0,1-.52,1.33,1.9,1.9,0,0,1-1.38.5,1.85,1.85,0,0,1-1.36-.51A1.73,1.73,0,0,1,150.27,257.81Zm.32,13.22V261h3.12v10Z"/><path class="cls-1" d="M155.08,271v-.26l3.71-4.68-3.58-4.81V261h3.54l2,3.1,1.94-3.1h3.18v.25L162,266l3.56,4.82V271h-3.48l-1.94-3-1.8,3Z"/><path class="cls-1" d="M165.83,266.19a5.64,5.64,0,0,1,1.33-4,5.73,5.73,0,0,1,7.46-.1,5.26,5.26,0,0,1,1.31,3.87,5.57,5.57,0,0,1-1.34,3.94,4.88,4.88,0,0,1-3.72,1.43,5,5,0,0,1-3.73-1.33A5.15,5.15,0,0,1,165.83,266.19Zm3.19-.12a4.39,4.39,0,0,0,.47,2.25,1.63,1.63,0,0,0,2.77,0,4.28,4.28,0,0,0,.48-2.25c0-2.06-.6-3.09-1.82-3.09S169,264,169,266.07Z"/><path class="cls-1" d="M181.52,266.19a5.64,5.64,0,0,1,1.33-4,5.75,5.75,0,0,1,7.47-.1,5.3,5.3,0,0,1,1.31,3.87,5.53,5.53,0,0,1-1.35,3.94,4.87,4.87,0,0,1-3.72,1.43,5,5,0,0,1-3.73-1.33A5.19,5.19,0,0,1,181.52,266.19Zm3.19-.12a4.28,4.28,0,0,0,.48,2.25,1.51,1.51,0,0,0,1.37.77,1.56,1.56,0,0,0,1.4-.77,4.39,4.39,0,0,0,.47-2.25c0-2.06-.6-3.09-1.81-3.09S184.71,264,184.71,266.07Z"/><path class="cls-1" d="M193.39,271V261h2l.36.66a4.5,4.5,0,0,1,2.84-.94,3.13,3.13,0,0,1,1.2.24l-.32,2.26a5.07,5.07,0,0,0-1.14-.14,4.45,4.45,0,0,0-1.78.34V271Z"/><path class="cls-1" d="M200.52,273.37A2.12,2.12,0,0,1,201,272a3.26,3.26,0,0,1,1.27-.89,1.84,1.84,0,0,1-.7-1.47,2.42,2.42,0,0,1,1.18-2.16,3.07,3.07,0,0,1-1.91-3,3.29,3.29,0,0,1,1.24-2.71,5.35,5.35,0,0,1,3.43-1,6.57,6.57,0,0,1,3,.59l3.15-.29v2.17l-1.5.13a3.6,3.6,0,0,1,.13,1A3.17,3.17,0,0,1,209,267a5.87,5.87,0,0,1-3.58.95,8,8,0,0,1-1-.05,1.28,1.28,0,0,0-.31.86c0,.47.32.71,1,.71h2.07a4.85,4.85,0,0,1,2.88.77,2.44,2.44,0,0,1,1.07,2.08,3.4,3.4,0,0,1-1.49,3,9,9,0,0,1-7.86.26A2.41,2.41,0,0,1,200.52,273.37Zm2.85-.37a1.1,1.1,0,0,0,.57,1,3,3,0,0,0,1.6.35,4,4,0,0,0,1.85-.36,1.1,1.1,0,0,0,.68-1,.75.75,0,0,0-.38-.67,2,2,0,0,0-1.07-.24h-1.26a6.79,6.79,0,0,1-1.51-.16A1.4,1.4,0,0,0,203.37,273Zm.69-8.64a2,2,0,0,0,.37,1.3,1.34,1.34,0,0,0,1.07.44,1.45,1.45,0,0,0,1.12-.44,1.92,1.92,0,0,0,.39-1.3,2.11,2.11,0,0,0-.36-1.36,1.31,1.31,0,0,0-1.07-.43C204.56,262.57,204.06,263.17,204.06,264.36Z"/><path class="cls-1" d="M212.43,268.38a2.93,2.93,0,0,1,1.11-2.45,4.9,4.9,0,0,1,3.11-.87h1.56v-.27a1.41,1.41,0,0,0-.46-1.18,2.43,2.43,0,0,0-1.5-.36,14.41,14.41,0,0,0-3.26.53l-.39-2.13a13.56,13.56,0,0,1,4.55-.9,4.64,4.64,0,0,1,3.1.91,3.23,3.23,0,0,1,1.07,2.62V271h-2l-.42-.64a5,5,0,0,1-3,.93,3.82,3.82,0,0,1-2.55-.81A2.67,2.67,0,0,1,212.43,268.38Zm1.26-8.72v-.21l2.16-2.73h2.52l2.17,2.73v.21h-2.46l-.91-1.19h-.1l-.89,1.19Zm1.78,8.43a1.14,1.14,0,0,0,.38.9,1.46,1.46,0,0,0,1,.34,3.27,3.27,0,0,0,1.34-.29v-2.36h-1.12a1.7,1.7,0,0,0-1.19.38A1.31,1.31,0,0,0,215.47,268.09Z"/><path class="cls-1" d="M223.39,271V261h2l.37.72a6,6,0,0,1,3.43-1,3.66,3.66,0,0,1,2.56.8,2.85,2.85,0,0,1,.89,2.27V271h-3.11v-6.7a1.27,1.27,0,0,0-.35-1,1.47,1.47,0,0,0-1.07-.32,4.52,4.52,0,0,0-1.57.32V271Z"/><path class="cls-1" d="M234.6,257.81a1.72,1.72,0,0,1,.51-1.3,1.91,1.91,0,0,1,1.37-.5,1.93,1.93,0,0,1,1.38.5,1.73,1.73,0,0,1,.52,1.3,1.78,1.78,0,0,1-.52,1.33,1.93,1.93,0,0,1-1.38.5,1.87,1.87,0,0,1-1.37-.51A1.76,1.76,0,0,1,234.6,257.81Zm.32,13.22V261H238v10Z"/><path class="cls-1" d="M239.88,266.24a5.33,5.33,0,0,1,1.53-4,5.5,5.5,0,0,1,4.05-1.51,11.57,11.57,0,0,1,2.78.35l-.46,2.11a7.86,7.86,0,0,0-1.85-.23,2.67,2.67,0,0,0-2.06.87,3.2,3.2,0,0,0-.8,2.24,2.67,2.67,0,0,0,3,3,7.88,7.88,0,0,0,1.91-.27l.44,1.9a8.67,8.67,0,0,1-3.27.65,5.34,5.34,0,0,1-3.86-1.33A4.94,4.94,0,0,1,239.88,266.24Z"/><path class="cls-1" d="M249.29,266.19a5.65,5.65,0,0,1,1.34-4,4.88,4.88,0,0,1,3.76-1.43,5,5,0,0,1,3.7,1.33A5.3,5.3,0,0,1,259.4,266a5.57,5.57,0,0,1-1.34,3.94,4.89,4.89,0,0,1-3.73,1.43A5,5,0,0,1,250.6,270,5.19,5.19,0,0,1,249.29,266.19Zm3.2-.12a4.29,4.29,0,0,0,.47,2.25,1.52,1.52,0,0,0,1.37.77,1.56,1.56,0,0,0,1.4-.77,4.28,4.28,0,0,0,.48-2.25c0-2.06-.61-3.09-1.82-3.09S252.49,264,252.49,266.07Z"/><path class="cls-1" d="M76.79,301V287H82a4.39,4.39,0,0,1,3.2,1.12,4.14,4.14,0,0,1,1.15,3.08,4.57,4.57,0,0,1-.65,2.47,3.67,3.67,0,0,1-1.84,1.49l2.74,5.67V301h-2l-2.44-5.5-.24,0H78.65V301Zm1.86-6.92h3.06a2.65,2.65,0,0,0,2-.78,2.81,2.81,0,0,0,.76-2.05,2.91,2.91,0,0,0-.7-2.1,2.58,2.58,0,0,0-2-.74H78.65Z"/><path class="cls-1" d="M88,296.09a5.49,5.49,0,0,1,1.33-3.84,4.48,4.48,0,0,1,3.49-1.46,4.17,4.17,0,0,1,3,1.07,4,4,0,0,1,1.09,3,4.69,4.69,0,0,1-.18,1.3h-7a4.05,4.05,0,0,0,1,2.8,3.6,3.6,0,0,0,2.69,1,7.48,7.48,0,0,0,3.14-.8l.34,1.06a7.91,7.91,0,0,1-3.94,1.07,5,5,0,0,1-3.72-1.37A5.26,5.26,0,0,1,88,296.09Zm1.9-1.07h5.34l0-.31a2.83,2.83,0,0,0-.65-2,2.39,2.39,0,0,0-1.84-.69,2.5,2.5,0,0,0-1.9.81A3.94,3.94,0,0,0,89.93,295Z"/><path class="cls-1" d="M98.82,300.5l.38-1.2a9.2,9.2,0,0,0,3.24.65,3,3,0,0,0,1.72-.42,1.46,1.46,0,0,0,.59-1.25,1,1,0,0,0-.33-.77,2.06,2.06,0,0,0-.82-.47l-1.12-.33-1.23-.32a4.84,4.84,0,0,1-1.12-.44,2.19,2.19,0,0,1-.83-.8,2.41,2.41,0,0,1-.32-1.26,2.73,2.73,0,0,1,1.08-2.23,4.22,4.22,0,0,1,2.76-.87,10.18,10.18,0,0,1,3.38.6l-.44,1.18a9,9,0,0,0-2.86-.52,2.39,2.39,0,0,0-1.52.45,1.43,1.43,0,0,0-.58,1.19,1.08,1.08,0,0,0,.25.73,1.41,1.41,0,0,0,.65.46,7.33,7.33,0,0,0,.92.27l1,.23a6.6,6.6,0,0,1,1,.33,5.19,5.19,0,0,1,.91.48,1.88,1.88,0,0,1,.64.77,2.67,2.67,0,0,1,.24,1.18,2.76,2.76,0,0,1-1,2.3,4.58,4.58,0,0,1-2.93.84A9.14,9.14,0,0,1,98.82,300.5Z"/><path class="cls-1" d="M107.62,292.12V291h1.68l.42-3h1.39v3h3v1.22h-3v5.9a1.83,1.83,0,0,0,.46,1.34,1.76,1.76,0,0,0,1.33.46,3.32,3.32,0,0,0,1.48-.31l.15,1.11a5.33,5.33,0,0,1-2.35.53,2.93,2.93,0,0,1-2.14-.74,2.88,2.88,0,0,1-.74-2.12l0-6.17Z"/><path class="cls-1" d="M115.62,296.13a5.63,5.63,0,0,1,1.28-3.94,4.7,4.7,0,0,1,3.65-1.4,4.44,4.44,0,0,1,3.47,1.34,6.63,6.63,0,0,1,0,7.76,4.65,4.65,0,0,1-3.57,1.39,4.6,4.6,0,0,1-3.53-1.34A5.32,5.32,0,0,1,115.62,296.13Zm1.86-.08a4.73,4.73,0,0,0,.76,2.89,2.56,2.56,0,0,0,2.16,1,2.62,2.62,0,0,0,2.21-1,4.67,4.67,0,0,0,.78-2.89,4.92,4.92,0,0,0-.74-2.92,2.42,2.42,0,0,0-2.1-1,2.71,2.71,0,0,0-2.27,1A4.64,4.64,0,0,0,117.48,296.05Z"/><path class="cls-1" d="M127.07,300.5l.38-1.2a9.2,9.2,0,0,0,3.24.65,3,3,0,0,0,1.72-.42,1.46,1.46,0,0,0,.59-1.25,1,1,0,0,0-.32-.77,2.1,2.1,0,0,0-.83-.47c-.34-.11-.71-.22-1.12-.33l-1.23-.32a4.84,4.84,0,0,1-1.12-.44,2.17,2.17,0,0,1-.82-.8,2.32,2.32,0,0,1-.32-1.26,2.72,2.72,0,0,1,1.07-2.23,4.22,4.22,0,0,1,2.76-.87,10.18,10.18,0,0,1,3.38.6l-.44,1.18a9,9,0,0,0-2.86-.52,2.39,2.39,0,0,0-1.52.45,1.45,1.45,0,0,0-.58,1.19,1.13,1.13,0,0,0,.25.73,1.41,1.41,0,0,0,.65.46,7.33,7.33,0,0,0,.92.27l1,.23a6.6,6.6,0,0,1,1,.33,4.86,4.86,0,0,1,.91.48,1.88,1.88,0,0,1,.64.77,2.54,2.54,0,0,1,.25,1.18,2.77,2.77,0,0,1-1.06,2.3,4.58,4.58,0,0,1-2.93.84A9.17,9.17,0,0,1,127.07,300.5Z"/><path class="cls-1" d="M141.14,296.17a5.66,5.66,0,0,1,1.32-3.91,4.48,4.48,0,0,1,3.5-1.47,5.83,5.83,0,0,1,2.54.57V286h1.81v15h-1.19l-.26-.76a4.71,4.71,0,0,1-3,1,4.5,4.5,0,0,1-3.48-1.35A5.36,5.36,0,0,1,141.14,296.17Zm1.87,0a4.34,4.34,0,0,0,.83,2.81,2.86,2.86,0,0,0,2.32,1,4,4,0,0,0,2.34-.77v-6.41a4.7,4.7,0,0,0-2.3-.65,2.79,2.79,0,0,0-2.32,1.1A4.54,4.54,0,0,0,143,296.13Z"/><path class="cls-1" d="M152.7,296.09a5.53,5.53,0,0,1,1.32-3.84,4.52,4.52,0,0,1,3.5-1.46,4.17,4.17,0,0,1,3,1.07,4,4,0,0,1,1.09,3,4.69,4.69,0,0,1-.18,1.3h-7a4.05,4.05,0,0,0,1,2.8,3.58,3.58,0,0,0,2.69,1,7.48,7.48,0,0,0,3.14-.8l.34,1.06a7.94,7.94,0,0,1-3.94,1.07,5,5,0,0,1-3.72-1.37A5.26,5.26,0,0,1,152.7,296.09Zm1.9-1.07h5.34l0-.31a2.83,2.83,0,0,0-.65-2,2.39,2.39,0,0,0-1.84-.69,2.5,2.5,0,0,0-1.9.81A3.94,3.94,0,0,0,154.6,295Z"/><path class="cls-1" d="M168.07,298.41a2.82,2.82,0,0,1,1-2.34,4.62,4.62,0,0,1,2.91-.82h2.16v-.92a2,2,0,0,0-.58-1.59,2.7,2.7,0,0,0-1.83-.51,12.72,12.72,0,0,0-3.29.53l-.24-1.28a14.51,14.51,0,0,1,4-.69q3.8,0,3.79,3.3V301h-1.2l-.27-.69a5.4,5.4,0,0,1-3.08.94,3.65,3.65,0,0,1-2.45-.8A2.6,2.6,0,0,1,168.07,298.41Zm1.77-.15a1.66,1.66,0,0,0,.56,1.3,2.17,2.17,0,0,0,1.5.5,4.61,4.61,0,0,0,2.27-.63v-3.15h-1.93a2.65,2.65,0,0,0-1.77.52A1.77,1.77,0,0,0,169.84,298.26Z"/><path class="cls-1" d="M178.81,298.82V286h1.82v12.52A1.18,1.18,0,0,0,182,300a2.25,2.25,0,0,0,.86-.18l.15,1.11a4.59,4.59,0,0,1-1.8.4,2.44,2.44,0,0,1-1.77-.61A2.52,2.52,0,0,1,178.81,298.82Z"/><path class="cls-1" d="M184.83,288.55a1.21,1.21,0,0,1-.35-.9,1.18,1.18,0,0,1,.35-.89,1.38,1.38,0,0,1,1.84,0,1.15,1.15,0,0,1,.35.89,1.17,1.17,0,0,1-.35.9,1.41,1.41,0,0,1-1.84,0Zm0,12.48V291h1.82v10Z"/><path class="cls-1" d="M189.86,301V291h1.2l.3.8a5.89,5.89,0,0,1,3.24-1,3.47,3.47,0,0,1,2.91,1.1,6.09,6.09,0,0,1,3.52-1.1,3.72,3.72,0,0,1,2.57.81,3,3,0,0,1,.9,2.35V301h-1.81v-6.9a1.88,1.88,0,0,0-.57-1.48,2.37,2.37,0,0,0-1.61-.49,5.13,5.13,0,0,0-2.53.69,4.58,4.58,0,0,1,.12,1.08V301h-1.82v-6.92a1.9,1.9,0,0,0-.53-1.47,2.43,2.43,0,0,0-1.65-.48,4.77,4.77,0,0,0-2.42.69V301Z"/><path class="cls-1" d="M206.71,296.09a5.49,5.49,0,0,1,1.33-3.84,4.5,4.5,0,0,1,3.49-1.46,4.17,4.17,0,0,1,3,1.07,4,4,0,0,1,1.09,3,4.69,4.69,0,0,1-.18,1.3h-6.95a4,4,0,0,0,1,2.8,3.6,3.6,0,0,0,2.69,1,7.48,7.48,0,0,0,3.14-.8l.34,1.06a7.91,7.91,0,0,1-3.94,1.07,5,5,0,0,1-3.72-1.37A5.26,5.26,0,0,1,206.71,296.09Zm1.9-1.07H214l0-.31a2.87,2.87,0,0,0-.64-2,2.43,2.43,0,0,0-1.85-.69,2.52,2.52,0,0,0-1.9.81A4,4,0,0,0,208.61,295Z"/><path class="cls-1" d="M218,301V291h1.19l.28.78a7,7,0,0,1,1.63-.74,6,6,0,0,1,1.81-.28,3.79,3.79,0,0,1,2.6.78,2.91,2.91,0,0,1,.88,2.3V301H224.6v-6.92a1.9,1.9,0,0,0-.53-1.47,2.45,2.45,0,0,0-1.67-.48,5.53,5.53,0,0,0-2.56.69V301Z"/><path class="cls-1" d="M228,292.12V291h1.68l.42-3h1.39v3h3v1.22h-3v5.9a1.83,1.83,0,0,0,.46,1.34,1.76,1.76,0,0,0,1.33.46,3.32,3.32,0,0,0,1.48-.31l.15,1.11a5.33,5.33,0,0,1-2.35.53,2.93,2.93,0,0,1-2.14-.74,2.88,2.88,0,0,1-.74-2.12l0-6.17Z"/><path class="cls-1" d="M236,296.13a5.63,5.63,0,0,1,1.28-3.94,4.7,4.7,0,0,1,3.65-1.4,4.44,4.44,0,0,1,3.47,1.34,6.63,6.63,0,0,1-.05,7.76,4.65,4.65,0,0,1-3.57,1.39,4.6,4.6,0,0,1-3.53-1.34A5.32,5.32,0,0,1,236,296.13Zm1.86-.08a4.73,4.73,0,0,0,.76,2.89,2.56,2.56,0,0,0,2.16,1,2.62,2.62,0,0,0,2.21-1,4.67,4.67,0,0,0,.78-2.89,4.92,4.92,0,0,0-.74-2.92,2.42,2.42,0,0,0-2.1-1,2.71,2.71,0,0,0-2.27,1A4.64,4.64,0,0,0,237.9,296.05Z"/><path class="cls-1" d="M247.49,300.5l.38-1.2a9.2,9.2,0,0,0,3.24.65,3,3,0,0,0,1.72-.42,1.46,1.46,0,0,0,.59-1.25,1,1,0,0,0-.32-.77,2.1,2.1,0,0,0-.83-.47c-.34-.11-.71-.22-1.12-.33l-1.23-.32a4.84,4.84,0,0,1-1.12-.44,2.27,2.27,0,0,1-.83-.8,2.4,2.4,0,0,1-.31-1.26,2.72,2.72,0,0,1,1.07-2.23,4.22,4.22,0,0,1,2.76-.87,10.18,10.18,0,0,1,3.38.6l-.44,1.18a9,9,0,0,0-2.86-.52,2.39,2.39,0,0,0-1.52.45,1.45,1.45,0,0,0-.58,1.19,1.13,1.13,0,0,0,.25.73,1.41,1.41,0,0,0,.65.46,7.33,7.33,0,0,0,.92.27l1.05.23a6.6,6.6,0,0,1,1,.33,4.86,4.86,0,0,1,.91.48,1.88,1.88,0,0,1,.64.77,2.54,2.54,0,0,1,.25,1.18,2.77,2.77,0,0,1-1.06,2.3,4.58,4.58,0,0,1-2.93.84A9.17,9.17,0,0,1,247.49,300.5Z"/><path class="cls-1" d="M256.14,304.28a6.35,6.35,0,0,0,.7-1.37,4.37,4.37,0,0,0,.24-1.5,4.64,4.64,0,0,0-.33-1.71l1.66-.42a4.4,4.4,0,0,1,.33,1.77,5.8,5.8,0,0,1-1.61,3.76Z"/><path class="cls-1" d="M266.39,300a5.08,5.08,0,0,1-1.33-3.76,5.36,5.36,0,0,1,1.45-3.92,5.09,5.09,0,0,1,3.81-1.48,9.73,9.73,0,0,1,2.82.42l-.3,1.24a7.48,7.48,0,0,0-2.28-.33,3.35,3.35,0,0,0-2.63,1.1,4.1,4.1,0,0,0-1,2.89,3.87,3.87,0,0,0,1,2.82,3.64,3.64,0,0,0,2.72,1,8.85,8.85,0,0,0,2.36-.38l.28,1.16a8.73,8.73,0,0,1-3.1.59A5.08,5.08,0,0,1,266.39,300Z"/><path class="cls-1" d="M274.78,298.41a2.82,2.82,0,0,1,1-2.34,4.62,4.62,0,0,1,2.91-.82h2.16v-.92a2,2,0,0,0-.58-1.59,2.7,2.7,0,0,0-1.83-.51,12.85,12.85,0,0,0-3.3.53l-.23-1.28a14.51,14.51,0,0,1,4-.69c2.52,0,3.79,1.1,3.79,3.3V301h-1.2l-.28-.69a5.35,5.35,0,0,1-3.07.94,3.65,3.65,0,0,1-2.45-.8A2.57,2.57,0,0,1,274.78,298.41Zm1.77-.15a1.66,1.66,0,0,0,.56,1.3,2.17,2.17,0,0,0,1.5.5,4.61,4.61,0,0,0,2.27-.63v-3.15H279a2.65,2.65,0,0,0-1.77.52A1.77,1.77,0,0,0,276.55,298.26Z"/><path class="cls-1" d="M285,300.5l.38-1.2a9.2,9.2,0,0,0,3.24.65,3,3,0,0,0,1.72-.42,1.46,1.46,0,0,0,.59-1.25,1,1,0,0,0-.32-.77,2.1,2.1,0,0,0-.83-.47c-.34-.11-.71-.22-1.12-.33l-1.23-.32a4.84,4.84,0,0,1-1.12-.44,2.27,2.27,0,0,1-.83-.8,2.4,2.4,0,0,1-.31-1.26,2.72,2.72,0,0,1,1.07-2.23,4.22,4.22,0,0,1,2.76-.87,10.18,10.18,0,0,1,3.38.6l-.44,1.18a9,9,0,0,0-2.86-.52,2.39,2.39,0,0,0-1.52.45,1.45,1.45,0,0,0-.58,1.19,1.13,1.13,0,0,0,.25.73,1.41,1.41,0,0,0,.65.46,7.33,7.33,0,0,0,.92.27l1,.23a6.6,6.6,0,0,1,1,.33,4.86,4.86,0,0,1,.91.48,1.88,1.88,0,0,1,.64.77,2.54,2.54,0,0,1,.25,1.18,2.77,2.77,0,0,1-1.06,2.3,4.58,4.58,0,0,1-2.93.84A9.17,9.17,0,0,1,285,300.5Z"/><path class="cls-1" d="M295.77,300a5.12,5.12,0,0,1-1.33-3.76,5.4,5.4,0,0,1,1.45-3.92,5.1,5.1,0,0,1,3.82-1.48,9.62,9.62,0,0,1,2.81.42l-.29,1.24a7.5,7.5,0,0,0-2.29-.33,3.36,3.36,0,0,0-2.63,1.1,4.1,4.1,0,0,0-1,2.89,3.87,3.87,0,0,0,1,2.82,3.61,3.61,0,0,0,2.71,1,8.79,8.79,0,0,0,2.36-.38l.29,1.16a8.79,8.79,0,0,1-3.11.59A5.11,5.11,0,0,1,295.77,300Z"/><path class="cls-1" d="M304.16,298.41a2.82,2.82,0,0,1,1-2.34,4.62,4.62,0,0,1,2.91-.82h2.15v-.92a2,2,0,0,0-.57-1.59,2.74,2.74,0,0,0-1.83-.51,12.72,12.72,0,0,0-3.3.53l-.23-1.28a14.44,14.44,0,0,1,4-.69q3.78,0,3.78,3.3V301h-1.19l-.28-.69a5.38,5.38,0,0,1-3.08.94,3.6,3.6,0,0,1-2.44-.8A2.58,2.58,0,0,1,304.16,298.41Zm1.78-.15a1.63,1.63,0,0,0,.56,1.3,2.16,2.16,0,0,0,1.49.5,4.58,4.58,0,0,0,2.27-.63v-3.15h-1.92a2.68,2.68,0,0,0-1.78.52A1.77,1.77,0,0,0,305.94,298.26Z"/><path class="cls-1" d="M314.38,300.5l.38-1.2A9.2,9.2,0,0,0,318,300a2.92,2.92,0,0,0,1.71-.42,1.43,1.43,0,0,0,.59-1.25,1,1,0,0,0-.32-.77,2,2,0,0,0-.83-.47c-.34-.11-.71-.22-1.12-.33l-1.22-.32a4.92,4.92,0,0,1-1.13-.44,2.24,2.24,0,0,1-.82-.8,2.41,2.41,0,0,1-.32-1.26,2.75,2.75,0,0,1,1.07-2.23,4.25,4.25,0,0,1,2.77-.87,10.22,10.22,0,0,1,3.38.6l-.44,1.18a9,9,0,0,0-2.86-.52,2.44,2.44,0,0,0-1.53.45,1.45,1.45,0,0,0-.57,1.19,1.13,1.13,0,0,0,.24.73,1.46,1.46,0,0,0,.65.46,7.87,7.87,0,0,0,.92.27l1.05.23a6.4,6.4,0,0,1,1,.33,5.19,5.19,0,0,1,.91.48,2,2,0,0,1,.64.77,2.67,2.67,0,0,1,.24,1.18,2.76,2.76,0,0,1-1.05,2.3,4.6,4.6,0,0,1-2.93.84A9.14,9.14,0,0,1,314.38,300.5Z"/><path class="cls-1" d="M78.25,326.17a5.7,5.7,0,0,1,1.31-3.91,4.49,4.49,0,0,1,3.51-1.47,5.78,5.78,0,0,1,2.53.57V316h1.82v15h-1.2l-.25-.76a4.75,4.75,0,0,1-3,1,4.46,4.46,0,0,1-3.47-1.35A5.31,5.31,0,0,1,78.25,326.17Zm1.86,0a4.28,4.28,0,0,0,.84,2.81,2.83,2.83,0,0,0,2.31,1,4,4,0,0,0,2.34-.77v-6.41a4.67,4.67,0,0,0-2.3-.65,2.78,2.78,0,0,0-2.31,1.1A4.49,4.49,0,0,0,80.11,326.13Z"/><path class="cls-1" d="M89.8,326.09a5.49,5.49,0,0,1,1.33-3.84,4.5,4.5,0,0,1,3.49-1.46,4.17,4.17,0,0,1,3,1.07,4,4,0,0,1,1.1,3,4.7,4.7,0,0,1-.19,1.3H91.62a4,4,0,0,0,1,2.8,3.6,3.6,0,0,0,2.69,1,7.48,7.48,0,0,0,3.14-.8l.35,1.06a8,8,0,0,1-4,1.07,5,5,0,0,1-3.72-1.37A5.26,5.26,0,0,1,89.8,326.09ZM91.71,325h5.34l0-.31a2.87,2.87,0,0,0-.65-2,2.41,2.41,0,0,0-1.85-.69,2.52,2.52,0,0,0-1.9.81A3.93,3.93,0,0,0,91.71,325Z"/><path class="cls-1" d="M105.82,328.82V316h1.81v12.52a1.41,1.41,0,0,0,.34,1.08,1.43,1.43,0,0,0,1,.32,2.25,2.25,0,0,0,.86-.18l.15,1.11a4.59,4.59,0,0,1-1.8.4,2.44,2.44,0,0,1-1.77-.61A2.52,2.52,0,0,1,105.82,328.82Z"/><path class="cls-1" d="M111.13,326.09a5.49,5.49,0,0,1,1.33-3.84,4.48,4.48,0,0,1,3.49-1.46,4.17,4.17,0,0,1,3,1.07,4,4,0,0,1,1.09,3,4.69,4.69,0,0,1-.18,1.3h-7a4,4,0,0,0,1,2.8,3.6,3.6,0,0,0,2.69,1,7.48,7.48,0,0,0,3.14-.8l.34,1.06a7.91,7.91,0,0,1-3.94,1.07,5,5,0,0,1-3.72-1.37A5.26,5.26,0,0,1,111.13,326.09ZM113,325h5.35l0-.31a2.87,2.87,0,0,0-.64-2,2.43,2.43,0,0,0-1.85-.69,2.5,2.5,0,0,0-1.9.81A4,4,0,0,0,113,325Z"/><path class="cls-1" d="M121.69,333.21a2.38,2.38,0,0,1,.55-1.56,3,3,0,0,1,1.38-1,1.88,1.88,0,0,1-.54-1.4,1.86,1.86,0,0,1,.29-1,2,2,0,0,1,.8-.75,3.31,3.31,0,0,1-1.55-1.23,3.53,3.53,0,0,1-.53-1.95,3.25,3.25,0,0,1,1.17-2.63,4.81,4.81,0,0,1,3.19-1,5.73,5.73,0,0,1,2.49.49l3.26-.19v1.26l-2,.12a3.94,3.94,0,0,1,.42,1.87,3.29,3.29,0,0,1-1.16,2.65,4.88,4.88,0,0,1-3.21,1,6.6,6.6,0,0,1-1-.08,1.3,1.3,0,0,0-.65,1.1c0,.59.42.88,1.26.88h2.06a4.31,4.31,0,0,1,2.66.74,2.4,2.4,0,0,1,1,2,3.16,3.16,0,0,1-1.39,2.73,6.49,6.49,0,0,1-3.82,1,6,6,0,0,1-3.41-.82A2.56,2.56,0,0,1,121.69,333.21Zm1.66-.18a1.69,1.69,0,0,0,.77,1.48,3.73,3.73,0,0,0,2.19.55,4.49,4.49,0,0,0,2.47-.6,1.81,1.81,0,0,0,.92-1.57,1.22,1.22,0,0,0-.55-1.08,2.72,2.72,0,0,0-1.56-.38h-1.68a3.9,3.9,0,0,1-1.34-.2,2.14,2.14,0,0,0-.9.74A1.79,1.79,0,0,0,123.35,333Zm.55-8.72a2.44,2.44,0,0,0,.63,1.79,2.36,2.36,0,0,0,1.74.64,2.54,2.54,0,0,0,1.83-.65,2.34,2.34,0,0,0,.68-1.78,2.51,2.51,0,0,0-.61-1.81,2.29,2.29,0,0,0-1.72-.62,2.67,2.67,0,0,0-1.87.64A2.37,2.37,0,0,0,123.9,324.31Z"/><path class="cls-1" d="M133.68,328.09V321h1.81v6.8a2,2,0,0,0,.58,1.54,2.49,2.49,0,0,0,1.75.54,5,5,0,0,0,2.4-.67V321H142v10h-1.17l-.31-.8a5.58,5.58,0,0,1-3.29,1,3.86,3.86,0,0,1-2.67-.83A3,3,0,0,1,133.68,328.09Z"/><path class="cls-1" d="M145.06,331V321h1.19l.3.8a5.89,5.89,0,0,1,3.24-1,3.47,3.47,0,0,1,2.91,1.1,6.11,6.11,0,0,1,3.52-1.1,3.7,3.7,0,0,1,2.57.81,3,3,0,0,1,.9,2.35V331h-1.81v-6.9a1.88,1.88,0,0,0-.57-1.48,2.37,2.37,0,0,0-1.61-.49,5.13,5.13,0,0,0-2.53.69,4.58,4.58,0,0,1,.12,1.08V331h-1.82v-6.92a1.9,1.9,0,0,0-.53-1.47,2.41,2.41,0,0,0-1.65-.48,4.79,4.79,0,0,0-2.42.69V331Z"/><path class="cls-1" d="M161.9,326.09a5.49,5.49,0,0,1,1.33-3.84,4.5,4.5,0,0,1,3.49-1.46,4.17,4.17,0,0,1,3,1.07,4,4,0,0,1,1.1,3,4.7,4.7,0,0,1-.19,1.3h-6.95a4,4,0,0,0,1,2.8,3.6,3.6,0,0,0,2.69,1,7.48,7.48,0,0,0,3.14-.8l.34,1.06a7.91,7.91,0,0,1-3.94,1.07,5,5,0,0,1-3.72-1.37A5.26,5.26,0,0,1,161.9,326.09Zm1.91-1.07h5.34l0-.31a2.87,2.87,0,0,0-.65-2,2.41,2.41,0,0,0-1.85-.69,2.52,2.52,0,0,0-1.9.81A3.93,3.93,0,0,0,163.81,325Z"/><path class="cls-1" d="M172.69,330.5l.38-1.2a9.2,9.2,0,0,0,3.24.65,3,3,0,0,0,1.72-.42,1.46,1.46,0,0,0,.59-1.25,1,1,0,0,0-.32-.77,2.1,2.1,0,0,0-.83-.47c-.34-.11-.71-.22-1.12-.33l-1.23-.32A4.84,4.84,0,0,1,174,326a2.27,2.27,0,0,1-.83-.8,2.4,2.4,0,0,1-.31-1.26,2.72,2.72,0,0,1,1.07-2.23,4.23,4.23,0,0,1,2.77-.87,10.16,10.16,0,0,1,3.37.6l-.43,1.18a9.1,9.1,0,0,0-2.87-.52,2.39,2.39,0,0,0-1.52.45,1.45,1.45,0,0,0-.58,1.19,1.13,1.13,0,0,0,.25.73,1.41,1.41,0,0,0,.65.46,7.33,7.33,0,0,0,.92.27l1,.23a6.6,6.6,0,0,1,1,.33,4.86,4.86,0,0,1,.91.48,1.88,1.88,0,0,1,.64.77,2.54,2.54,0,0,1,.25,1.18,2.74,2.74,0,0,1-1.06,2.3,4.58,4.58,0,0,1-2.93.84A9.17,9.17,0,0,1,172.69,330.5Z"/><path class="cls-1" d="M186.76,326.09a5.53,5.53,0,0,1,1.33-3.84,4.5,4.5,0,0,1,3.49-1.46,4.2,4.2,0,0,1,3,1.07,4.05,4.05,0,0,1,1.09,3,4.35,4.35,0,0,1-.19,1.3h-6.95a4,4,0,0,0,1,2.8,3.61,3.61,0,0,0,2.69,1,7.52,7.52,0,0,0,3.15-.8l.34,1.06a7.94,7.94,0,0,1-3.94,1.07,4.94,4.94,0,0,1-3.72-1.37A5.26,5.26,0,0,1,186.76,326.09Zm1.91-1.07H194l0-.31a2.87,2.87,0,0,0-.65-2,2.41,2.41,0,0,0-1.85-.69,2.5,2.5,0,0,0-1.89.81A3.94,3.94,0,0,0,188.67,325Z"/><path class="cls-1" d="M201.88,322.12V321h1.53v-1.91a3.4,3.4,0,0,1,.83-2.45,3.12,3.12,0,0,1,2.34-.86,7,7,0,0,1,2.23.34l-.19,1.22a4.85,4.85,0,0,0-1.48-.23q-1.86,0-1.86,2.19V321h2.38v1.22h-2.38V331h-1.87v-8.78Z"/><path class="cls-1" d="M209.48,331V321h1.19l.28.76a4.92,4.92,0,0,1,3-1,3,3,0,0,1,1,.16l-.21,1.32a5.86,5.86,0,0,0-.94-.07,4.88,4.88,0,0,0-2.55.69V331Z"/><path class="cls-1" d="M216.57,328.09V321h1.82v6.8a2,2,0,0,0,.58,1.54,2.45,2.45,0,0,0,1.74.54,5,5,0,0,0,2.4-.67V321h1.82v10h-1.17l-.31-.8a5.56,5.56,0,0,1-3.29,1,3.86,3.86,0,0,1-2.67-.83A3,3,0,0,1,216.57,328.09Z"/><path class="cls-1" d="M226.74,322.12V321h1.68l.42-3h1.4v3h3v1.22h-3v5.9a1.82,1.82,0,0,0,.45,1.34A1.8,1.8,0,0,0,232,330a3.25,3.25,0,0,0,1.47-.31l.16,1.11a5.33,5.33,0,0,1-2.35.53,2.93,2.93,0,0,1-2.14-.74,2.84,2.84,0,0,1-.75-2.12l0-6.17Z"/><path class="cls-1" d="M234.88,328.41a2.82,2.82,0,0,1,1-2.34,4.62,4.62,0,0,1,2.91-.82H241v-.92a2,2,0,0,0-.58-1.59,2.7,2.7,0,0,0-1.83-.51,12.72,12.72,0,0,0-3.29.53l-.24-1.28a14.51,14.51,0,0,1,4-.69q3.78,0,3.78,3.3V331h-1.2l-.27-.69a5.4,5.4,0,0,1-3.08.94,3.6,3.6,0,0,1-2.44-.8A2.58,2.58,0,0,1,234.88,328.41Zm1.78-.15a1.65,1.65,0,0,0,.55,1.3,2.21,2.21,0,0,0,1.5.5,4.61,4.61,0,0,0,2.27-.63v-3.15h-1.93a2.65,2.65,0,0,0-1.77.52A1.77,1.77,0,0,0,236.66,328.26Z"/><path class="cls-1" d="M245.09,330.5l.38-1.2a9.21,9.21,0,0,0,3.25.65,2.92,2.92,0,0,0,1.71-.42,1.46,1.46,0,0,0,.59-1.25,1,1,0,0,0-.32-.77,2.1,2.1,0,0,0-.83-.47c-.34-.11-.71-.22-1.12-.33l-1.22-.32a4.92,4.92,0,0,1-1.13-.44,2.17,2.17,0,0,1-.82-.8,2.41,2.41,0,0,1-.32-1.26,2.75,2.75,0,0,1,1.07-2.23,4.25,4.25,0,0,1,2.77-.87,10.27,10.27,0,0,1,3.38.6l-.44,1.18a9,9,0,0,0-2.86-.52,2.42,2.42,0,0,0-1.53.45,1.45,1.45,0,0,0-.57,1.19,1.13,1.13,0,0,0,.24.73,1.46,1.46,0,0,0,.65.46,7.87,7.87,0,0,0,.92.27l1.05.23a6.29,6.29,0,0,1,1,.33,4.57,4.57,0,0,1,.91.48,2,2,0,0,1,.65.77,2.67,2.67,0,0,1,.24,1.18,2.74,2.74,0,0,1-1.06,2.3,4.55,4.55,0,0,1-2.92.84A9.22,9.22,0,0,1,245.09,330.5Z"/><path class="cls-1" d="M253.75,334.28a6.77,6.77,0,0,0,.69-1.37,4.37,4.37,0,0,0,.24-1.5,4.64,4.64,0,0,0-.33-1.71l1.66-.42a4.4,4.4,0,0,1,.33,1.77,5.75,5.75,0,0,1-1.61,3.76Z"/><path class="cls-1" d="M264,330a5.08,5.08,0,0,1-1.33-3.76,5.36,5.36,0,0,1,1.45-3.92,5.1,5.1,0,0,1,3.82-1.48,9.67,9.67,0,0,1,2.81.42l-.29,1.24a7.54,7.54,0,0,0-2.29-.33,3.36,3.36,0,0,0-2.63,1.1,4.1,4.1,0,0,0-1,2.89,3.91,3.91,0,0,0,1,2.82,3.65,3.65,0,0,0,2.72,1,8.79,8.79,0,0,0,2.36-.38l.29,1.16a8.79,8.79,0,0,1-3.11.59A5.11,5.11,0,0,1,264,330Z"/><path class="cls-1" d="M272.38,328.41a2.82,2.82,0,0,1,1-2.34,4.62,4.62,0,0,1,2.91-.82h2.16v-.92a2,2,0,0,0-.58-1.59,2.7,2.7,0,0,0-1.83-.51,12.72,12.72,0,0,0-3.29.53l-.24-1.28a14.51,14.51,0,0,1,4-.69q3.78,0,3.78,3.3V331h-1.2l-.27-.69a5.4,5.4,0,0,1-3.08.94,3.6,3.6,0,0,1-2.44-.8A2.58,2.58,0,0,1,272.38,328.41Zm1.78-.15a1.65,1.65,0,0,0,.55,1.3,2.21,2.21,0,0,0,1.5.5,4.61,4.61,0,0,0,2.27-.63v-3.15h-1.93a2.65,2.65,0,0,0-1.77.52A1.77,1.77,0,0,0,274.16,328.26Z"/><path class="cls-1" d="M282.59,330.5l.38-1.2a9.21,9.21,0,0,0,3.25.65,2.92,2.92,0,0,0,1.71-.42,1.46,1.46,0,0,0,.59-1.25,1,1,0,0,0-.32-.77,2.1,2.1,0,0,0-.83-.47c-.34-.11-.71-.22-1.12-.33l-1.22-.32a4.92,4.92,0,0,1-1.13-.44,2.17,2.17,0,0,1-.82-.8,2.41,2.41,0,0,1-.32-1.26,2.75,2.75,0,0,1,1.07-2.23,4.25,4.25,0,0,1,2.77-.87,10.27,10.27,0,0,1,3.38.6l-.44,1.18a9,9,0,0,0-2.86-.52,2.42,2.42,0,0,0-1.53.45,1.45,1.45,0,0,0-.57,1.19,1.13,1.13,0,0,0,.24.73,1.46,1.46,0,0,0,.65.46,7.87,7.87,0,0,0,.92.27l1.05.23a6.29,6.29,0,0,1,1,.33,4.57,4.57,0,0,1,.91.48,2,2,0,0,1,.65.77,2.67,2.67,0,0,1,.24,1.18,2.74,2.74,0,0,1-1.06,2.3,4.55,4.55,0,0,1-2.92.84A9.22,9.22,0,0,1,282.59,330.5Z"/><path class="cls-1" d="M293.38,330a5.08,5.08,0,0,1-1.33-3.76,5.36,5.36,0,0,1,1.45-3.92,5.06,5.06,0,0,1,3.81-1.48,9.62,9.62,0,0,1,2.81.42l-.29,1.24a7.48,7.48,0,0,0-2.28-.33,3.38,3.38,0,0,0-2.64,1.1,4.14,4.14,0,0,0-1,2.89,3.87,3.87,0,0,0,1,2.82,3.63,3.63,0,0,0,2.71,1,8.92,8.92,0,0,0,2.37-.38l.28,1.16a8.73,8.73,0,0,1-3.1.59A5.08,5.08,0,0,1,293.38,330Z"/><path class="cls-1" d="M301.76,328.41a2.82,2.82,0,0,1,1-2.34,4.62,4.62,0,0,1,2.91-.82h2.16v-.92a2,2,0,0,0-.58-1.59,2.74,2.74,0,0,0-1.83-.51,12.85,12.85,0,0,0-3.3.53l-.23-1.28a14.44,14.44,0,0,1,4-.69q3.78,0,3.78,3.3V331h-1.19l-.28-.69a5.37,5.37,0,0,1-3.07.94,3.63,3.63,0,0,1-2.45-.8A2.58,2.58,0,0,1,301.76,328.41Zm1.78-.15a1.66,1.66,0,0,0,.56,1.3,2.17,2.17,0,0,0,1.5.5,4.61,4.61,0,0,0,2.27-.63v-3.15h-1.93a2.7,2.7,0,0,0-1.78.52A1.8,1.8,0,0,0,303.54,328.26Z"/><path class="cls-1" d="M312,330.5l.38-1.2a9.2,9.2,0,0,0,3.24.65,2.92,2.92,0,0,0,1.71-.42,1.44,1.44,0,0,0,.6-1.25,1,1,0,0,0-.33-.77,2,2,0,0,0-.83-.47c-.33-.11-.71-.22-1.11-.33l-1.23-.32a4.84,4.84,0,0,1-1.12-.44,2.19,2.19,0,0,1-.83-.8,2.41,2.41,0,0,1-.32-1.26,2.75,2.75,0,0,1,1.07-2.23,4.27,4.27,0,0,1,2.77-.87,10.18,10.18,0,0,1,3.38.6l-.44,1.18a9,9,0,0,0-2.86-.52,2.39,2.39,0,0,0-1.52.45,1.43,1.43,0,0,0-.58,1.19,1.08,1.08,0,0,0,.25.73,1.41,1.41,0,0,0,.65.46,7.33,7.33,0,0,0,.92.27l1,.23a6.4,6.4,0,0,1,1.05.33,5.19,5.19,0,0,1,.91.48,1.88,1.88,0,0,1,.64.77,2.67,2.67,0,0,1,.24,1.18,2.76,2.76,0,0,1-1.05,2.3,4.58,4.58,0,0,1-2.93.84A9.14,9.14,0,0,1,312,330.5Z"/><path class="cls-1" d="M103.56,356.17a5.66,5.66,0,0,1,1.32-3.91,4.47,4.47,0,0,1,3.5-1.47,5.75,5.75,0,0,1,2.53.57V346h1.82v15h-1.19l-.26-.76a4.73,4.73,0,0,1-3,1,4.48,4.48,0,0,1-3.47-1.35A5.31,5.31,0,0,1,103.56,356.17Zm1.87,0a4.28,4.28,0,0,0,.83,2.81,2.84,2.84,0,0,0,2.31,1,4,4,0,0,0,2.34-.77v-6.41a4.64,4.64,0,0,0-2.3-.65,2.78,2.78,0,0,0-2.31,1.1A4.54,4.54,0,0,0,105.43,356.13Z"/><path class="cls-1" d="M115.11,356.09a5.53,5.53,0,0,1,1.33-3.84,4.5,4.5,0,0,1,3.49-1.46,4.16,4.16,0,0,1,3,1.07,4,4,0,0,1,1.1,3,4.35,4.35,0,0,1-.19,1.3h-6.95a4,4,0,0,0,1,2.8,3.61,3.61,0,0,0,2.69,1,7.52,7.52,0,0,0,3.15-.8l.34,1.06a7.94,7.94,0,0,1-3.94,1.07,5,5,0,0,1-3.73-1.37A5.3,5.3,0,0,1,115.11,356.09ZM117,355h5.34l0-.31a2.87,2.87,0,0,0-.65-2,2.41,2.41,0,0,0-1.85-.69,2.5,2.5,0,0,0-1.89.81A3.94,3.94,0,0,0,117,355Z"/><path class="cls-1" d="M130.43,356.13a5.58,5.58,0,0,1,1.28-3.94,4.7,4.7,0,0,1,3.65-1.4,4.46,4.46,0,0,1,3.47,1.34,6.63,6.63,0,0,1-.05,7.76,5.31,5.31,0,0,1-7.11.05A5.36,5.36,0,0,1,130.43,356.13Zm1.86-.08a4.73,4.73,0,0,0,.76,2.89,2.56,2.56,0,0,0,2.16,1,2.62,2.62,0,0,0,2.21-1,4.67,4.67,0,0,0,.78-2.89,4.92,4.92,0,0,0-.74-2.92,2.42,2.42,0,0,0-2.1-1,2.71,2.71,0,0,0-2.27,1A4.64,4.64,0,0,0,132.29,356.05Z"/><path class="cls-1" d="M141.11,351.21V351H143l2.73,8.76,2.74-8.76h1.78v.18L146.72,361h-2.19Z"/><path class="cls-1" d="M151.34,356.13a5.58,5.58,0,0,1,1.29-3.94,4.7,4.7,0,0,1,3.65-1.4,4.46,4.46,0,0,1,3.47,1.34A5.51,5.51,0,0,1,161,356a5.57,5.57,0,0,1-1.28,3.9,4.66,4.66,0,0,1-3.58,1.39,4.61,4.61,0,0,1-3.53-1.34A5.37,5.37,0,0,1,151.34,356.13Zm1.87-.08a4.73,4.73,0,0,0,.76,2.89,2.54,2.54,0,0,0,2.15,1,2.64,2.64,0,0,0,2.22-1,4.67,4.67,0,0,0,.78-2.89,4.92,4.92,0,0,0-.74-2.92,2.42,2.42,0,0,0-2.1-1,2.71,2.71,0,0,0-2.27,1A4.58,4.58,0,0,0,153.21,356.05Z"/><path class="cls-1" d="M162.8,360.5l.38-1.2a9.2,9.2,0,0,0,3.24.65,3,3,0,0,0,1.72-.42,1.46,1.46,0,0,0,.59-1.25,1,1,0,0,0-.33-.77,2,2,0,0,0-.83-.47c-.33-.11-.71-.22-1.11-.33l-1.23-.32a4.84,4.84,0,0,1-1.12-.44,2.19,2.19,0,0,1-.83-.8,2.4,2.4,0,0,1-.31-1.26,2.74,2.74,0,0,1,1.06-2.23,4.27,4.27,0,0,1,2.77-.87,10.18,10.18,0,0,1,3.38.6l-.44,1.18a9,9,0,0,0-2.86-.52,2.39,2.39,0,0,0-1.52.45,1.43,1.43,0,0,0-.58,1.19,1.08,1.08,0,0,0,.25.73,1.41,1.41,0,0,0,.65.46,7.33,7.33,0,0,0,.92.27l1,.23a6.4,6.4,0,0,1,1.05.33,5.19,5.19,0,0,1,.91.48,1.88,1.88,0,0,1,.64.77,2.67,2.67,0,0,1,.24,1.18,2.76,2.76,0,0,1-1,2.3,4.58,4.58,0,0,1-2.93.84A9.14,9.14,0,0,1,162.8,360.5Z"/><path class="cls-1" d="M196.07,361V346h1.82v5.36a6.25,6.25,0,0,1,2.66-.58,4.23,4.23,0,0,1,3.35,1.35,5.55,5.55,0,0,1,1.18,3.79,5.72,5.72,0,0,1-1.26,3.92,4.86,4.86,0,0,1-6.33.48l-.31.7Zm1.82-2a3.86,3.86,0,0,0,2.26.82,2.8,2.8,0,0,0,2.31-1,4.59,4.59,0,0,0,.81-2.93,4.4,4.4,0,0,0-.8-2.82,2.75,2.75,0,0,0-2.26-1,4.79,4.79,0,0,0-2.32.61Z"/><path class="cls-1" d="M206.86,356.13a5.58,5.58,0,0,1,1.29-3.94,4.68,4.68,0,0,1,3.65-1.4,4.46,4.46,0,0,1,3.47,1.34,6.6,6.6,0,0,1-.06,7.76,5.3,5.3,0,0,1-7.1.05A5.37,5.37,0,0,1,206.86,356.13Zm1.87-.08a4.73,4.73,0,0,0,.76,2.89,2.53,2.53,0,0,0,2.15,1,2.65,2.65,0,0,0,2.22-1,4.67,4.67,0,0,0,.78-2.89,4.92,4.92,0,0,0-.74-2.92,2.42,2.42,0,0,0-2.1-1,2.71,2.71,0,0,0-2.27,1A4.58,4.58,0,0,0,208.73,356.05Z"/><path class="cls-1" d="M218.84,361V351H220l.28.76a4.9,4.9,0,0,1,3-1,3,3,0,0,1,1,.16l-.2,1.32a5.86,5.86,0,0,0-.94-.07,4.91,4.91,0,0,0-2.56.69V361Z"/><path class="cls-1" d="M226,361V351h1.19l.29.76a4.87,4.87,0,0,1,3-1,3,3,0,0,1,1,.16l-.21,1.32a5.65,5.65,0,0,0-.93-.07,4.91,4.91,0,0,0-2.56.69V361Z"/><path class="cls-1" d="M232.63,358.41a2.82,2.82,0,0,1,1-2.34,4.62,4.62,0,0,1,2.91-.82h2.16v-.92a2,2,0,0,0-.58-1.59,2.74,2.74,0,0,0-1.83-.51,12.79,12.79,0,0,0-3.3.53l-.23-1.28a14.44,14.44,0,0,1,4-.69q3.78,0,3.78,3.3V361h-1.19l-.28-.69a5.37,5.37,0,0,1-3.07.94,3.63,3.63,0,0,1-2.45-.8A2.58,2.58,0,0,1,232.63,358.41Zm1.78-.15a1.66,1.66,0,0,0,.56,1.3,2.17,2.17,0,0,0,1.5.5,4.61,4.61,0,0,0,2.27-.63v-3.15h-1.93a2.7,2.7,0,0,0-1.78.52A1.8,1.8,0,0,0,234.41,358.26Z"/><path class="cls-1" d="M247.37,356.17a5.66,5.66,0,0,1,1.32-3.91,4.45,4.45,0,0,1,3.5-1.47,5.78,5.78,0,0,1,2.53.57V346h1.82v15h-1.2l-.25-.76a4.75,4.75,0,0,1-3,1,4.46,4.46,0,0,1-3.47-1.35A5.31,5.31,0,0,1,247.37,356.17Zm1.86,0a4.28,4.28,0,0,0,.84,2.81,2.83,2.83,0,0,0,2.31,1,4,4,0,0,0,2.34-.77v-6.41a4.64,4.64,0,0,0-2.3-.65,2.78,2.78,0,0,0-2.31,1.1A4.55,4.55,0,0,0,249.23,356.13Z"/><path class="cls-1" d="M258.92,356.09a5.49,5.49,0,0,1,1.33-3.84,4.5,4.5,0,0,1,3.49-1.46,4.16,4.16,0,0,1,3,1.07,4,4,0,0,1,1.1,3,4.7,4.7,0,0,1-.19,1.3h-6.95a4,4,0,0,0,1,2.8,3.61,3.61,0,0,0,2.69,1,7.48,7.48,0,0,0,3.14-.8l.35,1.06a8,8,0,0,1-3.95,1.07,5,5,0,0,1-3.72-1.37A5.3,5.3,0,0,1,258.92,356.09Zm1.91-1.07h5.34l0-.31a2.87,2.87,0,0,0-.65-2,2.41,2.41,0,0,0-1.85-.69,2.5,2.5,0,0,0-1.89.81A3.94,3.94,0,0,0,260.83,355Z"/><path class="cls-1" d="M275.56,360a5.12,5.12,0,0,1-1.33-3.76,5.4,5.4,0,0,1,1.45-3.92,5.1,5.1,0,0,1,3.82-1.48,9.62,9.62,0,0,1,2.81.42l-.29,1.24a7.5,7.5,0,0,0-2.29-.33,3.36,3.36,0,0,0-2.63,1.1,4.1,4.1,0,0,0-1,2.89,3.87,3.87,0,0,0,1,2.82,3.61,3.61,0,0,0,2.71,1,8.92,8.92,0,0,0,2.37-.38l.28,1.16a8.79,8.79,0,0,1-3.11.59A5.11,5.11,0,0,1,275.56,360Z"/><path class="cls-1" d="M284,358.41a2.82,2.82,0,0,1,1-2.34,4.62,4.62,0,0,1,2.91-.82h2.16v-.92a2,2,0,0,0-.58-1.59,2.74,2.74,0,0,0-1.83-.51,12.72,12.72,0,0,0-3.3.53l-.23-1.28a14.44,14.44,0,0,1,4-.69q3.78,0,3.78,3.3V361h-1.19l-.28-.69a5.38,5.38,0,0,1-3.08.94,3.6,3.6,0,0,1-2.44-.8A2.58,2.58,0,0,1,284,358.41Zm1.78-.15a1.63,1.63,0,0,0,.56,1.3,2.16,2.16,0,0,0,1.49.5,4.65,4.65,0,0,0,2.28-.63v-3.15h-1.93a2.68,2.68,0,0,0-1.78.52A1.8,1.8,0,0,0,285.73,358.26Z"/><path class="cls-1" d="M293.87,352.12V351h1.54v-1.91a3.39,3.39,0,0,1,.82-2.45,3.13,3.13,0,0,1,2.34-.86,7.15,7.15,0,0,1,2.24.34l-.2,1.22a4.8,4.8,0,0,0-1.48-.23q-1.86,0-1.86,2.19V351h2.38v1.22h-2.38V361h-1.86v-8.78Z"/><path class="cls-1" d="M300.43,356.09a5.53,5.53,0,0,1,1.32-3.84,4.51,4.51,0,0,1,3.49-1.46,4.18,4.18,0,0,1,3.05,1.07,4,4,0,0,1,1.09,3,4.69,4.69,0,0,1-.18,1.3h-7a4,4,0,0,0,1,2.8,3.58,3.58,0,0,0,2.69,1,7.48,7.48,0,0,0,3.14-.8l.34,1.06a7.94,7.94,0,0,1-3.94,1.07,5,5,0,0,1-3.72-1.37A5.26,5.26,0,0,1,300.43,356.09Zm1.9-1.07h5.34l0-.31a2.87,2.87,0,0,0-.65-2,2.41,2.41,0,0,0-1.84-.69,2.5,2.5,0,0,0-1.9.81A3.94,3.94,0,0,0,302.33,355Zm1.85-6.35,3.54-3.46,1.11,1.07L305,349.39Z"/><path class="cls-1" d="M179,356.08a5.5,5.5,0,0,1,1.33-3.84,4.47,4.47,0,0,1,3.49-1.47,4.2,4.2,0,0,1,3,1.07,4.08,4.08,0,0,1,1.09,3,4.29,4.29,0,0,1-.19,1.29h-6.95a4,4,0,0,0,1,2.8,3.57,3.57,0,0,0,2.69,1,7.37,7.37,0,0,0,3.15-.8l.34,1.07a7.93,7.93,0,0,1-3.94,1.06,5,5,0,0,1-3.73-1.37A5.29,5.29,0,0,1,179,356.08Zm1.91-1.08h5.34l0-.3a2.84,2.84,0,0,0-.65-2,2.38,2.38,0,0,0-1.85-.7,2.5,2.5,0,0,0-1.89.81A4,4,0,0,0,180.93,355Z"/><path class="cls-2" d="M201.71,57.9l.81-10.8S194.93,42.64,199,39s7,1.57,7,1.57,4.16-5.39,6.89-1.1-3.88,6.84-3.88,6.84l-1.4,11.77-5.65.36"/><path class="cls-3" d="M203.08,57.54a7.46,7.46,0,0,1-1.51-.24c-2.78,2.59-26.78,25.9-10.15,42.83a25.44,25.44,0,0,0,3.05,2.68c6.13-7.3,20.17-27.27,8.61-45.27"/><path class="cls-4" d="M203.08,57.54c11.56,18-2.48,38-8.61,45.27,15.68,11.54,24.18-17,24.18-17s3-16.91-10.94-29a12.69,12.69,0,0,1-4.63.7"/><path class="cls-5" d="M171.55,61.94a6.2,6.2,0,0,0-5-7.29,7.43,7.43,0,0,0-1.36-4.75,7.63,7.63,0,0,0-9.13-2.53,9.43,9.43,0,0,0-1-1.86c-2.5-3.51-6.95-4.64-9.93-2.51-2.66,1.89-3.25,5.73-1.58,9a7.1,7.1,0,0,0-1.27,9.41,6.71,6.71,0,0,0,4.14,2.69,7.58,7.58,0,0,0,.51,7.67,7.41,7.41,0,0,0,5.86,3,10.14,10.14,0,0,0,1.72,4c3,4.15,8.37,5.4,12.32,2.94a40.47,40.47,0,0,1,9.6,9.62l1.34-1,.49-.35,1.34-1a40.78,40.78,0,0,1-5.72-11.42l.12-.2c3.39-3,3.88-8.34,1-12.39a10.27,10.27,0,0,0-3.24-2.94Z"/><path class="cls-6" d="M178,90a.28.28,0,0,1-.41-.07l-32.78-46a.28.28,0,0,1,.07-.41.3.3,0,0,1,.41.07l32.78,46A.29.29,0,0,1,178,90"/><path class="cls-6" d="M156,59a9,9,0,0,1-4,1.44,20.06,20.06,0,0,1-4.42.06,32.85,32.85,0,0,1-5.05-.88.29.29,0,0,1-.2-.37.28.28,0,0,1,.36-.2,31.55,31.55,0,0,0,5,.86c2.47.21,5.88.15,8-1.39a.29.29,0,0,1,.41.07A.3.3,0,0,1,156,59"/><path class="cls-6" d="M158.2,62a.29.29,0,0,1-.34-.48c2.71-1.93,3.83-5.12,4.29-7.45a19.45,19.45,0,0,0,.36-4.67.31.31,0,0,1,.27-.32.3.3,0,0,1,.32.28,19.76,19.76,0,0,1-.37,4.83,15.36,15.36,0,0,1-1.41,4.15A10.2,10.2,0,0,1,158.2,62"/><path class="cls-6" d="M163.55,69.64a8.83,8.83,0,0,1-4.18,1.43,22.13,22.13,0,0,1-4.66,0,34,34,0,0,1-5.38-1,.29.29,0,0,1-.2-.37.3.3,0,0,1,.36-.2,33.31,33.31,0,0,0,5.29,1c2.63.28,6.23.28,8.43-1.28a.29.29,0,0,1,.34.48"/><path class="cls-6" d="M161.84,67.15a.3.3,0,0,1-.41-.07.28.28,0,0,1,.07-.41,21.33,21.33,0,0,0,5.38-5.82,21.88,21.88,0,0,0,1.68-3.16.28.28,0,0,1,.38-.17.3.3,0,0,1,.17.38,22.83,22.83,0,0,1-7.27,9.25"/><path class="cls-6" d="M169.64,78.18a8.8,8.8,0,0,1-3.71,1.44,15.52,15.52,0,0,1-3.83.1,22,22,0,0,1-4.21-.8.31.31,0,0,1-.19-.38.3.3,0,0,1,.37-.19,20.65,20.65,0,0,0,4.1.78c2.08.18,5,.08,7.12-1.43a.31.31,0,0,1,.42.07.3.3,0,0,1-.07.41"/><path class="cls-6" d="M170.06,73.33a12.4,12.4,0,0,1-2.87,1.55.29.29,0,0,1-.38-.18.31.31,0,0,1,.18-.38,11.81,11.81,0,0,0,3.1-1.76A10.11,10.11,0,0,0,174,66.49a.29.29,0,0,1,.34-.24.3.3,0,0,1,.24.35,10,10,0,0,1-1.66,3.89,12,12,0,0,1-2.48,2.56l-.38.28"/><path class="cls-7" d="M179.71,62a6.37,6.37,0,0,0,.24-4.9,6.3,6.3,0,0,0-3.17-3.43,7.42,7.42,0,0,0-.08-4.94A7.63,7.63,0,0,0,168.54,44,9,9,0,0,0,168,41.9c-1.51-4-5.51-6.28-8.94-5-3.06,1.14-4.63,4.69-3.86,8.31A7.11,7.11,0,0,0,151.57,54a6.73,6.73,0,0,0,3.3,3.67,7.52,7.52,0,0,0-1.49,7.53,7.38,7.38,0,0,0,4.87,4.45,10.29,10.29,0,0,0,.62,4.34c1.78,4.77,6.69,7.38,11.14,6a40.41,40.41,0,0,1,6.79,11.78l1.54-.57.56-.21,1.54-.57a41.15,41.15,0,0,1-2.57-12.52,1.29,1.29,0,0,0,.17-.16c4-2,5.9-7,4.17-11.71a10.24,10.24,0,0,0-2.37-3.67Z"/><path class="cls-6" d="M178.72,90.81a.3.3,0,0,1-.38-.18L158.58,37.69a.3.3,0,0,1,.18-.38.3.3,0,0,1,.38.17l19.76,53a.29.29,0,0,1-.18.38"/><path class="cls-6" d="M165.42,55.15a9,9,0,0,1-4.26.35,19.8,19.8,0,0,1-4.28-1.09,30.15,30.15,0,0,1-4.66-2.16.29.29,0,0,1-.1-.4.29.29,0,0,1,.41-.1,30.52,30.52,0,0,0,4.56,2.11c2.33.85,5.64,1.67,8.13.74a.3.3,0,0,1,.38.17.3.3,0,0,1-.18.38"/><path class="cls-6" d="M166.81,58.59a.3.3,0,0,1-.38-.17.29.29,0,0,1,.17-.38c3.12-1.17,5-4,6.08-6.09a19,19,0,0,0,1.55-4.42.3.3,0,0,1,.58.11,19.39,19.39,0,0,1-1.6,4.57,15.6,15.6,0,0,1-2.44,3.65,10.21,10.21,0,0,1-4,2.73"/><path class="cls-6" d="M170,67.4a8.92,8.92,0,0,1-4.4.3,21.24,21.24,0,0,1-4.5-1.25,34.25,34.25,0,0,1-4.93-2.39.3.3,0,0,1,.31-.51,32,32,0,0,0,4.85,2.35c2.46.95,5.94,1.89,8.47.95a.3.3,0,0,1,.38.17.29.29,0,0,1-.18.38"/><path class="cls-6" d="M169,64.55a.3.3,0,0,1-.38-.17.31.31,0,0,1,.18-.39,22.3,22.3,0,0,0,9.14-6.84.29.29,0,0,1,.41-.07.31.31,0,0,1,.07.42,21.34,21.34,0,0,1-2.52,2.71,21.77,21.77,0,0,1-6.9,4.34"/><path class="cls-6" d="M173.66,77.23a8.77,8.77,0,0,1-4,.42,14.87,14.87,0,0,1-3.71-.89,21.15,21.15,0,0,1-3.86-1.86.3.3,0,1,1,.32-.5,20.42,20.42,0,0,0,3.75,1.81c2,.71,4.82,1.37,7.26.46a.3.3,0,0,1,.38.17.31.31,0,0,1-.18.39"/><path class="cls-6" d="M175.32,72.64a11.83,11.83,0,0,1-3.17.76.29.29,0,0,1-.32-.27.31.31,0,0,1,.27-.32,12.26,12.26,0,0,0,3.46-.89,10.18,10.18,0,0,0,5.34-4.86.29.29,0,0,1,.39-.14.29.29,0,0,1,.14.39,9.83,9.83,0,0,1-2.61,3.33,11.51,11.51,0,0,1-3.06,1.83l-.44.17"/><path class="cls-8" d="M191.24,64.81a6.42,6.42,0,0,0,2.12-4.42A6.33,6.33,0,0,0,191.77,56a7.36,7.36,0,0,0,1.84-4.58A7.63,7.63,0,0,0,188,43.81a8.86,8.86,0,0,0,.33-2.08c.18-4.31-2.64-7.93-6.3-8.08-3.26-.14-6.08,2.53-6.78,6.16a7.12,7.12,0,0,0-6.78,6.66A6.74,6.74,0,0,0,170,51.13a7.59,7.59,0,0,0-4.3,6.37,7.41,7.41,0,0,0,2.77,6,10.1,10.1,0,0,0-1.11,4.24c-.21,5.08,3.3,9.39,7.93,9.87A40.66,40.66,0,0,1,177,91.09l1.64.07.6,0,1.64.07a40.84,40.84,0,0,1,2.49-12.53l.22-.09c4.5-.27,8.18-4.21,8.38-9.17a10.06,10.06,0,0,0-.75-4.3Z"/><path class="cls-6" d="M179.16,91a.3.3,0,0,1-.29-.31l2.34-56.46a.3.3,0,1,1,.59,0l-2.33,56.46a.3.3,0,0,1-.31.28"/><path class="cls-6" d="M180.74,52.93a9,9,0,0,1-4.07-1.33,20.19,20.19,0,0,1-3.52-2.67,30,30,0,0,1-3.45-3.8.29.29,0,1,1,.47-.35,30.77,30.77,0,0,0,3.39,3.72c1.82,1.69,4.55,3.73,7.2,3.84a.28.28,0,0,1,.28.3.29.29,0,0,1-.3.29"/><path class="cls-6" d="M180.68,56.64a.3.3,0,0,1-.28-.31.3.3,0,0,1,.31-.29c3.32.14,6.16-1.69,8-3.25a19.15,19.15,0,0,0,3.14-3.47.3.3,0,0,1,.41-.08.29.29,0,0,1,.09.41,19.85,19.85,0,0,1-3.25,3.59,15.35,15.35,0,0,1-3.67,2.41,10.28,10.28,0,0,1-4.71,1"/><path class="cls-6" d="M180.2,66A8.91,8.91,0,0,1,176,64.55a20.76,20.76,0,0,1-3.66-2.89,35.56,35.56,0,0,1-3.62-4.12.3.3,0,0,1,.07-.41.28.28,0,0,1,.41.07,34.3,34.3,0,0,0,3.56,4c1.9,1.84,4.74,4.05,7.44,4.16a.29.29,0,0,1,.28.31.28.28,0,0,1-.3.28"/><path class="cls-6" d="M180.37,63a.29.29,0,0,1-.28-.31.28.28,0,0,1,.3-.28,21.1,21.1,0,0,0,7.82-1.29,20.51,20.51,0,0,0,3.27-1.48.29.29,0,0,1,.4.11.28.28,0,0,1-.1.4,20.72,20.72,0,0,1-3.37,1.53,22,22,0,0,1-8,1.32"/><path class="cls-6" d="M179.76,76.47A8.84,8.84,0,0,1,176,75.33a15.29,15.29,0,0,1-3.08-2.27A20,20,0,0,1,170,69.84a.29.29,0,0,1,.07-.41.3.3,0,0,1,.41.08,20.77,20.77,0,0,0,2.76,3.13c1.53,1.42,3.91,3.13,6.51,3.24a.29.29,0,0,1,.28.31.29.29,0,0,1-.31.28"/><path class="cls-6" d="M183.07,72.89a12.72,12.72,0,0,1-3.22-.53.3.3,0,0,1-.19-.38.31.31,0,0,1,.38-.18,12.42,12.42,0,0,0,3.53.51,10.09,10.09,0,0,0,6.81-2.41.3.3,0,0,1,.39.45,10.22,10.22,0,0,1-3.7,2.06,11.89,11.89,0,0,1-3.52.49h-.48"/><path class="cls-3" d="M195.94,98.86c.76.72,1.21,1,1.87.32s.56-2.56,1.53-3.36,1,.94,2.13-.12.41-2,1.32-2.46c-.56-1-1.16-2.18-1.78-3.46-2.73-5.66-.56-6.67-2-10.56s-.06-8.15-3.82-21.31-11.93-15.76-13.68-14.28-5.32,2.69-9,17.39,20.57,33.4,20.57,33.4c.54.72,1,2.89,1.28,5.4.32-.55,1-1.49,1.54-1"/><path class="cls-2" d="M207.21,106.51l-1.07-7.84a50,50,0,0,1-3.35-5.43c-.91.46-.23,1.4-1.32,2.46s-1.17-.67-2.13.12-.88,2.69-1.53,3.36-1.11.4-1.87-.32c-.56-.53-1.22.41-1.54,1a54.76,54.76,0,0,1,.43,9.63,3.87,3.87,0,0,0,2.5,3.92s7.4.94,10.06-1.74-.1-4.6-.18-5.12"/><path class="cls-4" d="M180.21,71.82c2.38,5.41,6.32,8.92,8.8,7.83s2.57-6.36.2-11.78S182.89,59,180.41,60s-2.58,6.36-.2,11.78"/><polygon class="cls-9" points="239.65 50.75 224.26 108.36 226.65 109 243.35 46.46 239.65 50.75"/><polygon class="cls-10" points="244.43 52.03 243.37 46.44 243.35 46.47 226.65 109 229.04 109.64 244.43 52.03"/><path class="cls-11" d="M241.52,52.9c-.35,1.31-1,1.37-1.79,1.17s-1.31-.6-1-1.91A7.65,7.65,0,0,1,241,49.33a7.68,7.68,0,0,1,.52,3.57"/><path class="cls-11" d="M244.91,51.67c-.32,1.2-.94,1.26-1.64,1.07s-1.21-.54-.89-1.75a7.15,7.15,0,0,1,2.05-2.6,7.08,7.08,0,0,1,.48,3.28"/><path class="cls-11" d="M243.63,58c-.45,1.28-1.13,1.3-1.87,1s-1.26-.69-.82-2a7.77,7.77,0,0,1,2.44-2.67s.7,2.33.25,3.6"/><path class="cls-11" d="M238.85,61.35c-.24,1.34-.91,1.46-1.68,1.32s-1.36-.49-1.12-1.82a7.71,7.71,0,0,1,2-3,7.69,7.69,0,0,1,.81,3.51"/><path class="cls-11" d="M241.47,66.33c-.45,1.28-1.13,1.3-1.87,1s-1.26-.7-.81-2a7.61,7.61,0,0,1,2.43-2.66,7.65,7.65,0,0,1,.25,3.6"/><path class="cls-11" d="M236.93,68.84c-.24,1.33-.91,1.45-1.68,1.31s-1.36-.48-1.12-1.82a7.82,7.82,0,0,1,2-3,7.7,7.7,0,0,1,.81,3.52"/><path class="cls-11" d="M239.08,75.29c-.45,1.28-1.13,1.29-1.87,1s-1.26-.69-.82-2a7.71,7.71,0,0,1,2.44-2.66,7.65,7.65,0,0,1,.25,3.6"/><path class="cls-11" d="M234.38,76.29c-.21,1.17-.8,1.27-1.48,1.15s-1.19-.43-1-1.6a6.78,6.78,0,0,1,1.75-2.65,6.68,6.68,0,0,1,.71,3.1"/><polygon class="cls-9" points="245.49 56.23 230.1 113.84 232.49 114.48 249.19 51.94 245.49 56.23"/><polygon class="cls-10" points="250.27 57.5 249.21 51.92 249.19 51.94 232.49 114.48 234.88 115.11 250.27 57.5"/><path class="cls-11" d="M247.35,58.37c-.35,1.31-1,1.38-1.78,1.18s-1.31-.6-1-1.91a7.71,7.71,0,0,1,2.23-2.84,7.75,7.75,0,0,1,.51,3.57"/><path class="cls-11" d="M250.75,57.15c-.32,1.2-.94,1.26-1.64,1.07s-1.21-.55-.89-1.75a7.15,7.15,0,0,1,2.05-2.6,7,7,0,0,1,.48,3.28"/><path class="cls-11" d="M249.47,63.43c-.45,1.28-1.13,1.3-1.87,1s-1.26-.7-.82-2a7.71,7.71,0,0,1,2.44-2.66,7.65,7.65,0,0,1,.25,3.6"/><path class="cls-11" d="M244.69,66.83c-.24,1.34-.91,1.46-1.68,1.32s-1.36-.49-1.12-1.82a7.63,7.63,0,0,1,2-3,7.69,7.69,0,0,1,.81,3.51"/><path class="cls-11" d="M247.31,71.81c-.45,1.28-1.13,1.29-1.87,1s-1.26-.69-.81-2a7.61,7.61,0,0,1,2.43-2.66,7.65,7.65,0,0,1,.25,3.6"/><path class="cls-11" d="M242.77,74.31c-.24,1.34-.91,1.46-1.68,1.32s-1.36-.49-1.12-1.82a7.71,7.71,0,0,1,2-3,7.69,7.69,0,0,1,.81,3.51"/><path class="cls-11" d="M244.92,80.76c-.45,1.28-1.13,1.3-1.87,1s-1.26-.7-.82-2a7.77,7.77,0,0,1,2.44-2.67,7.65,7.65,0,0,1,.25,3.6"/><path class="cls-11" d="M240.22,81.76c-.21,1.18-.8,1.28-1.48,1.16s-1.19-.43-1-1.6a6.7,6.7,0,0,1,1.75-2.65,6.67,6.67,0,0,1,.71,3.09"/><polygon class="cls-9" points="232.64 49.68 217.25 107.29 219.64 107.92 236.34 45.39 232.64 49.68"/><polygon class="cls-10" points="237.42 50.95 236.36 45.37 236.34 45.39 219.64 107.92 222.03 108.56 237.42 50.95"/><path class="cls-11" d="M234.51,51.82c-.35,1.31-1,1.38-1.79,1.17s-1.31-.59-1-1.9A7.71,7.71,0,0,1,234,48.25a7.68,7.68,0,0,1,.52,3.57"/><path class="cls-11" d="M237.9,50.59c-.32,1.21-.94,1.27-1.64,1.08s-1.21-.55-.88-1.75a7.11,7.11,0,0,1,2-2.61,7.08,7.08,0,0,1,.48,3.28"/><path class="cls-11" d="M236.62,56.88c-.45,1.28-1.13,1.29-1.87,1s-1.26-.69-.81-2a7.61,7.61,0,0,1,2.43-2.66,7.65,7.65,0,0,1,.25,3.6"/><path class="cls-11" d="M231.84,60.28c-.24,1.33-.91,1.45-1.68,1.31s-1.36-.48-1.12-1.81a7.8,7.8,0,0,1,2-3,7.74,7.74,0,0,1,.81,3.52"/><path class="cls-11" d="M234.46,65.26c-.45,1.28-1.12,1.29-1.87,1s-1.26-.69-.81-2a7.61,7.61,0,0,1,2.43-2.66,7.65,7.65,0,0,1,.25,3.6"/><path class="cls-11" d="M229.92,67.76c-.24,1.34-.91,1.46-1.68,1.32s-1.36-.49-1.11-1.82a7.63,7.63,0,0,1,2-3,7.59,7.59,0,0,1,.8,3.51"/><path class="cls-11" d="M232.07,74.21c-.45,1.28-1.13,1.3-1.87,1s-1.26-.7-.82-2a7.71,7.71,0,0,1,2.44-2.66,7.65,7.65,0,0,1,.25,3.6"/><path class="cls-11" d="M227.37,75.21c-.21,1.18-.8,1.28-1.48,1.16s-1.19-.43-1-1.6a6.76,6.76,0,0,1,1.75-2.66,6.72,6.72,0,0,1,.71,3.1"/><polygon class="cls-9" points="224.35 44.38 209.13 102.03 206.75 101.4 223.26 38.82 224.35 44.38"/><polygon class="cls-10" points="219.57 43.11 223.25 38.79 223.26 38.82 206.75 101.4 204.35 100.77 219.57 43.11"/><path class="cls-11" d="M221.66,45.31c-.34,1.31.21,1.71,1,1.91s1.44.13,1.78-1.18a7.64,7.64,0,0,0-.53-3.57,7.72,7.72,0,0,0-2.22,2.84"/><path class="cls-11" d="M219.33,42.56c-.32,1.21.19,1.57.89,1.75s1.31.12,1.63-1.08a7.08,7.08,0,0,0-.48-3.28,7,7,0,0,0-2,2.61"/><path class="cls-11" d="M217.32,48.66c-.25,1.33.34,1.68,1.11,1.82s1.44,0,1.69-1.31a7.78,7.78,0,0,0-.8-3.52,7.81,7.81,0,0,0-2,3"/><path class="cls-11" d="M219.78,54c-.45,1.28.07,1.71.81,2s1.42.26,1.87-1a7.74,7.74,0,0,0-.23-3.6A7.64,7.64,0,0,0,219.78,54"/><path class="cls-11" d="M215,57c-.25,1.34.33,1.68,1.11,1.83s1.44,0,1.68-1.31A7.68,7.68,0,0,0,217,54a7.63,7.63,0,0,0-2,3"/><path class="cls-11" d="M217.74,61.43c-.46,1.28.06,1.71.81,2s1.41.26,1.87-1a7.69,7.69,0,0,0-.24-3.6,7.64,7.64,0,0,0-2.44,2.65"/><path class="cls-11" d="M212.67,66c-.24,1.34.34,1.69,1.11,1.83s1.45,0,1.69-1.31a7.64,7.64,0,0,0-.8-3.52,7.74,7.74,0,0,0-2,3"/><path class="cls-11" d="M216.26,69.16c-.4,1.13.06,1.51.71,1.74s1.25.22,1.65-.9a6.91,6.91,0,0,0-.21-3.18,6.78,6.78,0,0,0-2.15,2.34"/><polygon class="cls-9" points="230.97 46.92 215.75 104.58 213.36 103.95 229.88 41.36 230.97 46.92"/><polygon class="cls-10" points="226.19 45.66 229.87 41.34 229.88 41.36 213.36 103.95 210.97 103.31 226.19 45.66"/><path class="cls-11" d="M228.28,47.86c-.34,1.31.21,1.7,1,1.9s1.44.13,1.78-1.18A7.64,7.64,0,0,0,230.5,45a7.79,7.79,0,0,0-2.22,2.85"/><path class="cls-11" d="M225.94,45.11c-.31,1.2.2,1.56.89,1.75s1.32.12,1.64-1.09A7,7,0,0,0,228,42.5a7,7,0,0,0-2,2.61"/><path class="cls-11" d="M223.94,51.2c-.25,1.33.33,1.68,1.11,1.83s1.44,0,1.68-1.31a7.64,7.64,0,0,0-.79-3.52,7.63,7.63,0,0,0-2,3"/><path class="cls-11" d="M226.4,56.52c-.45,1.28.07,1.72.81,2s1.42.25,1.87-1a7.74,7.74,0,0,0-.23-3.6,7.74,7.74,0,0,0-2.45,2.65"/><path class="cls-11" d="M221.66,59.55c-.25,1.33.33,1.68,1.11,1.82s1.44,0,1.68-1.31a7.68,7.68,0,0,0-.79-3.52,7.61,7.61,0,0,0-2,3"/><path class="cls-11" d="M224.35,64c-.45,1.28.07,1.72.81,2s1.42.25,1.88-1a7.69,7.69,0,0,0-.24-3.6A7.73,7.73,0,0,0,224.35,64"/><path class="cls-11" d="M219.29,68.51c-.24,1.33.34,1.68,1.11,1.82s1.44,0,1.69-1.31a7.64,7.64,0,0,0-.8-3.52,7.81,7.81,0,0,0-2,3"/><path class="cls-11" d="M222.87,71.7c-.39,1.13.07,1.51.72,1.74s1.25.23,1.65-.9a6.86,6.86,0,0,0-.21-3.17,6.81,6.81,0,0,0-2.16,2.33"/><rect class="cls-12" x="146.46" y="202.92" width="10.93" height="24.2" rx="2.72" ry="2.72"/><path class="cls-12" d="M251.6,224.4a2.75,2.75,0,0,1-2.76,2.72h-5.51a2.76,2.76,0,0,1-2.78-2.72V205.67a2.79,2.79,0,0,1,2.78-2.75h5.51a2.78,2.78,0,0,1,2.76,2.75Z"/><path class="cls-13" d="M252.6,92.06c0-.19,0-.42,0-.55H145.45c0,.13,0,.36,0,.55l.21,4.19,106.16,11.82Z"/><path class="cls-14" d="M145.65,96.25l5.88,118.24a13.36,13.36,0,0,0,13.36,13.36h68.26a13.36,13.36,0,0,0,13.36-13.36l5.3-106.42Z"/><path class="cls-14" d="M256.88,90.63a3.7,3.7,0,0,1-3.66,3.71H144.82a3.69,3.69,0,0,1-3.64-3.71v-5.1a3.59,3.59,0,0,1,3.64-3.6h108.4a3.61,3.61,0,0,1,3.66,3.6Z"/><path class="cls-15" d="M204.89,142.37l-5.35,3.77,7-.84.31,0,.89-.1,6.24-.75,2.68-5.36.28-.56,3.54-7.11-5.44,3.83-4.69-8.13c-1.26-1.94-2.58-2.79-3.88-2.92-2.31-.11-4.66,2-6.33,4-.45.58-.87,1.17-1.24,1.73l-.41.64.41.84.63,1.25c1.37,2.67,3.25,6.08,5.34,9.77"/><path class="cls-15" d="M219.05,168c-.7-.05-1.48-.1-2.33-.14-3-.14-6.9-.22-11.14-.26L205,161.1l-2.79,6.5-.12.28-.36.83-2.47,5.78,3.3,5,.35.53,4.38,6.63-.6-6.63h9.39c2.31-.12,3.71-.84,4.48-1.9,1.25-2,.63-5-.29-7.47-.39-1-.82-1.86-1.22-2.62"/><path class="cls-15" d="M229.79,163.65a3,3,0,0,0-.24-1.4l-.12-.2-8.34-14.46-9.64,5.11c.6,1,1.33,2.28,2.09,3.64l5.27,9.13c.19.29.62,1,1.13,1.9h0l.15.29a21,21,0,0,1,1.22,2.68,11.41,11.41,0,0,1,1,6.23Z"/><path class="cls-15" d="M198.92,127.92l.44-.56a11.53,11.53,0,0,1,4.9-4H189.34a3.23,3.23,0,0,0-1.09.91l-.11.2L179.79,139l9.25,5.79c.57-1,1.31-2.29,2.11-3.64l5.27-9.12c.15-.31.52-1,1.08-1.93l0,0,.17-.28c.33-.54.77-1.18,1.27-1.84"/><path class="cls-15" d="M175.58,168.05c1,.15,2,.22,2.88.26l1.29-1.95c1.62-2.53,3.64-5.86,5.79-9.51l5.94,2.75-4.23-5.66-.19-.25-.54-.72-3.77-5-6,.36-.63,0-7.93.48,6,2.8-4.7,8.12c-1.05,2.07-1.12,3.64-.59,4.83,1.06,2.06,4,3.05,6.61,3.48"/><path class="cls-15" d="M191.33,169.38H180.78c-.34,0-1.14.05-2.2,0l0,0h-.32a21.67,21.67,0,0,1-2.93-.28,11.46,11.46,0,0,1-5.89-2.26l7.46,12.92a3.16,3.16,0,0,0,1.33.49h16.92l.39-10.9c-1.16,0-2.63,0-4.19,0"/></svg>